<?xml version="1.0" standalone="no"?>
<!DOCTYPE svg PUBLIC "-//W3C//DTD SVG 1.1//EN" "http://www.w3.org/Graphics/SVG/1.1/DTD/svg11.dtd" >
<svg>
<metadata>
Created by FontForge 20110222 at Mon Mar  7 13:23:03 2011
 By www-data
Unicode Fonts for Ancient Scripts; George Douros; 2009
</metadata>
<defs>
<font id="AvdiraItalic" horiz-adv-x="1064" >
  <font-face 
    font-family="Avdira"
    font-weight="400"
    font-style="italic"
    font-stretch="normal"
    units-per-em="2048"
    panose-1="2 7 5 2 6 4 5 13 8 3"
    ascent="1638"
    descent="-410"
    x-height="955"
    cap-height="1361"
    bbox="-122 -490 2027 1896"
    underline-thickness="20"
    underline-position="-432"
    slope="-12"
    unicode-range="U+0020-2122"
  />
    <missing-glyph />
    <glyph glyph-name="space" unicode=" " horiz-adv-x="576" 
 />
    <glyph glyph-name="exclam" unicode="!" horiz-adv-x="537" 
d="M575 1283q0 -30 -109 -404.5t-129 -418t-42 -43.5q-27 0 -27 44q0 20 8 100q2 15 20 141l67 454q2 25 11 70q14 42 57 70.5t88 28.5q56 0 56 -42zM373 124q0 -15 -71 -78t-87 -63q-12 0 -28 22q-74 103 -74 111q0 21 65.5 80t85.5 59q17 0 63 -58t46 -73z" />
    <glyph glyph-name="quotedbl" unicode="&#x22;" horiz-adv-x="751" 
d="M805 1295q0 -28 -54 -157l-121 -291q-13 -31 -27 -31q-7 0 -22.5 8t-14.5 13q7 30 17 89q0 1 26 244q9 89 27 127q30 67 99 67q70 0 70 -69zM510 1295q0 -30 -53 -157l-121 -291q-13 -31 -28 -31q-7 0 -23 8t-15 13q7 30 18 89q8 81 25 244q20 194 128 194q69 0 69 -69z
" />
    <glyph glyph-name="numbersign" unicode="#" horiz-adv-x="1258" 
d="M1300 916q0 -41 -33 -65q-29 -22 -71 -22h-164l-89 -286h180q52 0 52 -31q0 -86 -104 -86h-166l-120 -388q-25 -80 -81 -80q-38 0 -38 31q0 11 11 49l122 388h-324l-121 -388q-25 -80 -79 -80q-38 0 -38 32q0 10 12 48l123 388h-186q-52 0 -52 30q0 87 105 87h167l92 286
h-171q-67 0 -67 31q0 87 106 87h165l106 332q25 80 77 80q40 0 40 -30q0 -12 -12 -50l-104 -332h324l105 332q25 80 78 80q39 0 39 -30q0 -12 -12 -50l-104 -332h184q48 0 48 -31zM925 829h-324l-88 -286h324z" />
    <glyph glyph-name="dollar" unicode="$" horiz-adv-x="1001" 
d="M1073 1226q0 -63 -39 -167q-7 -20 -22 -20q-18 0 -29 26q0 1 -11 30q-55 152 -176 191l-104 -473q153 -84 207 -136q93 -91 93 -221q0 -190 -144 -315q-136 -118 -330 -126l-54 -243q-12 -55 -43 -55q-35 0 -35 24q0 3 6 31l53 244q-102 12 -180 48q-110 51 -110 131
q0 41 22 119q27 92 54 92q20 0 28 -54q18 -114 55 -171q48 -76 146 -97l127 572q-257 139 -257 327q0 140 102 249q118 125 309 129l26 119q10 49 45 49q31 0 31 -21q0 -10 -30 -153q56 -10 173 -67q30 -8 77 -35q10 -12 10 -27zM727 1297q-17 1 -23 1q-94 0 -167 -70
t-73 -163q0 -117 165 -215zM835 378q0 131 -142 215q-14 8 -43 25l-119 -540q123 8 212 92q92 88 92 208z" />
    <glyph glyph-name="percent" unicode="%" horiz-adv-x="1229" 
d="M713 1191q0 -154 -103 -278q-109 -131 -260 -131q-110 0 -177 68.5t-67 177.5q0 156 107 276q110 125 264 125q105 0 170.5 -66.5t65.5 -171.5zM1265 1422q0 -8 -18 -32l-1066 -1336q-37 -46 -76 -46q-37 0 -37 17q0 6 12 22l1081 1356q29 36 72 36q32 0 32 -17z
M1266 392q0 -154 -104 -278q-110 -132 -261 -132q-109 0 -176 68.5t-67 177.5q0 156 107 276q111 125 265 125q104 0 170 -66t66 -171zM583 1240q0 143 -110 143q-107 0 -178 -153q-60 -126 -60 -247q0 -151 112 -151q107 0 178 156q58 128 58 252zM1136 441q0 142 -109 142
q-108 0 -180 -153q-60 -127 -60 -249q0 -149 110 -149q109 0 180 157q59 128 59 252z" />
    <glyph glyph-name="ampersand" unicode="&#x26;" horiz-adv-x="1539" 
d="M1649 1178q0 -263 -384 -441q-50 -23 -50 -30q0 4 38.5 -44t38.5 -119q0 -133 -91 -258q-78 -108 -205 -189q-189 -120 -399 -120q-200 0 -330 96q-146 107 -146 300q0 147 93 275q59 83 171 170q93 72 93 83q0 8 -5 24t-5 25q0 167 130.5 298.5t298.5 131.5
q81 0 137 -35q65 -41 65 -118q0 -64 -49.5 -117t-112.5 -53q-39 0 -39 29q0 9 21 41.5t21 56.5q0 77 -109 77q-106 0 -199.5 -100t-93.5 -207q0 -33 9 -33q5 0 34 8q51 14 97 14q64 0 107 -29q49 -33 49 -94q0 -66 -47 -107.5t-115 -41.5q-117 0 -170 110q-16 33 -18 33
q-9 0 -39 -32q-138 -145 -138 -315q0 -167 115 -279t281 -112q130 0 243 73q110 70 174 187q51 91 51 146q0 68 -40 114.5t-108 46.5q-65 0 -114.5 -52.5t-49.5 -117.5q0 -77 64 -77q20 0 42.5 22.5t32.5 22.5q19 0 19 -22q0 -40 -36.5 -67.5t-77.5 -27.5q-64 0 -103 54
q-34 48 -34 115q0 138 133 237q79 59 285 144q199 83 265 137q108 87 108 192q0 50 -32 83t-82 33q-35 0 -69 -27t-34 -62q0 -26 41 -40.5t41 -40.5q0 -35 -33.5 -63t-69.5 -28q-97 0 -97 105q0 88 70.5 151t158.5 63q89 0 143.5 -55.5t54.5 -143.5zM724 826q0 51 -70 51
q-106 0 -106 -40q0 -34 36 -59q32 -22 68 -22q72 0 72 70z" />
    <glyph glyph-name="quotesingle" unicode="'" horiz-adv-x="476" 
d="M510 1295q0 -30 -53 -157l-121 -291q-13 -31 -28 -31q-7 0 -23 8t-15 13q7 30 18 89q8 81 25 244q20 194 128 194q69 0 69 -69z" />
    <glyph glyph-name="parenleft" unicode="(" horiz-adv-x="726" 
d="M768 1403q0 -15 -51 -60q-96 -86 -200 -260q-98 -167 -158 -402q-57 -227 -57 -430q0 -172 54 -343q15 -48 44 -104q9 -16 9 -26q0 -21 -25 -21q-46 0 -110 138q-117 253 -117 524q0 489 435 900q110 105 152 105q24 0 24 -21z" />
    <glyph glyph-name="parenright" unicode=")" horiz-adv-x="603" 
d="M569 758q0 -522 -476 -935q-77 -66 -108 -66q-25 0 -25 24q0 10 34 37q84 69 146 155q131 185 209 452q75 255 75 494q0 268 -93 441q-16 29 -16 42q0 22 28 22q46 0 109 -136q117 -252 117 -530z" />
    <glyph glyph-name="asterisk" unicode="*" horiz-adv-x="809" 
d="M866 1280q0 -76 -63 -76q-35 0 -104 7.5t-104 7.5q-33 0 -33 -13t73 -99t73 -109q0 -24 -45 -52q-41 -26 -67 -26q-24 0 -49 97q-13 62 -26 123q-7 31 -15 31q-10 0 -82.5 -115t-98.5 -115q-23 0 -54.5 30t-31.5 53t104.5 105.5t107.5 89.5q3 11 -10 11
q-33 0 -120.5 -37.5t-110.5 -37.5q-61 0 -61 74q0 76 63 76q35 0 104 -7.5t104 -7.5q33 0 33 13t-73 99t-73 109q0 24 43 51t69 27q23 0 48 -97q14 -62 27 -123q7 -31 15 -31q10 0 82.5 115t98.5 115q23 0 54.5 -30t31.5 -53t-103 -104q-107 -84 -109 -91q-4 -11 10 -11
q33 0 120 37.5t111 37.5q61 0 61 -74z" />
    <glyph glyph-name="plus" unicode="+" horiz-adv-x="1000" 
d="M1071 550q0 -24 -21 -68q-22 -49 -43 -49q-39 0 -117.5 2.5t-117.5 2.5h-73q-10 -159 -33 -333q-45 -10 -105 -26q-25 4 -25 20q0 -13 20 165l18 174q-117 2 -198 2q-20 0 -60.5 -2t-60.5 -2q-35 0 -35 14q0 7 13.5 58.5t15.5 53.5q12 8 37 8q119 0 300 -6l14 180
q12 136 27 152q5 6 39.5 17.5t44.5 11.5q35 0 35 -17q0 -27 -14 -156l-21 -190q47 0 146 2q96 1 145 1q69 0 69 -15z" />
    <glyph glyph-name="comma" unicode="," horiz-adv-x="465" 
d="M327 58q0 -173 -172 -320q-91 -78 -134 -78q-19 0 -19 18q0 8 48 50q59 52 88 90q48 62 48 121q0 51 -44 89t-44 47q0 27 53 95.5t78 68.5q41 0 72 -72q26 -61 26 -109z" />
    <glyph glyph-name="hyphen" unicode="-" horiz-adv-x="734" 
d="M724 578q0 -51 -16 -71t-63 -30l-471 -103q-32 -7 -45 -7q-29 0 -29 28q0 52 14.5 70.5t64.5 29.5l478 103q23 5 37 5q30 0 30 -25z" />
    <glyph glyph-name="period" unicode="." horiz-adv-x="473" 
d="M363 117q0 -14 -74.5 -77t-89.5 -63q-13 0 -29 23q-74 103 -74 117q0 17 71 73.5t89 56.5q14 0 60.5 -57t46.5 -73z" />
    <glyph glyph-name="slash" unicode="/" horiz-adv-x="1133" 
d="M1209 1387q0 -2 -39 -54l-1125 -1530q-22 -29 -47 -29q-31 0 -31 25q0 22 27 58l1126 1530q17 23 34 23q55 0 55 -23z" />
    <glyph glyph-name="zero" unicode="0" 
d="M1006 889q0 -221 -108 -463q-115 -259 -286 -373q-106 -71 -210 -71q-93 0 -175 55q-169 114 -169 418q0 72 27 206q54 258 183 447q165 242 389 242q176 0 270 -149q79 -125 79 -312zM826 802q0 160 -45 286q-64 176 -195 176q-59 0 -145 -82q-106 -100 -167 -293
q-53 -170 -53 -339q0 -158 49 -284q66 -173 198 -173q177 0 280 278q78 213 78 431z" />
    <glyph glyph-name="one" unicode="1" 
d="M849 1331q0 -14 -32 -134q-38 -140 -40 -151l-178 -798q-14 -62 -14 -91q0 -59 46 -81q19 -9 84 -18q46 -6 46 -27q0 -36 -48 -36q-41 0 -122.5 6t-122.5 6q-74 0 -182 -9q-36 -3 -40 -3q-31 0 -31 24q0 30 61 41q74 13 96 37q31 34 60 163l166 744q15 67 15 91
q0 46 -53 46q-18 0 -53.5 -9.5t-53.5 -9.5q-25 0 -25 23q0 22 44 41q88 30 258 107l50 34q37 24 49 24q20 0 20 -20z" />
    <glyph glyph-name="two" unicode="2" 
d="M1008 1101q0 -155 -177 -377q-106 -135 -328 -347q-177 -168 -177 -191q0 -38 167 -38q62 0 98 4l33 6q45 4 103 25l106 40q12 5 23 10q6 0 6 -10q0 -28 -26 -44q-22 -11 -107 -78q-79 -63 -99 -83.5t-40 -20.5q-22 0 -46 3q-64 8 -261 8q-87 0 -152 -9q-29 -4 -38 -4
q-37 0 -37 29q0 13 36 51q22 23 49 45q66 55 275 260q132 130 233 302q119 204 119 353q0 32 -12 83q-23 102 -129 102q-83 0 -157 -43q-44 -26 -101 -81q-45 -43 -59 -43q-25 0 -25 25q0 21 39 71q156 201 389 201q121 0 204 -63q91 -69 91 -186z" />
    <glyph glyph-name="three" unicode="3" 
d="M999 1151q0 -141 -138 -263q-50 -44 -109 -82q-16 -12 -16 -14t53 -15q88 -22 132 -73q51 -58 51 -160q0 -232 -200 -415q-196 -178 -430 -178q-118 0 -212 55q-65 37 -65 68q0 36 34 36q6 0 91 -35t144 -35q165 0 302 143.5t137 309.5q0 85 -53.5 131t-139.5 46
q-17 0 -49 -6t-48 -6q-23 0 -23 21q0 25 43 45q120 57 207 146q108 110 108 220q0 66 -42.5 103.5t-110.5 37.5q-92 0 -179 -69t-97 -69q-25 0 -25 24q0 28 93 112q136 122 301 122q101 0 167 -48q74 -55 74 -152z" />
    <glyph glyph-name="four" unicode="4" 
d="M1022 564q0 -34 -68 -153q-25 -44 -82 -44h-84q-2 0 -7 -12q-7 -19 -27 -108l-68 -305q-9 -37 -43 -54q-60 -30 -116 -30q-32 0 -32 26q0 15 19 72q23 67 26 80l60 270q11 49 11 53q0 8 -74 8h-437q-58 0 -58 31q0 61 465 534q164 167 319 309q45 44 117 102q20 11 35 11
q24 0 24 -22q0 -17 -21 -87q-25 -86 -27 -96l-130 -587q-9 -40 -9 -42q0 -9 36 -9q42 0 87 37.5t61 37.5q23 0 23 -22zM769 1059q0 1 -1 4q-23 9 -213 -196q-87 -91 -173 -181q-143 -154 -143 -170q0 -1 0.5 -1t14.5 -1q70 -5 220 -5h85q66 1 84 1q6 17 50 213l63 285
q13 58 13 51z" />
    <glyph glyph-name="five" unicode="5" 
d="M1099 1370q0 -13 -114 -187q-25 -38 -123 -38q-42 0 -125 4.5t-125 4.5q-87 0 -108 -29q-12 -16 -56.5 -129.5t-44.5 -125.5q0 -5 14 -5q22 0 68 5t69 5q159 0 255 -77q104 -84 104 -240q0 -238 -206 -429q-203 -186 -443 -186q-67 0 -171 29q-128 35 -128 80q0 36 35 36
q13 0 51 -16q101 -45 191 -45q164 0 298 120q177 159 177 351q0 103 -74 165q-69 59 -174 59q-58 0 -115 -12q-47 -10 -56 -10q-32 0 -32 29q0 6 24 72q44 124 88 249q74 201 95 216q16 39 35 50.5t61 11.5h341q55 0 78 10q9 4 42 31q26 22 44 22q25 0 25 -21z" />
    <glyph glyph-name="six" unicode="6" 
d="M1061 1358q0 -22 -54 -39q-260 -78 -409 -220q-120 -116 -193 -257q-11 -21 -22 -44q0 -2 3 -2q2 0 97 41.5t188 41.5q144 0 228 -94.5t84 -240.5q0 -216 -158 -387q-162 -175 -377 -175q-171 0 -272 129q-93 118 -93 294q0 282 215 552q201 252 477 366q161 67 240 67
q46 0 46 -32zM797 484q0 118 -53 201q-63 97 -175 97q-83 0 -165 -72q-134 -115 -134 -330q0 -122 52 -211q62 -106 176 -106q142 0 227 145q72 122 72 276z" />
    <glyph glyph-name="seven" unicode="7" 
d="M993 1291q0 -48 -60 -167q-53 -104 -138 -243q-25 -36 -75 -110q-9 -17 -27 -50q-23 -35 -67 -106q-215 -354 -227 -575q1 18 1 -70q0 -33 -23 -48q-44 -30 -108 -30q-83 0 -83 64q0 4 28 108q64 237 252 477q98 126 223 306q42 61 115 189q40 88 40 98q0 15 -15 15h-363
q-96 0 -137 -25q-26 -15 -74 -83q-42 -59 -58 -59q-26 0 -26 25q0 11 54 147q52 131 61 147q17 30 41 30q5 0 47 -5q74 -9 158 -9h99q52 0 156.5 5.5t156.5 5.5q49 0 49 -37z" />
    <glyph glyph-name="eight" unicode="8" 
d="M1022 1101q0 -150 -121 -256q-53 -46 -106 -69.5t-53 -26.5q0 -5 37 -25q162 -89 162 -255q0 -104 -56 -206q-71 -130 -197.5 -205.5t-274.5 -75.5q-153 0 -256 76q-115 85 -115 233q0 120 66 218q82 119 217 187q26 13 26 16q0 -4 -58 67t-58 143q0 173 151 303
q144 125 319 125q126 0 215 -60q102 -69 102 -189zM898 1079q0 91 -60 147t-152 56q-108 0 -192 -72q-87 -75 -87 -182q0 -104 147 -187q96 -53 118 -53q68 0 148 109q78 105 78 182zM765 363q0 124 -155 208q-189 102 -197 102q-45 0 -133 -91q-102 -106 -102 -261
q0 -118 73 -191.5t191 -73.5q128 0 225.5 90t97.5 217z" />
    <glyph glyph-name="nine" unicode="9" 
d="M1020 933q0 -283 -221 -555q-206 -256 -484 -364q-168 -66 -235 -66q-36 0 -36 32q0 22 75 44q222 64 379 204q136 123 215 290q9 19 18 39q0 2 -2 2q-11 0 -38 -17q-129 -80 -254 -80q-145 0 -231.5 92t-86.5 238q0 218 159 386q162 172 379 172q170 0 271 -126
q92 -116 92 -291zM831 964q0 121 -50 206q-61 102 -175 102q-141 0 -227 -145q-73 -123 -73 -275q0 -115 52 -197q60 -95 169 -95q144 0 230 135q74 117 74 269z" />
    <glyph glyph-name="colon" unicode=":" horiz-adv-x="521" 
d="M490 692q0 -14 -75.5 -77.5t-88.5 -63.5q-12 0 -29 24q-74 105 -74 112q0 22 72 79q69 55 88 55q14 0 60.5 -56.5t46.5 -72.5zM386 116q0 -13 -74.5 -76t-88.5 -63q-15 0 -59 61.5t-44 79.5q0 16 71 72.5t88 56.5q15 0 61 -57.5t46 -73.5z" />
    <glyph glyph-name="semicolon" unicode=";" horiz-adv-x="463" 
d="M451 691q0 -12 -128 -120q-24 -20 -37 -20q-12 0 -29 24q-72 103 -72 112q0 19 31 45q106 89 129 89q13 0 59.5 -57.5t46.5 -72.5zM327 58q0 -173 -172 -320q-91 -78 -134 -78q-19 0 -19 14q0 5 92 94.5t92 170.5q0 51 -43.5 89t-43.5 47q0 27 53 95.5t78 68.5
q40 0 71 -73q26 -61 26 -108z" />
    <glyph glyph-name="less" unicode="&#x3c;" horiz-adv-x="1031" 
d="M1057 1062l-10 -92l-691 -419l603 -424l-18 -165l-784 550l4 10z" />
    <glyph glyph-name="equal" unicode="=" horiz-adv-x="1046" 
d="M1121 750q0 -24 -21 -68q-22 -49 -43 -49q-39 0 -117.5 2.5t-117.5 2.5q-66 0 -198 1t-198 1q-20 0 -60.5 -2t-60.5 -2q-35 0 -35 14q0 7 13.5 58.5t15.5 53.5q12 8 37 8q-25 0 300 -6q81 -1 208 0q178 1 208 1q69 0 69 -15zM1071 370q0 -24 -21 -68q-22 -49 -43 -49
q-39 0 -117.5 2.5t-117.5 2.5q-66 0 -198 1t-198 1q-20 0 -60.5 -2t-60.5 -2q-35 0 -35 14q0 7 13.5 58.5t15.5 53.5q12 8 37 8q-25 0 300 -6q81 -1 208 0q178 1 208 1q69 0 69 -15z" />
    <glyph glyph-name="greater" unicode="&#x3e;" horiz-adv-x="936" 
d="M1003 521l-4 -10l-896 -539l10 91l691 419l-602 424l18 166z" />
    <glyph glyph-name="question" unicode="?" horiz-adv-x="779" 
d="M831 1090q0 -114 -106 -225l-204 -178q-116 -102 -130 -182q-11 -66 -27 -66q-32 0 -32 90t84 198q79 88 158 177q84 101 84 176q0 64 -51.5 108.5t-116.5 44.5q-67 0 -125.5 -55.5t-61.5 -55.5q-16 0 -16 16q0 17 51 75q97 111 231 111q104 0 181 -64q81 -69 81 -170z
M416 124q0 -15 -71 -78t-87 -63q-12 0 -28 22q-74 104 -74 111q0 20 66 79.5t86 59.5q16 0 62 -58t46 -73z" />
    <glyph glyph-name="at" unicode="@" horiz-adv-x="1511" 
d="M1514 837q0 -261 -232 -446q-153 -122 -287 -122q-94 0 -94 104q0 21 8 71q-194 -177 -326 -177q-59 0 -95.5 37.5t-36.5 96.5q0 165 176 359q180 200 344 200q24 0 68 -14t67 -14q18 0 58.5 33t53.5 33q15 0 15 -16q0 -4 -22 -53q-171 -384 -171 -514q0 -65 50 -65
t117 50q93 70 149 193q54 118 54 239q0 177 -124 278q-115 94 -296 94q-289 0 -504.5 -223t-215.5 -513q0 -205 135 -318q126 -106 335 -106q111 0 221 26q12 2 202 67q14 0 14 -51q0 -6 -51 -26q-193 -78 -401 -78q-247 0 -406 121q-176 134 -176 374q0 325 270 561
q259 228 589 228q210 0 353 -107q159 -118 159 -322zM1055 848q0 29 -32 46q-27 15 -57 15q-114 0 -245 -173q-126 -166 -126 -284q0 -86 84 -86q78 0 164 80q74 70 110 152q30 70 89 211q13 31 13 39z" />
    <glyph glyph-name="A" unicode="A" horiz-adv-x="1244" 
d="M1239 22q0 -27 -39 -27q-9 0 -30 3q-64 9 -130 9q-59 0 -141 -9q-27 -3 -35 -3q-32 0 -32 20t35 29q51 12 65 22q36 24 36 82q0 53 -18 131q-16 65 -31 129q-11 48 -18 57q-12 13 -56 13h-390q-51 0 -75 -43l-125 -226q-32 -58 -32 -95q0 -46 65.5 -64t65.5 -33
q0 -22 -34 -22q-28 0 -84 6t-84 6q-25 0 -74 -6t-74 -6q-24 0 -24 16q0 18 57 42q47 19 89 82q3 3 64 108l626 1076q30 53 49 53q20 0 31 -53l211 -1040q14 -75 46 -182q9 -14 49 -43q37 -25 37 -32zM882 591q0 8 -7 40q-57 260 -86 426q-8 46 -16 46q-7 0 -39 -57
q-73 -124 -147 -247q-122 -208 -122 -219q0 -13 25 -13h346q46 0 46 24z" />
    <glyph glyph-name="B" unicode="B" horiz-adv-x="1152" 
d="M1168 1093q0 -163 -132 -275q-45 -39 -104 -65q-43 -19 -43 -24q0 -7 23 -15q55 -18 105 -60q91 -77 91 -210q0 -149 -99 -272q-96 -119 -242 -159q-80 -22 -202 -22q-48 0 -144 9t-145 9q-25 0 -74 -7t-74 -7q-30 0 -30 22q0 13 46 31q53 20 71 46q11 17 27 97l202 958
q10 48 10 72q0 63 -65 83t-65 35q0 22 29 22q22 0 66 -7.5t67 -7.5q52 0 155.5 8.5t155.5 8.5q371 0 371 -270zM1005 1069q0 232 -251 232q-76 0 -102 -19q-28 -22 -44 -100l-71 -340q-9 -43 -9 -53q0 -28 52 -30q139 -7 115 -7q137 0 223.5 90t86.5 227zM936 433
q0 185 -146 239q-33 13 -100 20q-86 10 -111 10q-47 0 -61.5 -12t-24.5 -61l-89 -419q-11 -52 -11 -68q0 -92 175 -92q113 0 187 47q181 117 181 336z" />
    <glyph glyph-name="C" unicode="C" horiz-adv-x="1296" 
d="M1356 1260q0 -17 -11 -97q-3 -74 -13 -222q-4 -43 -24 -43t-32 57q-25 122 -77 191q-127 170 -315 170q-245 0 -399 -259q-133 -222 -133 -484q0 -203 93 -347q108 -167 300 -167q131 0 261 94q122 87 184 212q27 53 47 53q17 0 17 -27q0 -28 -41 -112q-22 -56 -75 -143
q-37 -37 -145 -87q-150 -71 -299 -71q-249 0 -386 163q-127 153 -127 407q0 319 196 566q210 265 520 265q150 0 292 -82q88 -50 90 -50q10 0 29.5 17.5t31.5 17.5q16 0 16 -22z" />
    <glyph glyph-name="D" unicode="D" horiz-adv-x="1426" 
d="M1397 864q0 -300 -190 -552q-197 -263 -486 -309q-77 -12 -177 -12q-44 0 -132 9t-132 9q-25 0 -75.5 -7t-75.5 -7q-37 0 -37 15q0 11 22 21q80 37 120 132q6 12 32 139l175 836q13 62 13 85q0 49 -36 69q-13 8 -66 20q-35 7 -35 26q0 23 30 23q29 0 87.5 -7.5t87.5 -7.5
q58 0 171.5 8t170.5 8q183 0 294 -60q239 -127 239 -438zM1227 857q0 209 -117 324.5t-325 115.5q-124 0 -157 -56q-9 -16 -24 -86l-201 -952q-10 -48 -10 -70q0 -80 137 -80q257 0 429 158q100 92 171 246q66 142 88 290q9 60 9 110z" />
    <glyph glyph-name="E" unicode="E" horiz-adv-x="1150" 
d="M1232 1334q0 -21 -6 -54q-8 -43 -9 -54q-2 -46 -10 -137q-4 -33 -25 -33q-16 0 -22 50q-8 72 -25 102q-25 46 -127 58q-25 3 -151 4q-16 1 -65 2q-40 1 -65 1q-60 0 -83.5 -18.5t-36.5 -78.5l-80 -378q-5 -24 -5 -32q0 -24 32 -24h242q74 0 118 40q25 23 50 75
q19 40 34 40q16 0 16 -21q0 7 -22 -92q-10 -47 -44 -232q-16 -85 -35 -85q-17 0 -17 74q0 113 -134 113h-212q-33 0 -44.5 -10.5t-18.5 -44.5l-88 -412q-3 -14 -3 -39q0 -63 134 -63q291 0 452 122q43 31 72 68q27 34 42 34q17 0 17 -21q0 -50 -65 -150q-57 -87 -108 -117
q-54 -30 -156 -30q-63 0 -188.5 9.5t-188.5 9.5q-48 0 -143.5 -7.5t-143.5 -7.5q-33 0 -33 22q0 16 52 29q59 16 79 52q10 19 24 90l200 954q10 48 10 71q0 53 -35 76q-16 10 -66 22q-35 9 -35 27q0 23 34 23q8 0 60 -5q104 -10 245 -10h140q133 0 298 8q12 0 49 4
q31 3 50 3q40 0 40 -27z" />
    <glyph glyph-name="F" unicode="F" horiz-adv-x="1081" 
d="M1158 1335q0 14 -16 -131q0 -38 -3 -114q-1 -43 -23 -43q-15 0 -19 37q-6 46 -9 60q-7 34 -21 57q-38 59 -172 71q-108 10 -107 10q-84 0 -113 -10q-52 -19 -65 -83l-81 -385q-7 -34 -7 -40q0 -25 40 -25h221q64 0 97 21q18 11 52 67q30 49 40 49q15 0 15 -16t-20 -102
q-24 -99 -26 -115q-6 -52 -23 -154q-7 -30 -23 -30q-15 0 -21 48l-6 62q-14 81 -109 81h-202q-41 0 -55 -16q-11 -12 -20 -56l-77 -365q-10 -48 -10 -72q0 -50 37 -73q18 -11 69 -23q37 -10 37 -25q0 -25 -36 -25q-32 0 -96 6t-96 6q-68 0 -150 -9q-27 -3 -40 -3
q-32 0 -32 21q0 15 53 32q60 19 80 59q7 16 22 88l187 886q18 85 18 127q0 58 -34 83q-16 11 -64 22q-34 8 -34 26q0 25 34 25q16 0 58 -4q148 -14 364 -14q145 0 273 7q11 1 45 5q28 3 45 3q23 0 23 -26z" />
    <glyph glyph-name="G" unicode="G" horiz-adv-x="1365" 
d="M1370 664q0 -15 -38 -31q-46 -19 -51 -24q-12 -13 -30 -83q-54 -206 -63 -346q0 -19 -4 -54q-8 -27 -71 -51q-45 -14 -91 -29q-184 -69 -308 -69q-107 0 -199 35q-334 125 -334 544q0 325 194 565q208 258 525 258q118 0 226 -47q8 -3 84 -43q67 -35 73 -35
q14 0 30.5 20.5t29.5 20.5q20 0 20 -26q0 21 -18 -141q-2 -53 -6 -160q-2 -51 -27 -51q-11 0 -17 13q-4 10 -10 38q-22 117 -77 185q-128 159 -336 159q-258 0 -412 -306q-114 -227 -114 -431q0 -217 96 -362q112 -168 319 -168q140 0 203 71q44 49 90 202q37 122 37 220
q0 55 -36 74q-14 8 -66 16q-35 5 -35 25q0 25 38 25q28 0 84 -2.5t84 -2.5q32 0 93.5 5.5t92.5 5.5q24 0 24 -20z" />
    <glyph glyph-name="H" unicode="H" horiz-adv-x="1445" 
d="M1548 1341q0 -17 -50 -35q-58 -21 -76 -47q-12 -20 -29 -102l-193 -921q-12 -57 -12 -87q0 -56 36 -81q18 -12 67 -23q36 -9 36 -25q0 -25 -36 -25q-30 0 -91.5 6t-91.5 6q-72 0 -154 -9q-28 -3 -38 -3q-35 0 -35 21q0 4 5 7q34 20 67.5 41t56.5 59q14 23 26 81l81 388
q5 24 5 42q0 26 -38 26h-547q-28 0 -36 -7.5t-14 -37.5l-82 -386q-9 -42 -9 -77q0 -54 36 -80q18 -13 66 -28q35 -10 35 -25q0 -24 -34 -24q-31 0 -93 6t-93 6q-63 0 -154 -9q-30 -3 -37 -3q-31 0 -31 18t47 35q54 20 72 46q15 23 34 118l195 928q11 52 11 73q0 53 -35 76
q-16 11 -64 23q-35 8 -35 24q0 25 35 25q11 0 30 -2q89 -9 155 -9q31 0 93 5.5t93 5.5q33 0 33 -20q0 -13 -37 -33q-44 -24 -49 -30q-16 -16 -51 -85q-13 -25 -54.5 -207.5t-41.5 -212.5q0 -25 40 -25h531q37 0 48.5 8t18.5 44l71 334q11 52 11 80q0 51 -35 74
q-16 11 -65 23q-35 9 -35 26q0 24 34 24q30 0 90 -5.5t90 -5.5q33 0 98.5 5.5t98.5 5.5q30 0 30 -20z" />
    <glyph glyph-name="I" unicode="I" horiz-adv-x="706" 
d="M757 1339q0 -15 -50 -34q-57 -22 -76 -53q-11 -18 -28 -100l-197 -936q-10 -48 -10 -67q0 -54 37 -80q19 -12 69 -25q37 -10 37 -25q0 -24 -37 -24q-32 0 -95 6t-94 6q-71 0 -150 -9q-27 -3 -40 -3q-34 0 -34 15q0 12 34 31q43 25 46 28q59 52 75 130l197 936
q11 52 11 80q0 52 -35 74q-15 10 -64 22q-35 8 -35 26q0 24 37 24q7 0 46 -5q47 -6 125 -6q33 0 99 5.5t99 5.5t33 -22z" />
    <glyph glyph-name="J" unicode="J" horiz-adv-x="704" 
d="M754 1339q0 -8 -37 -30q-45 -26 -47 -29q-55 -47 -74 -139l-163 -784q-80 -386 -312 -512q-69 -38 -133 -38q-99 0 -99 55q0 50 45 139q15 29 31 29q17 0 37 -68t66 -68q79 0 135 158q22 62 56 228l177 853q13 63 13 79q0 52 -34 76q-16 12 -63 25q-34 9 -34 24
q0 24 40 24q6 0 46 -5q48 -6 124 -6q33 0 98 5.5t97 5.5q31 0 31 -22z" />
    <glyph glyph-name="K" unicode="K" horiz-adv-x="1400" 
d="M1500 1341q0 -20 -31 -30q-129 -41 -327 -197l-389 -309q-43 -34 -43 -51q0 -16 16 -44l240 -412q57 -100 87 -135q52 -60 130 -93q28 -9 85 -27q25 -8 25 -21q0 -27 -47 -27q-23 0 -67.5 5t-66.5 5q-23 0 -68 -5t-68 -5q-29 0 -67 66l-317 550q-23 41 -33 41
q-61 0 -81 -98l-72 -337q-10 -47 -10 -75q0 -52 36 -75q17 -11 67 -23q35 -9 35 -25q0 -24 -39 -24q-32 0 -94.5 6t-93.5 6q-67 0 -154 -9q-29 -3 -34 -3q-32 0 -32 20q0 14 51 33q57 23 77 54q13 23 33 119l192 910q10 48 10 71q0 56 -36 83q-17 13 -66 27q-36 10 -36 26
q0 23 35 23q8 0 50 -5q51 -6 142 -6q31 0 91 5.5t90 5.5q31 0 31 -20q0 -13 -46 -33q-53 -24 -67 -45q-17 -24 -34 -107l-81 -379q-3 -19 -3 -34q0 -20 11 -20q9 0 106 71q263 192 423 337q100 92 100 132q0 33 -40.5 46.5t-40.5 28.5q0 23 33 23q11 0 36 -3q67 -8 138 -8
q32 0 95 5.5t94 5.5q25 0 25 -20z" />
    <glyph glyph-name="L" unicode="L" horiz-adv-x="1043" 
d="M1094 287q0 -30 -32 -96q-49 -103 -104 -147q-65 -54 -168 -54q-80 0 -239 9.5t-238 9.5q-77 0 -136 -8q-45 -6 -58 -6q-30 0 -30 22q0 13 52 32q59 23 79 60q11 22 27 101l195 930q10 48 10 73q0 52 -35 75q-15 11 -64 24q-35 10 -35 27q0 22 33 22q7 0 48 -5
q50 -6 146 -6q31 0 91.5 5.5t90.5 5.5t30 -21q0 -14 -51 -33q-58 -22 -77 -61q-12 -24 -28 -102l-197 -939q-9 -43 -9 -58q0 -63 142 -63q341 0 478 168q45 55 61 55q18 0 18 -20z" />
    <glyph glyph-name="M" unicode="M" horiz-adv-x="1627" 
d="M1731 1338q0 -11 -67 -40q-74 -32 -98 -83q-15 -35 -26 -129l-102 -863q-3 -26 -3 -49q0 -92 67 -117l54 -12q38 -10 38 -26q0 -24 -41 -24q-5 0 -24 2q-77 8 -148 8q-33 0 -99 -5t-99 -5q-34 0 -34 23q0 8 39 30q43 24 50 34t27 79q6 24 17 118l75 632q2 17 2 25
q0 18 -8 18q-12 0 -51 -70l-467 -840q-23 -42 -38 -42q-20 0 -35 52l-246 835q-11 37 -18 37q-9 0 -20 -45l-158 -621q-19 -74 -19 -106q0 -55 37 -79q16 -10 70 -24q37 -10 37 -29q0 -27 -42 -27q-25 0 -75.5 6t-76.5 6t-79 -6t-80 -6q-32 0 -32 16q0 15 36 31q44 20 53 30
q68 71 141 343q82 308 83 313q44 178 60 317q4 35 4 40q0 193 -108 212q-24 1 -49 2q-35 3 -35 20q0 43 131 43q152 0 171 -13q9 -6 35 -63q24 -52 30 -72q77 -301 243 -899q12 -38 18 -38q9 0 36 51l332 611q68 128 214 376q23 35 59 40q-5 -1 73 -1q20 0 59 2t59 2
q28 0 28 -20z" />
    <glyph glyph-name="N" unicode="N" horiz-adv-x="1433" 
d="M1536 1338q0 -8 -49 -31q-55 -26 -71 -48q-21 -31 -38 -104q-11 -56 -23 -112q-37 -145 -102 -464q-61 -303 -104 -464q-9 -38 -18 -77q-16 -55 -40 -55q-18 0 -40 43l-182 346q-207 395 -339 620q-18 31 -22 31q-13 0 -23 -49l-148 -701q-15 -70 -15 -108q0 -61 38 -88
q18 -14 70 -28q38 -10 38 -28q0 -26 -44 -26q-28 0 -84 6t-84 6q-57 0 -132 -9q-25 -3 -30 -3q-22 0 -22 19q0 17 40 34q72 29 103 92q21 45 50 176l142 636q24 106 24 161q0 123 -111 177q-40 20 -40 29q0 19 43 30q32 9 58 9q15 0 74 -7t66 -10q14 -8 23 -24
q96 -166 280 -514q148 -303 254 -473q24 -40 29 -40q13 0 36 99q66 280 108 486q17 78 35 155q19 93 19 157q0 63 -38 93q-20 16 -72 31q-39 11 -39 27q0 23 39 23q27 0 79.5 -5.5t79.5 -5.5q25 0 76 5.5t77 5.5q29 0 29 -23z" />
    <glyph glyph-name="O" unicode="O" horiz-adv-x="1485" 
d="M1454 802q0 -330 -213 -579q-211 -245 -529 -245q-255 0 -397 150q-139 147 -139 403q0 323 215 579q227 269 544 269q234 0 381 -174q138 -164 138 -403zM1282 844q0 315 -214 430q-83 45 -175 45q-138 0 -268 -110t-207 -311q-71 -185 -71 -371q0 -197 91 -332
q104 -154 293 -154q256 0 416 285q135 241 135 518z" />
    <glyph glyph-name="P" unicode="P" horiz-adv-x="1069" 
d="M1145 1076q0 -191 -134.5 -323.5t-325.5 -132.5q-147 0 -147 36q0 15 98 15q149 0 247 119q93 111 93 263q0 110 -72.5 177.5t-183.5 67.5q-66 0 -92 -53q-10 -19 -29 -111l-194 -923q-9 -43 -9 -71q0 -52 42 -74q19 -11 78 -22q41 -8 41 -24q0 -25 -52 -25
q-33 0 -98.5 5t-98.5 5q-30 0 -90.5 -5t-91.5 -5q-32 0 -32 23q0 12 48 31q54 22 69 42t33 107l198 942q12 57 12 79q0 49 -36 70q-13 9 -66 22q-35 10 -35 28q0 22 29 22q31 0 92.5 -7t92.5 -7q54 0 161.5 7.5t160.5 7.5q127 0 209.5 -79.5t82.5 -206.5z" />
    <glyph glyph-name="Q" unicode="Q" horiz-adv-x="1491" 
d="M1453 804q0 -296 -175 -535q-189 -256 -473 -280q-26 -2 -26 -14q0 -20 148 -104q167 -95 271 -95q56 0 104 50.5t49 50.5q11 0 11 -17q0 -54 -68 -123q-94 -97 -198 -97q-133 0 -363 153q-168 120 -336 241q-52 36 -88 36q-59 0 -99 -61q-35 -53 -35 -115
q0 -23 15 -64.5t15 -62.5q0 -24 -31 -24q-34 0 -55 74q-17 56 -17 103q0 193 164 266q-90 143 -90 356q0 313 217 569q228 268 536 268q240 0 386 -170q138 -161 138 -405zM1284 839q0 318 -207 433q-84 47 -182 47q-139 0 -266 -105q-134 -111 -212 -312q-70 -184 -70 -375
q0 -197 89 -332q103 -155 291 -155q297 0 461 389q96 228 96 410z" />
    <glyph glyph-name="R" unicode="R" horiz-adv-x="1155" 
d="M1155 1100q0 -183 -140 -306q-54 -48 -148 -85q-34 -13 -34 -30q0 -42 100 -385q69 -239 168 -239q4 0 13 1.5t13 1.5q12 0 12 -12q0 -26 -67 -45q-54 -15 -91 -15q-151 0 -197 202l-91 392q-13 56 -24 70q-18 20 -69 20q-80 0 -97 -23q-7 -10 -14 -42l-83 -388
q-10 -47 -10 -73q0 -53 38 -76q17 -11 70 -23q38 -9 38 -26q0 -24 -35 -24q-34 0 -100.5 6t-99.5 6q-65 0 -147 -9q-27 -3 -34 -3q-31 0 -31 22q0 10 47 33q52 26 60 34q24 28 42 116l197 936q11 52 11 81q0 51 -35 73q-15 10 -64 22q-35 9 -35 26q0 23 30 23q23 0 70 -7.5
t71 -7.5q54 0 163 8t164 8q339 0 339 -262zM986 1075q0 106 -62 166t-168 60q-75 0 -104.5 -24.5t-44.5 -98.5l-70 -334q-11 -52 -11 -67q0 -13 4 -18q17 -23 128 -23q170 0 247 96q81 103 81 243z" />
    <glyph glyph-name="S" unicode="S" horiz-adv-x="862" 
d="M924 1328q0 6 -10 -82q-2 -18 -2 -195q0 -44 -26 -44q-17 0 -27 39q-27 104 -91 182q-77 94 -172 94q-81 0 -131 -64q-47 -58 -47 -141q0 -119 108 -249q101 -112 201 -224q108 -138 108 -275q0 -173 -141 -286q-131 -106 -308 -106q-183 0 -238 41q-43 31 -43 170
q0 149 39 149q12 0 20 -22q10 -34 36 -99q81 -176 231 -176q107 0 181.5 71.5t74.5 178.5q0 93 -93 204l-192 227q-128 152 -128 307q0 150 95 250.5t244 100.5q68 0 186 -45q36 -14 44 -14q14 0 33.5 15.5t29.5 15.5q18 0 18 -23z" />
    <glyph glyph-name="T" unicode="T" horiz-adv-x="1215" 
d="M1302 1313q0 -74 -18 -213q-5 -45 -26 -45t-34 51q-18 70 -33 94q-32 51 -98 51q-111 0 -139 -5q-89 -12 -100 -63l-197 -944q-13 -61 -13 -93q0 -53 40 -77q18 -11 74 -24q40 -9 40 -25q0 -25 -44 -25q-33 0 -99.5 6t-100.5 6q-64 0 -152 -9q-29 -3 -35 -3q-41 0 -41 22
q0 15 40 28q54 17 77 45q16 21 37 83q16 49 49 209l168 806q5 24 5 32q0 33 -72 33q-218 0 -284 -50q-41 -31 -70 -89q-25 -52 -42 -52q-21 0 -21 30q0 28 42.5 136.5t62.5 121.5q16 11 41 11q21 0 75 -4q148 -11 386 -11q141 0 323 8q14 0 58 4q36 3 58 3q43 0 43 -48z" />
    <glyph glyph-name="U" unicode="U" horiz-adv-x="1481" 
d="M1586 1339q0 -7 -48 -34q-54 -29 -67 -45q-16 -23 -41 -122q-1 -6 -93 -390q-16 -71 -53 -211q-82 -273 -208 -402q-154 -157 -414 -157q-182 0 -289 81q-121 91 -121 267q0 70 27 209l111 580q19 98 19 111q0 56 -52 76.5t-52 31.5q0 27 43 27q27 0 82 -5.5t83 -5.5
t84.5 5.5t84.5 5.5q31 0 31 -22q0 -11 -48 -35q-55 -27 -61 -34q-24 -23 -37 -68q-1 -3 -18 -85q-35 -167 -100 -501q-36 -209 -36 -269q0 -138 80 -213q77 -73 215 -73q190 0 326 129q101 95 183 371q42 142 95 383q46 206 46 254q0 59 -36 86q-18 14 -66 27q-36 10 -36 27
q0 23 34 23q25 0 74.5 -5.5t74.5 -5.5t76 5.5t77 5.5q30 0 30 -22z" />
    <glyph glyph-name="V" unicode="V" horiz-adv-x="1415" 
d="M1516 1340q0 -15 -38 -27q-44 -14 -86 -58q-34 -36 -143 -232q-293 -525 -539 -893q-104 -156 -124 -156q-19 0 -29 57l-187 1121q-18 104 -56 134q-22 12 -43 23q-32 17 -32 30q0 22 33 22q28 0 83.5 -5.5t83.5 -5.5q34 0 101.5 5.5t101.5 5.5t34 -25q0 -16 -35 -25
q-47 -12 -65 -25q-35 -27 -35 -87q0 -59 30 -272l36 -266q22 -153 49 -263q10 -42 36 -123q6 -12 8 -12q12 0 69 89q483 750 483 885q0 52 -62.5 67.5t-62.5 34.5q0 22 33 22q26 0 76.5 -5.5t76.5 -5.5q30 0 88.5 5.5t87.5 5.5q27 0 27 -21z" />
    <glyph glyph-name="W" unicode="W" horiz-adv-x="1846" 
d="M1978 1338q0 -14 -34 -28q-80 -32 -165 -158q-4 -6 -134 -244q-294 -539 -479 -824q-72 -110 -89 -110q-13 0 -39 121q-20 93 -56 341q-9 46 -22 139q-4 37 -8 37q-6 0 -28 -41q-28 -48 -83 -146q-80 -147 -99 -180q-58 -100 -110 -172q-68 -94 -88 -94q-17 0 -25 58
l-158 1135q-5 36 -10 53q-8 33 -22 48q-6 6 -52 30q-40 21 -40 33q0 25 39 25q29 0 86.5 -5.5t86.5 -5.5q32 0 96 5.5t96 5.5q23 0 23 -20q0 -15 -36 -26q-56 -17 -78 -45.5t-22 -87.5q0 -67 22 -225l88 -632q8 -59 18 -59t56 78q226 376 226 385q0 12 -16 127
q-11 84 -34 252q-23 151 -82 185q-19 8 -37 17q-24 12 -24 26q0 25 35 25q27 0 81.5 -5.5t82.5 -5.5q33 0 99.5 5.5t99.5 5.5q24 0 24 -21q0 -15 -33 -26q-44 -14 -60 -28q-33 -27 -33 -84q0 -39 14 -156q41 -342 98 -662q22 -118 31 -118q8 0 50 64q154 238 369 635
q121 223 121 270q0 57 -65 70.5t-65 29.5q0 26 32 26q26 0 78.5 -5.5t78.5 -5.5q28 0 84.5 5.5t84.5 5.5q26 0 26 -23z" />
    <glyph glyph-name="X" unicode="X" horiz-adv-x="1381" 
d="M1432 1339q0 -12 -33 -24q-72 -25 -140 -92q-50 -49 -220 -248q-185 -216 -185 -236q0 -16 27 -108q26 -108 52 -215q41 -153 91 -234q69 -110 168 -110q30 0 69 21.5t43 21.5q17 0 17 -20q0 -48 -97 -80q-76 -25 -139 -25q-96 0 -141 38q-82 68 -203 524q-3 16 -17 42
q-44 -46 -105 -128q-85 -113 -101 -132q-127 -155 -127 -213q0 -50 66.5 -70t66.5 -32q0 -24 -34 -24q-33 0 -97.5 6t-96.5 6q-67 0 -156 -9q-30 -3 -37 -3q-26 0 -26 21q0 8 39 30l48 26q53 32 186 177q36 39 191 226q162 196 162 203q0 44 -114 354q-37 102 -58 137
q-48 79 -114 79t-107 -58q-36 -51 -36 -120q0 -67 29 -85t29 -32q0 -33 -33 -33q-40 0 -63 61q-17 47 -17 96q0 116 69 200q74 90 188 90q115 0 189 -100q53 -72 97 -221q33 -111 65 -223q8 6 52 59l186 227q77 94 77 141q0 40 -52.5 56t-52.5 34q0 21 29 21q28 0 83.5 -5.5
t83.5 -5.5q29 0 86 5.5t86 5.5q27 0 27 -22z" />
    <glyph glyph-name="Y" unicode="Y" horiz-adv-x="1268" 
d="M1359 1341q0 -17 -34 -30q-51 -19 -86 -53q-15 -15 -111 -144q-210 -286 -311 -432q-23 -28 -58 -90q-11 -27 -22 -79l-62 -295q-8 -43 -8 -69q0 -56 38 -81q19 -11 72 -22q39 -9 39 -25q0 -26 -36 -26q-33 0 -99.5 6t-99.5 6q-66 0 -152 -9q-28 -3 -34 -3q-32 0 -32 21
q0 14 50 35q57 24 72 46t31 94l67 323q8 38 8 48q0 19 -28 99l-180 512q-28 81 -60 113q-8 8 -53 27q-38 15 -38 26q0 22 34 22q8 0 32 -3q64 -8 142 -8q35 0 105 5.5t105 5.5q28 0 28 -23q0 -16 -60.5 -31.5t-60.5 -72.5q0 -40 18 -96l130 -403q16 -50 26 -50q3 0 112 144
q72 92 202 286q57 98 57 131q0 47 -62.5 59.5t-62.5 27.5q0 28 35 28q27 0 81 -5.5t81 -5.5t81 5.5t81 5.5q23 0 23 -20z" />
    <glyph glyph-name="Z" unicode="Z" horiz-adv-x="1091" 
d="M1169 1330q0 -22 -271 -372q-188 -241 -553 -730q-33 -45 -33 -51q0 -23 89 -23q20 0 59 1.5t59 1.5q50 0 151 -2t151 -2q49 0 93 15q61 20 61 58q0 20 -36.5 36t-36.5 51q0 32 22.5 54t53.5 22q71 0 71 -91q0 -78 -59 -155q-52 -68 -126.5 -110.5t-188.5 -42.5
q-57 0 -170.5 10.5t-170.5 10.5q-36 0 -106 -8t-105 -8q-33 0 -33 21q0 12 35 53q38 49 115 148q117 141 347 428q55 70 198 274q165 233 165 252q0 43 -193 43q-73 0 -107 -5q-125 -18 -222 -67q-132 -68 -132 -168q0 -38 23 -64t23 -35q0 -21 -35 -21q-64 0 -64 114
q0 123 78 231.5t194 146.5q57 18 133 18q63 0 187.5 -13t187.5 -13q21 0 61.5 6t60.5 6q24 0 24 -20z" />
    <glyph glyph-name="bracketleft" unicode="[" horiz-adv-x="682" 
d="M731 1373q0 -52 -61 -52h-119q-53 0 -65 -57l-283 -1353q-3 -15 -3 -25q0 -32 49 -32q15 0 45.5 2.5t45.5 2.5q66 0 66 -39q0 -51 -58 -51q-46 0 -136 4.5t-136 4.5q-38 0 -38 30q0 11 3 25l317 1516q7 34 23 43q10 6 49 8q261 10 258 10q43 0 43 -37z" />
    <glyph glyph-name="backslash" unicode="\" horiz-adv-x="593" 
d="M555 -194q0 -32 -49 -32q-29 0 -36 29l-359 1529q-9 38 -9 47q0 30 61 30q18 0 23 -23l353 -1511q16 -68 16 -69z" />
    <glyph glyph-name="bracketright" unicode="]" horiz-adv-x="542" 
d="M580 1370q0 -11 -3 -25l-317 -1516q-7 -34 -23 -43q-10 -6 -49 -8q-261 -9 -258 -9q-43 0 -43 36q0 52 61 52h119q53 0 65 58l283 1352q3 15 3 25q0 32 -49 32q-15 0 -45.5 -2.5t-45.5 -2.5q-66 0 -66 39q0 52 58 52q46 0 136 -5t136 -5q38 0 38 -30z" />
    <glyph glyph-name="asciicircum" unicode="^" horiz-adv-x="1019" 
d="M1092 659h-111l-318 575l-439 -575h-160l590 773h13z" />
    <glyph glyph-name="underscore" unicode="_" horiz-adv-x="1307" 
d="M959 -176l-8 -79h-940l8 79h940z" />
    <glyph glyph-name="grave" unicode="`" horiz-adv-x="680" 
d="M540 1199v-23q-3 -53 -31 -53q-29 0 -51 64l-88 260q-11 33 -11 46q0 35 22 60.5t57 25.5q78 0 84 -95z" />
    <glyph glyph-name="a" unicode="a" horiz-adv-x="1191" 
d="M1184 267q0 -77 -119 -182t-197 -105q-71 0 -91 103q-7 39 -7 159l-2 2q-8 -4 -26 -25q-87 -100 -199 -168q-130 -79 -244 -79q-102 0 -160 61.5t-58 163.5q0 245 215 497q223 261 463 261q38 0 108 -23t105 -23q39 0 93 66t70 66q18 0 18 -20q0 -9 -42 -143
q-50 -156 -52 -163q-100 -350 -100 -487q0 -86 42 -86q41 0 97 72.5t68 72.5q18 0 18 -20zM905 793q0 48 -52 77q-44 24 -96 24q-174 0 -333 -235q-147 -217 -147 -400q0 -153 150 -153q91 0 197 82q98 75 143 164q13 25 26 63q67 192 101 319q11 41 11 59z" />
    <glyph glyph-name="b" unicode="b" horiz-adv-x="1100" 
d="M1147 692q0 -247 -220 -482q-224 -238 -470 -238q-113 0 -189 45q-91 55 -91 161q0 50 22 147l240 1060q15 66 15 89q0 44 -88 44h-15q-65 0 -65 25q0 18 29 25q21 3 43 6q10 3 31 9q59 3 175 14q72 10 71 10q23 0 23 -23q0 -10 -9 -50l-165 -730q-8 -25 -17 -77l2 -1
q156 133 194 159q119 79 233 79q115 0 185 -79q66 -76 66 -193zM956 629q0 203 -181 203q-249 0 -367 -382q-56 -181 -56 -274q0 -137 143 -137q176 0 324 211q137 195 137 379z" />
    <glyph glyph-name="c" unicode="c" horiz-adv-x="968" 
d="M978 807q0 -39 -42.5 -73t-81.5 -34q-21 0 -50 48q-41 69 -60 89q-44 48 -104 48q-158 0 -258 -188q-84 -157 -84 -331q0 -125 62 -196q66 -76 189 -76q88 0 205.5 65.5t110.5 65.5q15 0 15 -17q0 -37 -93 -109q-165 -127 -363 -127q-147 0 -232 86.5t-85 234.5
q0 245 183 453q189 215 431 215q87 0 162 -34q95 -44 95 -120z" />
    <glyph glyph-name="d" unicode="d" horiz-adv-x="1176" 
d="M1211 1586q0 -31 -15 -80q-22 -68 -24 -79l-231 -1063q-21 -97 -21 -148q0 -90 58 -90q48 0 113 67t75 67q17 0 17 -20t-51 -84q-139 -175 -268 -175q-85 0 -113 86q-13 42 -17 156q-181 -251 -391 -251q-120 0 -187 78q-63 74 -63 196q0 233 187 464q196 243 424 243
q58 0 135 -32q14 -6 42 -17q6 17 28 117l84 383q10 46 10 56q0 48 -81.5 55.5t-81.5 28.5q0 22 48 27q85 6 254 29q37 7 48 7q21 0 21 -21zM851 790q0 54 -49 83q-41 24 -99 24q-168 0 -309 -224q-126 -201 -126 -381q0 -81 41 -135q46 -59 124 -59q229 0 344 358
q74 230 74 334z" />
    <glyph glyph-name="e" unicode="e" horiz-adv-x="971" 
d="M939 797q0 -111 -143 -210q-158 -110 -381 -145q-44 -6 -97 -19q-37 -30 -37 -94q0 -101 86 -171q81 -66 184 -66q114 0 303 121q18 0 18 -18q0 -52 -136 -131q-157 -92 -307 -92q-148 0 -238 80q-93 83 -93 229q0 172 105 340q98 157 251 255q133 85 264 85
q87 0 148 -38q73 -44 73 -126zM769 803q0 91 -107 91q-97 0 -229 -130.5t-132 -226.5q0 -27 51 -27q91 0 219 63q198 98 198 230z" />
    <glyph glyph-name="f" unicode="f" horiz-adv-x="807" 
d="M1036 1535q0 -40 -15 -97q-19 -74 -45 -74q-16 0 -50 57t-90 57q-76 0 -133 -124q-63 -136 -116 -352q-10 -40 -10 -52q0 -9 56 -9h154q38 0 38 -24q0 -64 -68 -64h-182q-17 0 -43 -119l-152 -696q-38 -175 -101 -265q-78 -113 -229 -162q-46 -15 -89 -15q-83 0 -83 44
q0 32 32 100q34 75 60 75q14 0 29 -62t59 -62q55 0 88 99q6 17 34 146l181 831q17 78 17 83q-2 4 -9 5q-19 3 -138 3q-55 0 -55 28q0 46 95 50q110 5 116 10q33 78 80 185q212 452 475 452q94 0 94 -48z" />
    <glyph glyph-name="g" unicode="g" horiz-adv-x="1034" 
d="M1108 947q0 -46 -35 -84.5t-81 -38.5q-16 0 -44.5 10.5t-44.5 10.5q-24 0 -24 -34q0 -23 15.5 -65t15.5 -65q0 -156 -120 -273.5t-277 -117.5q-25 0 -72 11t-72 11q-26 0 -43 -22t-17 -48q0 -69 153 -113q277 -78 283 -81q153 -65 153 -187q0 -148 -162 -219
q-121 -54 -291 -54q-166 0 -286 44q-170 63 -170 199q0 80 55 144t135 80q49 10 49 16q0 14 -16.5 47.5t-16.5 52.5q0 70 53.5 121t53.5 47q0 -11 -46 72t-46 150q0 158 118 279t276 121q44 0 127.5 -21t127.5 -21q61 0 126 44.5t79 44.5q44 0 44 -61zM752 711q0 81 -35 135
q-40 63 -117 63q-29 0 -66 -17q-80 -37 -124 -151q-36 -94 -36 -199q0 -195 146 -195q114 0 179 131q53 106 53 233zM727 -204q0 62 -122 113l-176 58q-4 2 -85 39q-57 27 -84 27q-64 0 -105 -59q-36 -53 -36 -120q0 -108 114 -164q89 -44 210 -44q102 0 177 28
q107 39 107 122z" />
    <glyph glyph-name="h" unicode="h" horiz-adv-x="1194" 
d="M1214 251q0 -22 -70 -107q-138 -167 -265 -167q-113 0 -113 173q0 107 65 452q14 74 14 111q0 114 -96 114q-59 0 -129 -39q-156 -86 -205 -304l-96 -425q-6 -27 -10 -37q-8 -22 -22 -30.5t-72 -8.5q-79 0 -79 28q0 13 8 48l305 1343q10 44 10 69q0 45 -89.5 47t-89.5 25
q0 22 50 28q55 4 166 16q141 20 146 20q21 0 21 -23q0 -11 -6 -38l-158 -698q-10 -28 -20 -87l2 -1q2 0 38 33q185 167 336 167q88 0 137 -57q45 -53 45 -143q0 -93 -45 -272t-45 -271q0 -84 50 -84q55 0 122 69t75 69q20 0 20 -20z" />
    <glyph glyph-name="i" unicode="i" horiz-adv-x="614" 
d="M658 1287q0 -14 -62.5 -73.5t-77.5 -59.5t-53 58.5t-38 76.5q0 16 61.5 79t77.5 63q12 0 52 -64t40 -80zM596 251q0 -74 -116 -174t-192 -100q-93 0 -93 149q0 71 53 279l85 333q16 63 16 85q0 45 -89.5 47t-89.5 26q0 13 14 20t54 9q83 5 247 24q36 6 55 6q25 0 25 -22
q0 -12 -15 -62q-51 -171 -103 -342q-66 -236 -66 -335q0 -56 38 -56q39 0 93.5 66t66.5 66q17 0 17 -19z" />
    <glyph glyph-name="j" unicode="j" horiz-adv-x="629" 
d="M674 1287q0 -13 -63 -73t-76 -60q-16 0 -53.5 58t-37.5 77q0 16 61.5 79t77.5 63q13 0 52 -63.5t39 -80.5zM591 933q0 -2 -9 -42l-198 -887q-65 -290 -293 -388q-63 -27 -121 -27q-83 0 -83 72q0 39 11 76q16 52 46 52q24 0 54 -57.5t63 -57.5q77 0 131 261l3 13l178 813
q11 50 11 62q0 44 -82 47t-82 26q0 24 52 28q81 5 242 25q34 6 52 6q25 0 25 -22z" />
    <glyph glyph-name="k" unicode="k" horiz-adv-x="1094" 
d="M1114 271q0 -79 -97 -186.5t-175 -107.5q-49 0 -98 67q-66 90 -170 353q-23 58 -63 58q-14 0 -43 -15q-70 -37 -86 -107l-66 -286q-15 -64 -98 -64q-81 0 -81 31q0 20 3 33l307 1353q11 48 11 69q0 47 -84.5 48.5t-84.5 22.5q0 23 45 30q82 8 245 30q38 7 53 7
q28 0 28 -27q0 -10 -11 -59l-221 -984q-6 -27 -6 -39q0 -19 18 -19q12 0 48 21q287 166 354 342q2 5 2 11q0 7 -8.5 18.5t-8.5 18.5q0 27 80 47q64 17 104 17q56 0 56 -48q0 -50 -192 -201t-192 -162q0 -10 49 -86q66 -102 119 -236q32 -80 69 -80q48 0 105 75t69 75
q20 0 20 -20z" />
    <glyph glyph-name="l" unicode="l" horiz-adv-x="629" 
d="M662 1580q0 -9 -11 -59l-280 -1265q-13 -59 -13 -88q0 -49 43 -49q58 0 134 84t83 84q22 0 22 -20q0 -23 -44 -83q-151 -207 -296 -207q-118 0 -118 159q0 61 20 151l247 1113q11 50 11 69q0 47 -84.5 48.5t-84.5 22.5q0 23 45 30q82 8 245 30q38 7 53 7q28 0 28 -27z
" />
    <glyph glyph-name="m" unicode="m" horiz-adv-x="1773" 
d="M1761 231q0 -72 -123 -165q-118 -89 -193 -89q-100 0 -100 132q0 38 20 152l62 353q10 57 10 96q0 131 -106 131q-87 0 -174 -113q-83 -107 -120 -279l-87 -399q-3 -16 -14 -44q-16 -23 -93 -23q-73 0 -73 33q0 7 7 39l110 509q18 83 18 131q0 147 -131 147
q-80 0 -155 -83q-102 -113 -141 -292l-89 -412q-3 -13 -11 -37q-17 -35 -90 -35q-80 0 -80 33q0 6 7 39l120 559q13 61 13 104q0 77 -44 77t-89.5 -68.5t-54.5 -68.5q-21 0 -21 23q0 75 87.5 175t161.5 100q100 0 100 -147q0 -16 -2 -48.5t-2 -48.5q211 243 413 243
q77 0 119 -53q39 -49 39 -128q0 13 -3 -56q103 111 172 160q109 77 218 77q86 0 134 -61q44 -55 44 -144q0 -40 -18 -141l-63 -353q-13 -73 -13 -83q0 -44 40 -44q49 0 105.5 61t66.5 61q23 0 23 -20z" />
    <glyph glyph-name="n" unicode="n" horiz-adv-x="1229" 
d="M1222 230q0 -32 -62 -100q-140 -153 -256 -153q-99 0 -99 127q0 43 22 161l64 343q9 48 9 93q0 141 -113 141q-223 0 -322 -444l-78 -349q-2 -13 -10 -36q-17 -30 -92 -30q-78 0 -78 34q0 8 6 36l82 378q17 71 35 142q19 84 19 145q0 76 -47 76q-43 0 -89 -69t-57 -69
q-22 0 -22 23q0 75 91.5 175.5t165.5 100.5q100 0 100 -169q0 -33 -4 -71q200 240 410 240q87 0 136 -67q44 -59 44 -149q0 -56 -25 -192l-56 -304q-8 -43 -8 -69q0 -48 33 -48q52 0 109.5 62.5t70.5 62.5q21 0 21 -21z" />
    <glyph glyph-name="o" unicode="o" horiz-adv-x="1115" 
d="M1041 615q0 -243 -165 -438q-173 -205 -412 -205q-153 0 -251.5 102t-98.5 256q0 242 169 433q175 198 414 198q152 0 248 -97t96 -249zM850 661q0 237 -172 237q-175 0 -282 -225q-88 -183 -88 -380q0 -252 179 -252q171 0 277 235q86 189 86 385z" />
    <glyph glyph-name="p" unicode="p" horiz-adv-x="1120" 
d="M1155 659q0 -255 -207 -461.5t-462 -206.5q-17 0 -51 1.5t-51 1.5q-29 0 -42 -62q-13 -51 -25 -101q-15 -61 -15 -103q0 -59 90 -74.5t90 -37.5q0 -31 -50 -31q-35 0 -105.5 6t-105.5 6q-32 0 -94.5 -5t-94.5 -5q-49 0 -49 23q0 26 48 40q58 17 77 47q13 21 31 104
l204 947q15 70 15 67q0 7 -8 7q-25 0 -71 -18.5t-71 -18.5q-18 0 -18 15q0 35 81 61q99 32 111 44q4 4 28 127t50 151q21 67 152 67q25 0 25 -22q0 -6 -15 -46q-9 -24 -35 -117q-28 -98 -28 -111q0 -17 14 -17q5 0 30 4q81 13 173 13q159 0 260 -66q119 -79 119 -229z
M950 618q0 259 -307 259q-96 0 -106 -46l-141 -653q-11 -51 -11 -71q0 -57 106 -57q92 0 201 79q117 85 187 214q71 133 71 275z" />
    <glyph glyph-name="q" unicode="q" horiz-adv-x="1150" 
d="M1176 1083q0 -10 -20 -66q-13 -35 -49 -187q-163 -679 -234 -1028q-13 -64 -13 -85q0 -57 80 -69.5t80 -34.5q0 -28 -44 -28q-37 0 -111 5.5t-111 5.5q-38 0 -115 -5.5t-115 -5.5q-29 0 -29 25q0 15 71 43q80 32 90 43q22 23 38 93l82 362q9 33 18 99
q-236 -268 -466 -268q-111 0 -176.5 66.5t-65.5 176.5q0 247 225 490q230 247 474 247q74 0 158 -33q28 -11 41 -11q32 0 87.5 92.5t81.5 92.5q23 0 23 -20zM912 774q0 58 -50 93q-45 32 -105 32q-177 0 -330 -222q-141 -205 -141 -390q0 -189 163 -189q83 0 174 66
q197 143 275 510q14 66 14 100z" />
    <glyph glyph-name="r" unicode="r" horiz-adv-x="898" 
d="M895 901q0 -57 -51 -155q-23 -44 -50 -44q-17 0 -42.5 56.5t-72.5 56.5q-100 0 -178 -309q-33 -153 -103 -457q-3 -16 -15 -44q-17 -22 -89 -22q-74 0 -74 44q0 6 12 62l96 445q17 79 17 135q0 113 -68 113q-55 0 -100.5 -83t-55.5 -83q-24 0 -24 31q0 85 64 170
q59 77 141 118q36 18 55 18q76 0 97 -93l24 -150q176 245 327 245q90 0 90 -54z" />
    <glyph glyph-name="s" unicode="s" horiz-adv-x="818" 
d="M780 844q0 -38 -25 -64t-63 -26q-42 0 -87 72.5t-109 72.5q-49 0 -81.5 -34.5t-32.5 -83.5q0 -64 84 -148q77 -75 155 -151q84 -95 84 -185q0 -146 -127 -240q-116 -85 -267 -85q-91 0 -170 33q-104 43 -104 120q0 98 92 98q52 0 99.5 -93.5t118.5 -93.5q72 0 126.5 44.5
t54.5 114.5q0 80 -80 162l-150 142q-80 88 -80 182q0 137 110 213q96 67 239 67q213 0 213 -117z" />
    <glyph glyph-name="t" unicode="t" horiz-adv-x="819" 
d="M808 918q0 -62 -65 -62q-24 0 -72.5 2t-72.5 2q-48 0 -62 -9q-17 -11 -27 -56l-104 -481q-13 -60 -13 -93q0 -99 82 -99q65 0 144 63t89 63q20 0 20 -19q0 -49 -101 -131q-148 -121 -271 -121q-71 0 -112 56q-36 51 -36 124q0 51 23 157l100 462q12 55 12 58q0 24 -50 24
q-7 0 -22 -1t-22 -1q-42 0 -42 21q0 22 54 48q149 71 262 206q31 37 49 37q24 0 24 -21q0 -32 -26 -92.5t-26 -93.5q0 -24 50 -24q29 0 87.5 1.5t87.5 1.5q40 0 40 -22z" />
    <glyph glyph-name="u" unicode="u" horiz-adv-x="1234" 
d="M1227 262q0 -67 -99 -158q-138 -127 -268 -127q-83 0 -83 105t63 315q3 9 6 27q-6 -4 -70 -84q-87 -109 -221 -219q-170 -139 -265 -139q-99 0 -99 130q0 99 47 261q41 130 82 259q29 99 29 132q0 36 -27 36q-41 0 -99.5 -76.5t-73.5 -76.5q-20 0 -20 20q0 56 76 152
q111 141 234 141q98 0 98 -131q0 -56 -23 -139l-101 -365q-33 -119 -33 -161q0 -39 39 -39q64 0 195 132q172 174 271 382q46 97 91 242q6 19 25 51q20 18 86 18t66 -39q0 -9 -9 -43q-51 -178 -103 -355q-69 -249 -69 -343q0 -41 36 -41q56 0 122 77.5t77 77.5q20 0 20 -22z
" />
    <glyph glyph-name="v" unicode="v" horiz-adv-x="1109" 
d="M1075 858q0 -140 -80 -332q-121 -290 -356 -463q-125 -92 -207 -92q-71 0 -106 83q-27 63 -27 145q0 17 3 52t3 52q0 18 -27 26q-49 14 -57 17q-28 11 -50 32q-52 50 -52 149q0 155 116.5 291.5t222.5 136.5q109 0 109 -144q0 -93 -48 -273t-48 -273q0 -149 89 -149
q63 0 144 72q91 81 160 219q72 144 72 259q0 33 -15.5 96.5t-15.5 96.5q0 40 32 65.5t73 25.5q65 0 65 -92zM376 735q0 42 -31 42q-22 0 -57 -35q-108 -108 -108 -226q0 -44 24 -81q27 -41 69 -41q28 0 43 39q11 29 35.5 151t24.5 151z" />
    <glyph glyph-name="w" unicode="w" horiz-adv-x="1658" 
d="M1626 865q0 -129 -99 -352q-164 -369 -421 -507q-61 -33 -102 -33q-71 0 -107 96q-25 69 -25 156q0 25 3.5 76t3.5 76l-146 -200q-87 -111 -184 -166q-68 -39 -119 -39q-71 0 -106 84q-26 61 -26 145q0 21 2.5 61t2.5 61q-50 18 -101 36q-86 44 -86 164q0 187 158 340
q96 93 178 93q103 0 103 -166q0 -89 -43.5 -259.5t-43.5 -259.5q0 -152 73 -152q36 0 80 34q144 112 232 340q14 36 121 401q3 12 16 33q22 22 79 22q71 0 71 -29q0 -21 -24 -117q-85 -338 -85 -497q0 -190 85 -190q69 0 168 109q82 90 140 213q65 136 65 243q0 51 -15 104
q-18 64 -18 73q0 39 41 67q36 26 77 26q52 0 52 -86zM373 731q0 45 -30 45q-18 0 -42 -20q-48 -39 -79.5 -109.5t-31.5 -134.5q0 -41 22 -74q25 -37 64 -37q13 0 24 9q26 21 51 151q22 114 22 170z" />
    <glyph glyph-name="x" unicode="x" horiz-adv-x="1102" 
d="M1082 880q0 -37 -24.5 -63.5t-61.5 -26.5q-17 0 -48.5 10t-48.5 10q-108 0 -235 -241q-7 -13 -7 -20q0 -52 58.5 -217t91.5 -208q49 -63 117 -63q10 0 30 3.5t30 3.5q25 0 25 -22q0 -31 -87 -50q-65 -15 -114 -15q-143 0 -221 137q-27 46 -45 122l-30 128
q-153 -222 -175 -248q-127 -148 -246 -148q-91 0 -91 71q0 42 28 69.5t70 27.5q16 0 47 -9t47 -9q58 0 176 152q122 158 122 182q0 30 -59 196q-46 129 -99 129q-58 0 -87.5 -73.5t-48.5 -73.5q-22 0 -22 29q0 119 105 221q73 71 129 71q75 0 137 -106q49 -81 67 -174
q2 -16 17 -43q79 101 158 201q108 122 207 122q88 0 88 -75z" />
    <glyph glyph-name="y" unicode="y" horiz-adv-x="969" 
d="M946 844q0 -83 -71 -251q-57 -123 -113 -247q-136 -307 -242 -466q-196 -292 -390 -292q-50 0 -89 27q-45 30 -45 78q0 40 23.5 69t62.5 29q31 0 82.5 -31.5t82.5 -31.5q84 0 183 123q97 118 97 204q0 122 -100 400q-111 309 -201 309q-54 0 -89.5 -77.5t-47.5 -77.5
q-21 0 -21 36q0 99 60 196q68 109 161 109q115 0 234 -250q88 -187 122 -357q14 -73 26 -73q20 0 72 147q72 204 72 285q0 31 -21 84t-21 80q0 36 26.5 62.5t62.5 26.5q84 0 84 -111z" />
    <glyph glyph-name="z" unicode="z" horiz-adv-x="1129" 
d="M1023 914q0 -33 -62 -97q-125 -126 -375 -379q-70 -69 -205 -212l-6 -7q0 -6 26 -18q79 -37 131 -103q47 -59 100 -173q50 -106 95 -106q39 0 70.5 62.5t67.5 62.5q50 0 50 -50q0 -63 -83 -106q-69 -36 -139 -36q-94 0 -188 82q-19 17 -141 151q-74 82 -120 82
q-31 0 -69.5 -44.5t-63.5 -44.5q-34 0 -34 27q0 22 112 128q11 11 200 202q108 106 316 325q-40 5 -107 17q-33 8 -121 65q-81 51 -115 51q-36 0 -61 -28.5t-25 -65.5q0 -23 20.5 -54t20.5 -43q0 -22 -27 -22q-35 0 -61 56q-22 48 -22 88q0 92 63 161.5t154 69.5
q67 0 202 -74t205 -74q45 0 80.5 72.5t70.5 72.5q41 0 41 -38z" />
    <glyph glyph-name="braceleft" unicode="{" horiz-adv-x="734" 
d="M798 1386q0 -18 -66 -36q-80 -22 -85 -25q-45 -28 -74 -79q-21 -37 -41 -125l-57 -251q-14 -60 -33 -97q-43 -81 -141 -143q-28 -18 -28 -24q0 4 48.5 -50.5t48.5 -125.5q0 -36 -11 -85l-64 -287q-15 -67 -15 -109q0 -65 43 -96q25 -18 81 -30q43 -10 43 -23
q0 -27 -78 -27q-231 0 -231 177q0 41 14 104l63 287q16 72 16 98q0 55 -41 112t-41 54q0 10 27 28q70 47 102 94q35 52 56 146l56 251q62 282 340 282q68 0 68 -20z" />
    <glyph glyph-name="bar" unicode="|" horiz-adv-x="382" 
d="M395 1405l-171 -1631h-101l171 1631h101z" />
    <glyph glyph-name="braceright" unicode="}" horiz-adv-x="734" 
d="M703 1228q0 -41 -14 -104l-63 -287q-16 -72 -16 -98q0 -55 41 -112t41 -54q0 -9 -28 -28q-68 -46 -101 -94q-37 -55 -57 -146l-55 -251q-62 -282 -340 -282q-68 0 -68 21q0 18 66 35q80 22 85 25q44 27 74 80q22 38 41 124l56 251q13 57 34 97q43 81 141 143q28 18 28 24
q0 -4 -48.5 50.5t-48.5 125.5q0 36 11 85l64 287q15 67 15 109q0 65 -43 97q-25 17 -81 30q-43 10 -43 23q0 26 77 26q232 0 232 -177z" />
    <glyph glyph-name="asciitilde" unicode="~" horiz-adv-x="1014" 
d="M1086 620q-136 -210 -299 -210q-62 0 -175 44.5t-175 44.5q-85 0 -193 -124l-35 27q147 210 301 210q59 0 167 -42.5t167 -42.5q106 0 205 118z" />
    <glyph glyph-name="delete_Cc" horiz-adv-x="1525" 
d="M1339 -267h-1070v1698h1070v-1698zM1257 -185v1534h-906v-1534h906zM1124 933h-641v97h554v249h87v-346zM1124 474h-641v346h87v-251h164v233h87v-233h216v251h87v-346zM1124 -55h-641v174q0 66 12 108q28 92 120 141q80 43 189 43q110 0 194 -48q97 -56 118 -157
q8 -39 8 -92v-169zM1041 42v56q0 51 -6 77q-35 135 -232 135q-201 0 -233 -141q-5 -24 -5 -71v-56h476zM500 1896zM500 -700z" />
    <glyph glyph-name="nonbreakingspace" unicode="&#xa0;" horiz-adv-x="576" 
 />
    <glyph glyph-name="exclamdown" unicode="&#xa1;" horiz-adv-x="498" 
d="M533 893q0 -21 -65.5 -80t-85.5 -59q-17 0 -63 58t-46 73t71 78t87 63q12 0 28 -22q74 -103 74 -111zM371 548q0 -20 -8 -100q-2 -15 -20 -141l-67 -454q-2 -25 -11 -70q-14 -42 -57 -70.5t-88 -28.5q-56 0 -56 42q0 30 109 406q109 373 129 416.5t42 43.5q27 0 27 -44z
" />
    <glyph glyph-name="cent" unicode="&#xa2;" horiz-adv-x="986" 
d="M978 807q0 -39 -42.5 -73t-81.5 -34q-22 0 -61 67q-45 78 -87 101l-171 -774h14q88 0 205.5 65.5t110.5 65.5q15 0 15 -17q0 -37 -93 -109q-129 -100 -278 -121l-45 -206q-12 -55 -43 -55q-35 0 -35 24q0 3 6 31l44 200h-12q-147 -1 -232 86t-85 235q0 225 160 425
q163 205 384 238l45 204q10 49 45 49q31 0 31 -21q0 -16 -8 -53l-38 -174q87 -1 160 -36q92 -43 92 -118zM636 885q-156 -3 -255 -190q-83 -157 -83 -329q0 -214 167 -261z" />
    <glyph glyph-name="sterling" unicode="&#xa3;" horiz-adv-x="1079" 
d="M1156 1211q0 -42 -28 -76q-29 -37 -71 -37q-58 0 -58 62q0 14 3.5 41.5t3.5 41.5q0 86 -99 86q-160 0 -227 -222q-20 -68 -55 -353h258l-20 -95h-258q-43 -228 -152 -426q76 -27 152 -53q90 -28 157 -28q165 0 245 160l34 -9q-45 -132 -130 -221q-102 -106 -226 -106
q-83 0 -160 50q-33 22 -132 110q-114 -160 -220 -160q-94 0 -94 92q0 80 60 136.5t141 56.5q34 0 84 -8q30 105 68 406h-194l20 95h194q8 67 29 199q37 175 159 297q133 134 303 134q126 0 175 -68q38 -53 38 -105zM334 172q-38 28 -79 28q-49 0 -82.5 -31t-33.5 -80
q0 -55 51 -55q80 0 144 138z" />
    <glyph glyph-name="currency" unicode="&#xa4;" horiz-adv-x="1384" 
d="M1177 151l-98 -97l-135 135q-114 -82 -252 -82q-141 0 -255 84l-136 -137l-94 94l136 136q-83 113 -83 255q0 138 82 252l-135 135l98 97l134 -134q113 82 253 82q142 0 255 -83l136 135l93 -93l-136 -136q84 -114 84 -255q0 -140 -82 -253zM999 539q0 127 -90 217
t-217 90t-217 -90t-90 -217t90 -217t217 -90t217 90t90 217z" />
    <glyph glyph-name="yen" unicode="&#xa5;" horiz-adv-x="1258" 
d="M1348 1319q0 -17 -39 -29q-61 -18 -117 -79q-3 -3 -88 -113q-9 -12 -285 -384q-21 -26 -60 -79h235q42 0 42 -25q0 -40 -56 -40h-255q-15 -34 -45 -168h199q39 0 39 -25q0 -39 -53 -39h-199q-37 -166 -37 -190q0 -54 42 -78q20 -12 78 -25q43 -9 43 -25q0 -25 -40 -25
q-32 0 -99.5 5t-102.5 5t-106 -5t-106 -5t-35 19q0 15 53 34q61 21 78 44q20 27 68 246h-208q-36 0 -36 25q0 39 50 39h208q30 139 30 144q0 13 -2 24h-261q-39 0 -39 26q0 39 52 39h227l-182 498q-20 53 -67 136q-10 11 -45 26q-29 11 -29 23q0 20 28 20q14 0 37 -3
q71 -9 142 -9q37 0 110 5.5t110 5.5q30 0 30 -18q0 -20 -65.5 -34.5t-65.5 -73.5q0 -35 17 -88l133 -412q13 -38 22 -38q10 0 44 47l268 372q63 86 63 132t-68 59t-68 30q0 25 33 25q17 0 43 -3q71 -8 139 -8q67 0 127 7q32 4 46 4q23 0 23 -19z" />
    <glyph glyph-name="brokenbar" unicode="&#xa6;" horiz-adv-x="373" 
d="M391 1356l-71 -682h-101l70 682h102zM282 312l-68 -651h-103l69 651h102z" />
    <glyph glyph-name="section" unicode="&#xa7;" horiz-adv-x="1051" 
d="M1091 1220q0 -25 -37 -76.5t-61 -51.5q-12 0 -20 23q-34 103 -63 140q-48 60 -137 60q-81 0 -151 -45q-80 -51 -80 -128t126 -147l234 -126q126 -88 126 -209q0 -99 -91.5 -217t-91.5 -133q0 -14 23 -57.5t23 -69.5q0 -110 -109 -213q-150 -140 -355 -140q-173 0 -286 94
q-59 48 -59 88q0 36 29 92q31 62 63 62q22 0 33 -40q7 -30 27 -89q66 -137 211 -137q188 0 259 142q19 38 19 72q0 49 -42 85q-26 22 -185 104q-128 66 -177 110q-83 76 -83 183q0 71 51 147q24 34 95 112q51 56 51 79q0 15 -25.5 59t-25.5 73q0 104 98 198q119 115 319 115
q196 0 275 -118q17 -26 17 -41zM883 551q0 62 -61 113q-29 24 -115 70q-55 38 -109 77q-72 49 -117 49q-47 0 -71 -65q-18 -47 -18 -104q0 -53 36 -94q33 -38 139 -91q143 -70 155 -78q4 -3 32 -29q21 -21 34 -21q42 0 71 69q24 56 24 104z" />
    <glyph glyph-name="dieresis" unicode="&#xa8;" horiz-adv-x="1094" 
d="M1094 1389q0 -46 -34 -79.5t-80 -33.5q-47 0 -81 33.5t-34 79.5t34.5 80.5t80.5 34.5t80 -34.5t34 -80.5zM601 1389q0 -46 -34 -79.5t-80 -33.5t-80 33.5t-34 79.5t34 80.5t80 34.5t80 -34.5t34 -80.5z" />
    <glyph glyph-name="copyright" unicode="&#xa9;" horiz-adv-x="1628" 
d="M1601 772q0 -320 -241 -559.5t-561 -239.5q-265 0 -442 175t-177 440q0 320 245 557q243 234 564 234q258 0 435 -175t177 -432zM1520 756q0 239 -161 393q-158 151 -397 151q-277 0 -489 -214t-212 -490q0 -236 155.5 -390.5t391.5 -154.5q282 0 497 211.5t215 493.5z
M1277 1024q0 -6 -8 -60q0 -45 -4 -134q-4 -31 -25 -31q-19 0 -29 38q-20 80 -58 121q-80 87 -198 87q-155 0 -253 -141q-87 -125 -87 -286q0 -124 66 -208q72 -91 192 -91q187 0 286 175q22 37 39 37q18 0 18 -21q0 -20 -28 -71q-14 -33 -53 -87q-49 -42 -142 -70
q-85 -26 -157 -26q-158 0 -254 89q-99 92 -99 249q0 207 140 355t346 148q92 0 170 -37q25 -11 73 -37q6 -4 7 -4q5 0 18.5 10.5t23.5 10.5q16 0 16 -16z" />
    <glyph glyph-name="ordfeminine" unicode="&#xaa;" horiz-adv-x="903" 
d="M898 904q0 -56 -92 -128.5t-150 -72.5q-81 0 -79 177q-4 -4 -12 -13q-161 -169 -336 -169q-75 0 -121.5 42t-46.5 116q0 176 169 348t344 172q28 0 80.5 -15.5t79.5 -15.5t67 45t55 45q19 0 19 -19q0 -8 -32 -99q-114 -326 -114 -440q0 -53 27 -53q29 0 70.5 49t53.5 49
q18 0 18 -18zM679 1261q0 31 -40 49q-31 15 -66 15q-124 0 -243 -154q-112 -145 -112 -273q0 -99 107 -99q65 0 143 54q74 50 108 111q39 70 95 259q8 27 8 38z" />
    <glyph glyph-name="guillemotleft" unicode="&#xab;" horiz-adv-x="668" 
d="M715 716q0 -15 -100 -153t-100 -175q0 -62 54 -232q8 -25 8 -36q0 -32 -34 -32q-10 0 -20.5 12t-23.5 38q-33 65 -102 193q-28 49 -28 70q0 36 76 105q38 34 182 182q48 50 64 50q24 0 24 -22zM483 716q0 -14 -107.5 -152t-107.5 -163q0 -40 73 -251q7 -20 7 -30
q0 -32 -34 -32q-18 0 -37 26q-5 7 -21 38q-49 97 -106 183q-30 45 -30 67q0 30 64 86q8 7 203 196q56 54 73 54q23 0 23 -22z" />
    <glyph glyph-name="logicalnot" unicode="&#xac;" horiz-adv-x="1000" 
d="M1012 522q0 -45 -15 -222q-16 -184 -23 -190q-43 -10 -105 -26q-25 5 -25 20q0 -7 20 165l18 177q-241 4 -506 4q-20 0 -60.5 -2t-60.5 -2q-35 0 -35 14q0 7 13.5 59t15.5 53q13 8 37 8q-39 0 300 -6q71 -1 183 0q154 1 183 1q37 0 48.5 -8.5t11.5 -44.5z" />
    <glyph glyph-name="sfthyphen" unicode="&#xad;" horiz-adv-x="734" 
 />
    <glyph glyph-name="registered" unicode="&#xae;" horiz-adv-x="1628" 
d="M1601 772q0 -320 -241 -559.5t-561 -239.5q-265 0 -442 175t-177 440q0 320 245 557q243 234 564 234q258 0 435 -175t177 -432zM1520 756q0 239 -161 393q-158 151 -397 151q-277 0 -489 -214t-212 -490q0 -236 155.5 -390.5t391.5 -154.5q282 0 497 211.5t215 493.5z
M1209 928q0 -113 -94 -188q-33 -26 -102 -51q-17 -6 -17 -12q0 -2 24 -60q3 -8 7 -26q13 -58 47 -143q42 -104 72 -120q12 -6 47 -6q14 0 14 -14q0 -22 -49 -35q-37 -10 -67 -10q-80 0 -122 90q-41 147 -99 307q-10 8 -40 8q1 0 -32 -4q-25 -3 -30 -28l-52 -230
q-7 -31 -7 -40q0 -38 50 -49t50 -24q0 -24 -34 -24q-23 0 -68.5 3.5t-67.5 3.5q-20 0 -59.5 -3.5t-58.5 -3.5q-28 0 -28 16q0 17 32 28q39 12 48 26q8 11 19 58l124 552q6 26 6 45q0 35 -45.5 46.5t-45.5 24.5q0 24 30 24q16 0 49.5 -4.5t50.5 -4.5q35 0 106 4.5t106 4.5
q236 0 236 -161zM1081 911q0 127 -149 127q-47 0 -62 -10q-18 -12 -28 -56l-43 -195q-7 -31 -7 -35q0 -22 76 -22h19q84 0 139 53.5t55 137.5z" />
    <glyph glyph-name="overscore" unicode="&#xaf;" horiz-adv-x="1100" 
d="M1178 1680l-9 -80h-940l9 80h940z" />
    <glyph glyph-name="degree" unicode="&#xb0;" horiz-adv-x="771" 
d="M675 1121q0 -120 -85 -204.5t-205 -84.5t-204.5 84.5t-84.5 204.5t84.5 204.5t204.5 84.5t205 -84.5t85 -204.5zM594 1121q0 88 -60.5 149t-148.5 61q-87 0 -148.5 -61.5t-61.5 -148.5q0 -86 62 -148t148 -62q87 0 148 61.5t61 148.5z" />
    <glyph glyph-name="plusminus" unicode="&#xb1;" horiz-adv-x="1000" 
d="M1071 560q0 -24 -21 -68q-22 -49 -43 -49q-39 0 -117.5 2.5t-117.5 2.5h-73q-10 -159 -33 -333q-45 -10 -105 -26q-25 4 -25 20q0 -13 20 165l18 174q-117 2 -198 2q-20 0 -60.5 -2t-60.5 -2q-35 0 -35 14q0 7 13.5 58.5t15.5 53.5q12 8 37 8q119 0 300 -6l14 180
q12 136 27 152q5 6 39.5 17.5t44.5 11.5q35 0 35 -17q0 -27 -14 -156l-21 -190q47 0 146 2q96 1 145 1q69 0 69 -15zM971 -130q0 -24 -21 -68q-22 -49 -43 -49q-39 0 -117.5 2.5t-117.5 2.5q-66 0 -198 1t-198 1q-20 0 -60.5 -2t-60.5 -2q-35 0 -35 14q0 7 13.5 58.5
t15.5 53.5q12 8 37 8q-25 0 300 -6q81 -1 208 0q178 1 208 1q69 0 69 -15z" />
    <glyph glyph-name="twosuperior" unicode="&#xb2;" horiz-adv-x="819" 
d="M852 1390q0 -95 -106 -231q-69 -88 -198 -210q-106 -101 -106 -108q0 -9 29 -9q62 0 111 6q21 3 91 26q67 23 70 23q21 0 21 -23t-24 -42q-41 -29 -120 -93q-20 -18 -36 -18q-22 0 -65.5 3.5t-65.5 3.5h-65q-17 0 -51 -4t-51 -4q-40 0 -40 34q0 22 57 71q370 316 370 536
q0 94 -67 94q-62 0 -121 -50t-69 -50q-32 0 -32 32q0 18 27 53q98 127 247 127q80 0 134 -43q60 -47 60 -124z" />
    <glyph glyph-name="threesuperior" unicode="&#xb3;" horiz-adv-x="819" 
d="M828 1421q0 -111 -137 -210q121 -32 121 -154q0 -147 -123.5 -260t-271.5 -113q-78 0 -136 35q-47 28 -47 55q0 39 37 39q14 0 63 -21t79 -21q92 0 169 81.5t77 173.5q0 89 -99 89q-10 0 -29 -3.5t-29 -3.5q-31 0 -31 30q0 23 36 42q179 93 179 204q0 67 -75 67
q-50 0 -101.5 -41t-64.5 -41q-31 0 -31 31q0 27 61 80q90 78 192 78q67 0 112 -34q49 -38 49 -103z" />
    <glyph glyph-name="acute" unicode="&#xb4;" horiz-adv-x="668" 
d="M668 1527q0 -21 -8 -39l-144 -322q-19 -43 -48 -43t-29 50q0 15 3 32l55 314q15 87 82 87q89 0 89 -79z" />
    <glyph glyph-name="mu1" unicode="&#xb5;" horiz-adv-x="1120" 
d="M1113 242q0 -76 -91.5 -174t-166.5 -98q-96 0 -96 141v52q-143 -193 -296 -193q-107 0 -188 117l-98 -459q-15 -69 -30 -89q-23 -29 -85 -29q-59 0 -59 54q0 21 11 72l256 1197q15 69 30 89q23 29 85 29q59 0 59 -54q0 -21 -11 -72l-78 -364q-27 -126 -27 -207
q0 -181 131 -181q98 0 197 122q85 106 107 207l92 431q15 69 30 89q23 29 85 29q59 0 59 -54q0 -21 -11 -72l-109 -512q-12 -54 -12 -110q0 -76 47 -76q43 0 89 69t57 69q23 0 23 -23z" />
    <glyph glyph-name="paragraph" unicode="&#xb6;" horiz-adv-x="1179" 
d="M1257 1341q0 -21 -38 -38l-56 -20q-74 -29 -115 -225l-202 -962q-26 -124 -26 -157q0 -63 37 -90q16 -12 68 -25q37 -9 37 -30q0 -35 -49 -35q-9 0 -36 3q-45 5 -148 5q-51 0 -61 5q-18 9 -18 33q0 6 2 16l296 1410q1 5 1 10q0 27 -91 27q-95 0 -104 -41l-296 -1411
q-6 -27 -28 -42q-5 -3 -108 -10q-96 -6 -120 -6q-36 0 -36 29q0 19 53 38q66 22 70 25q47 34 78 179l150 712q1 2 1 5q0 6 -68 6q-39 0 -99 28q-151 70 -151 238q0 140 93.5 243.5t270.5 103.5q27 0 81.5 -5t81.5 -5q5 0 79 3q130 1 391 10q18 1 30 1q30 0 30 -28z" />
    <glyph glyph-name="middot" unicode="&#xb7;" horiz-adv-x="671" 
d="M671 741q0 -40 -29 -68.5t-69 -28.5t-68.5 28.5t-28.5 68.5t28.5 68.5t68.5 28.5t69 -28.5t29 -68.5z" />
    <glyph glyph-name="cedilla" unicode="&#xb8;" horiz-adv-x="387" 
d="M387 -234q0 -65 -53 -111.5t-119 -46.5q-56 0 -94 38q-25 25 -25 39q0 11 13 11q14 0 41.5 -9t42.5 -9q38 0 64.5 23t26.5 61q0 44 -65 83l63 162h38l-47 -126q114 -22 114 -115z" />
    <glyph glyph-name="onesuperior" unicode="&#xb9;" horiz-adv-x="819" 
d="M769 1529q0 -10 -20 -85q-101 -375 -136 -595q-2 -12 -2 -25q0 -35 52.5 -41.5t52.5 -34.5q0 -38 -45 -38q-25 0 -74 3.5t-74 3.5q-22 0 -66 -3.5t-66 -3.5q-36 0 -36 31q0 30 40 39q51 11 59 20q14 15 31 90q38 157 106 473q3 16 3 24q0 11 -15 11q-11 0 -32 -6t-32 -6
q-32 0 -32 31q0 24 36 40q53 18 153 64q63 37 68 37q29 0 29 -29z" />
    <glyph glyph-name="ordmasculine" unicode="&#xba;" horiz-adv-x="801" 
d="M791 1140q0 -174 -132 -308t-306 -134q-112 0 -188 67q-79 70 -79 181q0 174 134 304t308 130q111 0 185 -64q78 -67 78 -176zM638 1171q0 157 -124 157q-126 0 -206 -146q-67 -124 -67 -261q0 -166 129 -166q123 0 202 153q66 127 66 263z" />
    <glyph glyph-name="guillemotright" unicode="&#xbb;" horiz-adv-x="637" 
d="M660 423q0 -29 -64 -85q-13 -12 -202 -197q-53 -53 -71 -53q-23 0 -23 22q0 13 105.5 148t105.5 162q0 23 -73 255q-6 20 -6 29q0 34 34 34q12 0 29 -23q10 -15 58 -102q27 -50 79 -124q28 -41 28 -66zM409 419q0 -27 -60 -83q-84 -78 -183 -190q-15 -17 -47 -47
q-14 -11 -25 -11q-24 0 -24 24q0 12 96.5 147.5t96.5 166.5q0 54 -54 247q-6 22 -6 30q0 35 34 35q17 0 57 -87q2 -4 66 -120q49 -90 49 -112z" />
    <glyph glyph-name="onequarter" unicode="&#xbc;" horiz-adv-x="1963" 
d="M1811 169q0 -33 -43 -101q-18 -28 -45 -34q-7 -1 -58 -1q-6 -18 -56 -241q-7 -31 -34 -45q-38 -19 -78 -19q-36 0 -36 32q0 15 11 47q15 42 17 48q13 60 40 178h-288q-51 0 -51 36q0 43 283 332q104 106 227 219q42 39 68 39q31 0 31 -30q0 -19 -12 -56q-16 -52 -17 -57
q-26 -122 -81 -366q20 0 47.5 24.5t44.5 24.5q30 0 30 -30zM1625 459q-45 -66 -132 -156q-120 -125 -141 -149q51 -2 96 -2h35h36q27 1 35 1q21 103 71 306zM769 1529q0 -10 -20 -85q-101 -375 -136 -595q-2 -12 -2 -25q0 -35 52.5 -41.5t52.5 -34.5q0 -38 -45 -38
q-25 0 -74 3.5t-74 3.5q-22 0 -66 -3.5t-66 -3.5q-36 0 -36 31q0 30 40 39q51 11 59 20q14 15 31 90q38 157 106 473q3 16 3 24q0 11 -15 11q-11 0 -32 -6t-32 -6q-32 0 -32 31q0 24 36 40q53 18 153 64q63 37 68 37q29 0 29 -29zM1806 1529q0 -8 -18 -31l-1415 -1772
q-35 -44 -72 -44q-36 0 -36 16q0 6 12 21l1429 1791q28 35 69 35q31 0 31 -16z" />
    <glyph glyph-name="onehalf" unicode="&#xbd;" horiz-adv-x="1963" 
d="M1786 490q0 -95 -106 -231q-69 -88 -198 -210q-106 -101 -106 -108q0 -9 29 -9q62 0 111 6q21 3 91 26q67 23 70 23q21 0 21 -23t-24 -42q-41 -29 -120 -93q-20 -18 -36 -18q-22 0 -65.5 3.5t-65.5 3.5h-65q-17 0 -51 -4t-51 -4q-40 0 -40 34q0 22 57 71q370 316 370 536
q0 94 -67 94q-62 0 -121 -50t-69 -50q-32 0 -32 32q0 18 27 53q98 127 247 127q80 0 134 -43q60 -47 60 -124zM769 1529q0 -10 -20 -85q-101 -375 -136 -595q-2 -12 -2 -25q0 -35 52.5 -41.5t52.5 -34.5q0 -38 -45 -38q-25 0 -74 3.5t-74 3.5q-22 0 -66 -3.5t-66 -3.5
q-36 0 -36 31q0 30 40 39q51 11 59 20q14 15 31 90q38 157 106 473q3 16 3 24q0 11 -15 11q-11 0 -32 -6t-32 -6q-32 0 -32 31q0 24 36 40q53 18 153 64q63 37 68 37q29 0 29 -29zM1806 1529q0 -8 -18 -31l-1415 -1772q-35 -44 -72 -44q-36 0 -36 16q0 6 12 21l1429 1791
q28 35 69 35q31 0 31 -16z" />
    <glyph glyph-name="threequarters" unicode="&#xbe;" horiz-adv-x="1963" 
d="M1811 169q0 -33 -43 -101q-18 -28 -45 -34q-7 -1 -58 -1q-6 -18 -56 -241q-7 -31 -34 -45q-38 -19 -78 -19q-36 0 -36 32q0 15 11 47q15 42 17 48q13 60 40 178h-288q-51 0 -51 36q0 43 283 332q104 106 227 219q42 39 68 39q31 0 31 -30q0 -19 -12 -56q-16 -52 -17 -57
q-26 -122 -81 -366q20 0 47.5 24.5t44.5 24.5q30 0 30 -30zM1625 459q-45 -66 -132 -156q-120 -125 -141 -149q51 -2 96 -2h35h36q27 1 35 1q21 103 71 306zM828 1421q0 -111 -137 -210q121 -32 121 -154q0 -147 -123.5 -260t-271.5 -113q-78 0 -136 35q-47 28 -47 55
q0 39 37 39q14 0 63 -21t79 -21q92 0 169 81.5t77 173.5q0 89 -99 89q-10 0 -29 -3.5t-29 -3.5q-31 0 -31 30q0 23 36 42q179 93 179 204q0 67 -75 67q-50 0 -101.5 -41t-64.5 -41q-31 0 -31 31q0 27 61 80q90 78 192 78q67 0 112 -34q49 -38 49 -103zM1806 1529
q0 -8 -18 -31l-1415 -1772q-35 -44 -72 -44q-36 0 -36 16q0 6 12 21l1429 1791q28 35 69 35q31 0 31 -16z" />
    <glyph glyph-name="questiondown" unicode="&#xbf;" horiz-adv-x="671" 
d="M704 893q0 -20 -66 -79.5t-86 -59.5q-16 0 -62 58t-46 73t71 78t87 63q12 0 28 -22q74 -103 74 -111zM573 -129q0 -17 -51 -75q-97 -111 -231 -111q-104 0 -181 65q-81 68 -81 170q0 113 106 224l204 178q116 102 130 183q11 65 27 65q32 0 32 -90t-84 -198
q-79 -88 -158 -177q-84 -101 -84 -176q0 -64 53 -109q50 -43 116 -43t124.5 55t61.5 55q16 0 16 -16z" />
    <glyph glyph-name="Agrave" unicode="&#xc0;" horiz-adv-x="1244" 
d="M890 1489q0 -76 -31 -76q-29 0 -51 64l-97 287q-11 33 -11 46q0 35 26 60.5t61 25.5q78 0 84 -95zM1239 22q0 -27 -39 -27q-9 0 -30 3q-64 9 -130 9q-59 0 -141 -9q-27 -3 -35 -3q-32 0 -32 20t35 29q51 12 65 22q36 24 36 82q0 53 -18 131q-16 65 -31 129q-11 48 -18 57
q-12 13 -56 13h-390q-51 0 -75 -43l-125 -226q-32 -58 -32 -95q0 -46 65.5 -64t65.5 -33q0 -22 -34 -22q-28 0 -84 6t-84 6q-25 0 -74 -6t-74 -6q-24 0 -24 16q0 18 57 42q47 19 89 82q3 3 64 108l626 1076q30 53 49 53q20 0 31 -53l211 -1040q14 -75 46 -182q9 -14 49 -43
q37 -25 37 -32zM882 591q0 8 -7 40q-57 260 -86 426q-8 46 -16 46q-7 0 -39 -57q-73 -124 -147 -247q-122 -208 -122 -219q0 -13 25 -13h346q46 0 46 24z" />
    <glyph glyph-name="Aacute" unicode="&#xc1;" horiz-adv-x="1244" 
d="M1078 1817q0 -21 -8 -39l-144 -322q-19 -43 -48 -43t-29 50q0 15 3 32l55 314q15 87 82 87q89 0 89 -79zM1239 22q0 -27 -39 -27q-9 0 -30 3q-64 9 -130 9q-59 0 -141 -9q-27 -3 -35 -3q-32 0 -32 20t35 29q51 12 65 22q36 24 36 82q0 53 -18 131q-16 65 -31 129
q-11 48 -18 57q-12 13 -56 13h-390q-51 0 -75 -43l-125 -226q-32 -58 -32 -95q0 -46 65.5 -64t65.5 -33q0 -22 -34 -22q-28 0 -84 6t-84 6q-25 0 -74 -6t-74 -6q-24 0 -24 16q0 18 57 42q47 19 89 82q3 3 64 108l626 1076q30 53 49 53q20 0 31 -53l211 -1040q14 -75 46 -182
q9 -14 49 -43q37 -25 37 -32zM882 591q0 8 -7 40q-57 260 -86 426q-8 46 -16 46q-7 0 -39 -57q-73 -124 -147 -247q-122 -208 -122 -219q0 -13 25 -13h346q46 0 46 24z" />
    <glyph glyph-name="Acircumflex" unicode="&#xc2;" horiz-adv-x="1244" 
d="M1112 1479q0 -29 -35 -29q-31 0 -54 53q-25 76 -83 225l-2 5q-6 13 -16 13q-27 0 -95 -83q-53 -64 -79 -108q-16 -29 -32 -57q-24 -33 -52 -33t-28 15q0 72 164 244t235 172q30 0 40 -49q3 -13 8 -119q4 -77 19 -172q10 -67 10 -77zM1239 22q0 -27 -39 -27q-9 0 -30 3
q-64 9 -130 9q-59 0 -141 -9q-27 -3 -35 -3q-32 0 -32 20t35 29q51 12 65 22q36 24 36 82q0 53 -18 131q-16 65 -31 129q-11 48 -18 57q-12 13 -56 13h-390q-51 0 -75 -43l-125 -226q-32 -58 -32 -95q0 -46 65.5 -64t65.5 -33q0 -22 -34 -22q-28 0 -84 6t-84 6q-25 0 -74 -6
t-74 -6q-24 0 -24 16q0 18 57 42q47 19 89 82q3 3 64 108l626 1076q30 53 49 53q20 0 31 -53l211 -1040q14 -75 46 -182q9 -14 49 -43q37 -25 37 -32zM882 591q0 8 -7 40q-57 260 -86 426q-8 46 -16 46q-7 0 -39 -57q-73 -124 -147 -247q-122 -208 -122 -219q0 -13 25 -13
h346q46 0 46 24z" />
    <glyph glyph-name="Atilde" unicode="&#xc3;" horiz-adv-x="1244" 
d="M1299 1669q0 -53 -108 -121q-103 -65 -168 -65q-51 0 -142 43t-138 43q-44 0 -96.5 -35.5t-68.5 -35.5q-20 0 -20 18q0 31 86 97q106 81 190 81q40 0 125 -38.5t140 -38.5q49 0 112 35t69 35q19 0 19 -18zM1239 22q0 -27 -39 -27q-9 0 -30 3q-64 9 -130 9q-59 0 -141 -9
q-27 -3 -35 -3q-32 0 -32 20t35 29q51 12 65 22q36 24 36 82q0 53 -18 131q-16 65 -31 129q-11 48 -18 57q-12 13 -56 13h-390q-51 0 -75 -43l-125 -226q-32 -58 -32 -95q0 -46 65.5 -64t65.5 -33q0 -22 -34 -22q-28 0 -84 6t-84 6q-25 0 -74 -6t-74 -6q-24 0 -24 16
q0 18 57 42q47 19 89 82q3 3 64 108l626 1076q30 53 49 53q20 0 31 -53l211 -1040q14 -75 46 -182q9 -14 49 -43q37 -25 37 -32zM882 591q0 8 -7 40q-57 260 -86 426q-8 46 -16 46q-7 0 -39 -57q-73 -124 -147 -247q-122 -208 -122 -219q0 -13 25 -13h346q46 0 46 24z" />
    <glyph glyph-name="Adieresis" unicode="&#xc4;" horiz-adv-x="1244" 
d="M1244 1639q0 -46 -34 -79.5t-80 -33.5q-47 0 -81 33.5t-34 79.5t34.5 80.5t80.5 34.5t80 -34.5t34 -80.5zM751 1639q0 -46 -34 -79.5t-80 -33.5t-80 33.5t-34 79.5t34 80.5t80 34.5t80 -34.5t34 -80.5zM1239 22q0 -27 -39 -27q-9 0 -30 3q-64 9 -130 9q-59 0 -141 -9
q-27 -3 -35 -3q-32 0 -32 20t35 29q51 12 65 22q36 24 36 82q0 53 -18 131q-16 65 -31 129q-11 48 -18 57q-12 13 -56 13h-390q-51 0 -75 -43l-125 -226q-32 -58 -32 -95q0 -46 65.5 -64t65.5 -33q0 -22 -34 -22q-28 0 -84 6t-84 6q-25 0 -74 -6t-74 -6q-24 0 -24 16
q0 18 57 42q47 19 89 82q3 3 64 108l626 1076q30 53 49 53q20 0 31 -53l211 -1040q14 -75 46 -182q9 -14 49 -43q37 -25 37 -32zM882 591q0 8 -7 40q-57 260 -86 426q-8 46 -16 46q-7 0 -39 -57q-73 -124 -147 -247q-122 -208 -122 -219q0 -13 25 -13h346q46 0 46 24z" />
    <glyph glyph-name="Aring" unicode="&#xc5;" horiz-adv-x="1244" 
d="M1073 1596q0 -69 -50 -118t-119 -49t-118.5 49t-49.5 118t49.5 119t118.5 50t119 -50t50 -119zM1002 1596q0 40 -29 69t-69 29t-68.5 -29t-28.5 -69t28.5 -68.5t68.5 -28.5t69 28.5t29 68.5zM1239 22q0 -27 -39 -27q-9 0 -30 3q-64 9 -130 9q-59 0 -141 -9q-27 -3 -35 -3
q-32 0 -32 20t35 29q51 12 65 22q36 24 36 82q0 53 -18 131q-16 65 -31 129q-11 48 -18 57q-12 13 -56 13h-390q-51 0 -75 -43l-125 -226q-32 -58 -32 -95q0 -46 65.5 -64t65.5 -33q0 -22 -34 -22q-28 0 -84 6t-84 6q-25 0 -74 -6t-74 -6q-24 0 -24 16q0 18 57 42
q47 19 89 82q3 3 64 108l626 1076q30 53 49 53q20 0 31 -53l211 -1040q14 -75 46 -182q9 -14 49 -43q37 -25 37 -32zM882 591q0 8 -7 40q-57 260 -86 426q-8 46 -16 46q-7 0 -39 -57q-73 -124 -147 -247q-122 -208 -122 -219q0 -13 25 -13h346q46 0 46 24z" />
    <glyph glyph-name="AE" unicode="&#xc6;" horiz-adv-x="1810" 
d="M1911 1334q0 17 -13 -108q-1 -46 -10 -137q-4 -33 -26 -33q-18 0 -29 65q-12 80 -16 87q-35 63 -240 63q-190 0 -232 -9.5t-58 -85.5l-78 -378q-6 -29 -6 -33q0 -23 29 -23h244q44 0 79 24.5t68 50.5q19 13 44 60q8 15 19 15q9 0 9 -16q0 -2 -30 -125q-20 -84 -32 -172
q-3 -38 -17 -94q-9 -17 -23 -17q-15 0 -24 47q-4 31 -7 62q-13 77 -119 77h-213q-34 0 -45 -11t-18 -44l-84 -401q-7 -33 -7 -50q0 -63 135 -63q263 0 372 71q62 40 81 53q42 32 70.5 66.5t41.5 34.5q18 0 18 -22q0 -49 -65 -149q-56 -88 -109 -118t-155 -30q-38 0 -179 10
q-112 8 -241 8q-94 0 -160 -7t-84 -7q-30 0 -30 21q0 13 49 32q56 22 71 42t51 183q36 160 36 194q0 8 -1 11q-5 16 -27 19q-61 6 -151 6q-32 0 -106 -1h-106q-74 0 -105 -37l-186 -219q-63 -73 -63 -130q0 -45 53.5 -63t53.5 -35q0 -23 -34 -23q-26 0 -76.5 5.5t-76.5 5.5
q-68 0 -134 -8q-25 -3 -33 -3q-24 0 -24 20q0 9 40 34q26 16 52 31q48 40 110 114q579 686 909 1056q11 10 24 34l-2 4q3 5 3 8q0 9 -24.5 20t-24.5 19q0 25 33 25q21 0 56 -3l56 -4q162 -7 274 -7q221 0 354 12q33 3 59 3q30 0 30 -27zM1122 1154q0 20 -15 20
q-16 0 -48 -37l-420 -486q-31 -36 -31 -41q0 -12 28 -12h336q28 0 37 13q3 6 10 40l100 470q3 14 3 33z" />
    <glyph glyph-name="Ccedilla" unicode="&#xc7;" horiz-adv-x="1296" 
d="M1356 1260q0 -17 -11 -97q-3 -74 -13 -222q-4 -43 -24 -43t-32 57q-25 122 -77 191q-127 170 -315 170q-245 0 -399 -259q-133 -222 -133 -484q0 -203 93 -347q108 -167 300 -167q131 0 261 94q122 87 184 212q27 53 47 53q17 0 17 -27q0 -28 -41 -112q-22 -56 -75 -143
q-37 -37 -145 -87q-150 -71 -299 -71q-249 0 -386 163q-127 153 -127 407q0 319 196 566q210 265 520 265q150 0 292 -82q88 -50 90 -50q10 0 29.5 17.5t31.5 17.5q16 0 16 -22zM797 -234q0 -65 -53 -111.5t-119 -46.5q-56 0 -94 38q-25 25 -25 39q0 11 13 11q14 0 41.5 -9
t42.5 -9q38 0 64.5 23t26.5 61q0 44 -65 83l63 162h38l-47 -126q114 -22 114 -115z" />
    <glyph glyph-name="Egrave" unicode="&#xc8;" horiz-adv-x="1150" 
d="M900 1489q0 -76 -31 -76q-29 0 -51 64l-97 287q-11 33 -11 46q0 35 26 60.5t61 25.5q78 0 84 -95zM1232 1334q0 -21 -6 -54q-8 -43 -9 -54q-2 -46 -10 -137q-4 -33 -25 -33q-16 0 -22 50q-8 72 -25 102q-25 46 -127 58q-25 3 -151 4q-16 1 -65 2q-40 1 -65 1
q-60 0 -83.5 -18.5t-36.5 -78.5l-80 -378q-5 -24 -5 -32q0 -24 32 -24h242q74 0 118 40q25 23 50 75q19 40 34 40q16 0 16 -21q0 7 -22 -92q-10 -47 -44 -232q-16 -85 -35 -85q-17 0 -17 74q0 113 -134 113h-212q-33 0 -44.5 -10.5t-18.5 -44.5l-88 -412q-3 -14 -3 -39
q0 -63 134 -63q291 0 452 122q43 31 72 68q27 34 42 34q17 0 17 -21q0 -50 -65 -150q-57 -87 -108 -117q-54 -30 -156 -30q-63 0 -188.5 9.5t-188.5 9.5q-48 0 -143.5 -7.5t-143.5 -7.5q-33 0 -33 22q0 16 52 29q59 16 79 52q10 19 24 90l200 954q10 48 10 71q0 53 -35 76
q-16 10 -66 22q-35 9 -35 27q0 23 34 23q8 0 60 -5q104 -10 245 -10h140q133 0 298 8q12 0 49 4q31 3 50 3q40 0 40 -27z" />
    <glyph glyph-name="Eacute" unicode="&#xc9;" horiz-adv-x="1150" 
d="M1028 1817q0 -21 -8 -39l-144 -322q-19 -43 -48 -43t-29 50q0 15 3 32l55 314q15 87 82 87q89 0 89 -79zM1232 1334q0 -21 -6 -54q-8 -43 -9 -54q-2 -46 -10 -137q-4 -33 -25 -33q-16 0 -22 50q-8 72 -25 102q-25 46 -127 58q-25 3 -151 4q-16 1 -65 2q-40 1 -65 1
q-60 0 -83.5 -18.5t-36.5 -78.5l-80 -378q-5 -24 -5 -32q0 -24 32 -24h242q74 0 118 40q25 23 50 75q19 40 34 40q16 0 16 -21q0 7 -22 -92q-10 -47 -44 -232q-16 -85 -35 -85q-17 0 -17 74q0 113 -134 113h-212q-33 0 -44.5 -10.5t-18.5 -44.5l-88 -412q-3 -14 -3 -39
q0 -63 134 -63q291 0 452 122q43 31 72 68q27 34 42 34q17 0 17 -21q0 -50 -65 -150q-57 -87 -108 -117q-54 -30 -156 -30q-63 0 -188.5 9.5t-188.5 9.5q-48 0 -143.5 -7.5t-143.5 -7.5q-33 0 -33 22q0 16 52 29q59 16 79 52q10 19 24 90l200 954q10 48 10 71q0 53 -35 76
q-16 10 -66 22q-35 9 -35 27q0 23 34 23q8 0 60 -5q104 -10 245 -10h140q133 0 298 8q12 0 49 4q31 3 50 3q40 0 40 -27z" />
    <glyph glyph-name="Ecircumflex" unicode="&#xca;" horiz-adv-x="1150" 
d="M1082 1479q0 -29 -35 -29q-31 0 -54 53q-25 76 -83 225l-2 5q-6 13 -16 13q-27 0 -95 -83q-53 -64 -79 -108q-16 -29 -32 -57q-24 -33 -52 -33t-28 15q0 72 164 244t235 172q30 0 40 -49q3 -13 8 -119q4 -77 19 -172q10 -67 10 -77zM1232 1334q0 -21 -6 -54
q-8 -43 -9 -54q-2 -46 -10 -137q-4 -33 -25 -33q-16 0 -22 50q-8 72 -25 102q-25 46 -127 58q-25 3 -151 4q-16 1 -65 2q-40 1 -65 1q-60 0 -83.5 -18.5t-36.5 -78.5l-80 -378q-5 -24 -5 -32q0 -24 32 -24h242q74 0 118 40q25 23 50 75q19 40 34 40q16 0 16 -21q0 7 -22 -92
q-10 -47 -44 -232q-16 -85 -35 -85q-17 0 -17 74q0 113 -134 113h-212q-33 0 -44.5 -10.5t-18.5 -44.5l-88 -412q-3 -14 -3 -39q0 -63 134 -63q291 0 452 122q43 31 72 68q27 34 42 34q17 0 17 -21q0 -50 -65 -150q-57 -87 -108 -117q-54 -30 -156 -30q-63 0 -188.5 9.5
t-188.5 9.5q-48 0 -143.5 -7.5t-143.5 -7.5q-33 0 -33 22q0 16 52 29q59 16 79 52q10 19 24 90l200 954q10 48 10 71q0 53 -35 76q-16 10 -66 22q-35 9 -35 27q0 23 34 23q8 0 60 -5q104 -10 245 -10h140q133 0 298 8q12 0 49 4q31 3 50 3q40 0 40 -27z" />
    <glyph glyph-name="Edieresis" unicode="&#xcb;" horiz-adv-x="1150" 
d="M1244 1639q0 -46 -34 -79.5t-80 -33.5q-47 0 -81 33.5t-34 79.5t34.5 80.5t80.5 34.5t80 -34.5t34 -80.5zM751 1639q0 -46 -34 -79.5t-80 -33.5t-80 33.5t-34 79.5t34 80.5t80 34.5t80 -34.5t34 -80.5zM1232 1334q0 -21 -6 -54q-8 -43 -9 -54q-2 -46 -10 -137
q-4 -33 -25 -33q-16 0 -22 50q-8 72 -25 102q-25 46 -127 58q-25 3 -151 4q-16 1 -65 2q-40 1 -65 1q-60 0 -83.5 -18.5t-36.5 -78.5l-80 -378q-5 -24 -5 -32q0 -24 32 -24h242q74 0 118 40q25 23 50 75q19 40 34 40q16 0 16 -21q0 7 -22 -92q-10 -47 -44 -232
q-16 -85 -35 -85q-17 0 -17 74q0 113 -134 113h-212q-33 0 -44.5 -10.5t-18.5 -44.5l-88 -412q-3 -14 -3 -39q0 -63 134 -63q291 0 452 122q43 31 72 68q27 34 42 34q17 0 17 -21q0 -50 -65 -150q-57 -87 -108 -117q-54 -30 -156 -30q-63 0 -188.5 9.5t-188.5 9.5
q-48 0 -143.5 -7.5t-143.5 -7.5q-33 0 -33 22q0 16 52 29q59 16 79 52q10 19 24 90l200 954q10 48 10 71q0 53 -35 76q-16 10 -66 22q-35 9 -35 27q0 23 34 23q8 0 60 -5q104 -10 245 -10h140q133 0 298 8q12 0 49 4q31 3 50 3q40 0 40 -27z" />
    <glyph glyph-name="Igrave" unicode="&#xcc;" horiz-adv-x="706" 
d="M660 1489q0 -76 -31 -76q-29 0 -51 64l-97 287q-11 33 -11 46q0 35 26 60.5t61 25.5q78 0 84 -95zM757 1339q0 -15 -50 -34q-57 -22 -76 -53q-11 -18 -28 -100l-197 -936q-10 -48 -10 -67q0 -54 37 -80q19 -12 69 -25q37 -10 37 -25q0 -24 -37 -24q-32 0 -95 6t-94 6
q-71 0 -150 -9q-27 -3 -40 -3q-34 0 -34 15q0 12 34 31q43 25 46 28q59 52 75 130l197 936q11 52 11 80q0 52 -35 74q-15 10 -64 22q-35 8 -35 26q0 24 37 24q7 0 46 -5q47 -6 125 -6q33 0 99 5.5t99 5.5t33 -22z" />
    <glyph glyph-name="Iacute" unicode="&#xcd;" horiz-adv-x="706" 
d="M768 1817q0 -21 -8 -39l-144 -322q-19 -43 -48 -43t-29 50q0 15 3 32l55 314q15 87 82 87q89 0 89 -79zM757 1339q0 -15 -50 -34q-57 -22 -76 -53q-11 -18 -28 -100l-197 -936q-10 -48 -10 -67q0 -54 37 -80q19 -12 69 -25q37 -10 37 -25q0 -24 -37 -24q-32 0 -95 6
t-94 6q-71 0 -150 -9q-27 -3 -40 -3q-34 0 -34 15q0 12 34 31q43 25 46 28q59 52 75 130l197 936q11 52 11 80q0 52 -35 74q-15 10 -64 22q-35 8 -35 26q0 24 37 24q7 0 46 -5q47 -6 125 -6q33 0 99 5.5t99 5.5t33 -22z" />
    <glyph glyph-name="Icircumflex" unicode="&#xce;" horiz-adv-x="706" 
d="M822 1479q0 -29 -35 -29q-31 0 -54 53q-25 76 -83 225l-2 5q-6 13 -16 13q-27 0 -95 -83q-53 -64 -79 -108q-16 -29 -32 -57q-24 -33 -52 -33t-28 15q0 72 164 244t235 172q30 0 40 -49q3 -13 8 -119q4 -77 19 -172q10 -67 10 -77zM757 1339q0 -15 -50 -34
q-57 -22 -76 -53q-11 -18 -28 -100l-197 -936q-10 -48 -10 -67q0 -54 37 -80q19 -12 69 -25q37 -10 37 -25q0 -24 -37 -24q-32 0 -95 6t-94 6q-71 0 -150 -9q-27 -3 -40 -3q-34 0 -34 15q0 12 34 31q43 25 46 28q59 52 75 130l197 936q11 52 11 80q0 52 -35 74
q-15 10 -64 22q-35 8 -35 26q0 24 37 24q7 0 46 -5q47 -6 125 -6q33 0 99 5.5t99 5.5t33 -22z" />
    <glyph glyph-name="Idieresis" unicode="&#xcf;" horiz-adv-x="706" 
d="M987 1639q0 -46 -34 -79.5t-80 -33.5q-47 0 -81 33.5t-34 79.5t34.5 80.5t80.5 34.5t80 -34.5t34 -80.5zM494 1639q0 -46 -34 -79.5t-80 -33.5t-80 33.5t-34 79.5t34 80.5t80 34.5t80 -34.5t34 -80.5zM757 1339q0 -15 -50 -34q-57 -22 -76 -53q-11 -18 -28 -100
l-197 -936q-10 -48 -10 -67q0 -54 37 -80q19 -12 69 -25q37 -10 37 -25q0 -24 -37 -24q-32 0 -95 6t-94 6q-71 0 -150 -9q-27 -3 -40 -3q-34 0 -34 15q0 12 34 31q43 25 46 28q59 52 75 130l197 936q11 52 11 80q0 52 -35 74q-15 10 -64 22q-35 8 -35 26q0 24 37 24
q7 0 46 -5q47 -6 125 -6q33 0 99 5.5t99 5.5t33 -22z" />
    <glyph glyph-name="Eth" unicode="&#xd0;" horiz-adv-x="1424" 
d="M1394 863q0 -300 -189 -551q-197 -262 -486 -309q-76 -12 -176 -12q-44 0 -132.5 9t-132.5 9q-25 0 -75.5 -7t-76.5 -7q-32 0 -32 21q0 14 47 32q54 20 72 47q11 17 30 111l98 463h-153q-27 0 -27 26q0 45 43 45h152l83 398q13 62 13 85q0 49 -36 70q-14 7 -66 19
q-36 7 -36 26q0 23 31 23q29 0 87.5 -7.5t88.5 -7.5q57 0 170.5 8t170.5 8q181 0 293 -61q239 -128 239 -438zM1225 857q0 208 -117 324t-324 116q-125 0 -158 -56q-9 -16 -24 -86l-88 -415h306q31 0 31 -15q0 -17 -13.5 -36.5t-29.5 -19.5h-309l-98 -466q-9 -43 -9 -68
q0 -82 136 -82q132 0 223 30q243 82 381 383q93 201 93 391z" />
    <glyph glyph-name="Ntilde" unicode="&#xd1;" horiz-adv-x="1433" 
d="M1309 1669q0 -53 -108 -121q-103 -65 -168 -65q-51 0 -142 43t-138 43q-44 0 -96.5 -35.5t-68.5 -35.5q-20 0 -20 18q0 31 86 97q106 81 190 81q40 0 125 -38.5t140 -38.5q49 0 112 35t69 35q19 0 19 -18zM1536 1338q0 -8 -49 -31q-55 -26 -71 -48q-21 -31 -38 -104
q-11 -56 -23 -112q-37 -145 -102 -464q-61 -303 -104 -464q-9 -38 -18 -77q-16 -55 -40 -55q-18 0 -40 43l-182 346q-207 395 -339 620q-18 31 -22 31q-13 0 -23 -49l-148 -701q-15 -70 -15 -108q0 -61 38 -88q18 -14 70 -28q38 -10 38 -28q0 -26 -44 -26q-28 0 -84 6t-84 6
q-57 0 -132 -9q-25 -3 -30 -3q-22 0 -22 19q0 17 40 34q72 29 103 92q21 45 50 176l142 636q24 106 24 161q0 123 -111 177q-40 20 -40 29q0 19 43 30q32 9 58 9q15 0 74 -7t66 -10q14 -8 23 -24q96 -166 280 -514q148 -303 254 -473q24 -40 29 -40q13 0 36 99
q66 280 108 486q17 78 35 155q19 93 19 157q0 63 -38 93q-20 16 -72 31q-39 11 -39 27q0 23 39 23q27 0 79.5 -5.5t79.5 -5.5q25 0 76 5.5t77 5.5q29 0 29 -23z" />
    <glyph glyph-name="Ograve" unicode="&#xd2;" horiz-adv-x="1485" 
d="M1000 1489q0 -76 -31 -76q-29 0 -51 64l-97 287q-11 33 -11 46q0 35 26 60.5t61 25.5q78 0 84 -95zM1454 802q0 -330 -213 -579q-211 -245 -529 -245q-255 0 -397 150q-139 147 -139 403q0 323 215 579q227 269 544 269q234 0 381 -174q138 -164 138 -403zM1282 844
q0 315 -214 430q-83 45 -175 45q-138 0 -268 -110t-207 -311q-71 -185 -71 -371q0 -197 91 -332q104 -154 293 -154q256 0 416 285q135 241 135 518z" />
    <glyph glyph-name="Oacute" unicode="&#xd3;" horiz-adv-x="1485" 
d="M1148 1817q0 -21 -8 -39l-144 -322q-19 -43 -48 -43t-29 50q0 15 3 32l55 314q15 87 82 87q89 0 89 -79zM1454 802q0 -330 -213 -579q-211 -245 -529 -245q-255 0 -397 150q-139 147 -139 403q0 323 215 579q227 269 544 269q234 0 381 -174q138 -164 138 -403zM1282 844
q0 315 -214 430q-83 45 -175 45q-138 0 -268 -110t-207 -311q-71 -185 -71 -371q0 -197 91 -332q104 -154 293 -154q256 0 416 285q135 241 135 518z" />
    <glyph glyph-name="Ocircumflex" unicode="&#xd4;" horiz-adv-x="1485" 
d="M1212 1479q0 -29 -35 -29q-31 0 -54 53q-25 76 -83 225l-2 5q-6 13 -16 13q-27 0 -95 -83q-53 -64 -79 -108q-16 -29 -32 -57q-24 -33 -52 -33t-28 15q0 72 164 244t235 172q30 0 40 -49q3 -13 8 -119q4 -77 19 -172q10 -67 10 -77zM1454 802q0 -330 -213 -579
q-211 -245 -529 -245q-255 0 -397 150q-139 147 -139 403q0 323 215 579q227 269 544 269q234 0 381 -174q138 -164 138 -403zM1282 844q0 315 -214 430q-83 45 -175 45q-138 0 -268 -110t-207 -311q-71 -185 -71 -371q0 -197 91 -332q104 -154 293 -154q256 0 416 285
q135 241 135 518z" />
    <glyph glyph-name="Otilde" unicode="&#xd5;" horiz-adv-x="1485" 
d="M1359 1669q0 -53 -108 -121q-103 -65 -168 -65q-51 0 -142 43t-138 43q-44 0 -96.5 -35.5t-68.5 -35.5q-20 0 -20 18q0 31 86 97q106 81 190 81q40 0 125 -38.5t140 -38.5q49 0 112 35t69 35q19 0 19 -18zM1454 802q0 -330 -213 -579q-211 -245 -529 -245
q-255 0 -397 150q-139 147 -139 403q0 323 215 579q227 269 544 269q234 0 381 -174q138 -164 138 -403zM1282 844q0 315 -214 430q-83 45 -175 45q-138 0 -268 -110t-207 -311q-71 -185 -71 -371q0 -197 91 -332q104 -154 293 -154q256 0 416 285q135 241 135 518z" />
    <glyph glyph-name="Odieresis" unicode="&#xd6;" horiz-adv-x="1485" 
d="M1394 1639q0 -46 -34 -79.5t-80 -33.5q-47 0 -81 33.5t-34 79.5t34.5 80.5t80.5 34.5t80 -34.5t34 -80.5zM901 1639q0 -46 -34 -79.5t-80 -33.5t-80 33.5t-34 79.5t34 80.5t80 34.5t80 -34.5t34 -80.5zM1454 802q0 -330 -213 -579q-211 -245 -529 -245q-255 0 -397 150
q-139 147 -139 403q0 323 215 579q227 269 544 269q234 0 381 -174q138 -164 138 -403zM1282 844q0 315 -214 430q-83 45 -175 45q-138 0 -268 -110t-207 -311q-71 -185 -71 -371q0 -197 91 -332q104 -154 293 -154q256 0 416 285q135 241 135 518z" />
    <glyph glyph-name="multiply" unicode="&#xd7;" horiz-adv-x="1061" 
d="M1042 798q0 -13 -37 -48q-91 -79 -272 -240q70 -77 213 -229q15 -15 36 -50q-72 -100 -82 -100q-12 0 -60 60q-34 43 -204 229q-88 -74 -256 -230q-55 -57 -68 -57q-7 0 -36 43.5t-29 53.5q0 11 48 51q86 77 260 229q-64 72 -196 213q-47 47 -47 62q0 16 30.5 59t44.5 43
q8 0 267 -290q317 290 328 290q9 0 34.5 -39t25.5 -50z" />
    <glyph glyph-name="Oslash" unicode="&#xd8;" horiz-adv-x="1488" 
d="M1473 1391q0 -2 -43 -51l-114 -135q138 -164 138 -403q0 -330 -213 -579q-211 -245 -529 -245q-212 0 -348 106l-140 -165q-24 -27 -49 -25q-47 3 -45 25q28 35 180 214q-134 146 -134 398q0 323 215 579q227 269 544 269q193 0 330 -122l119 141q18 21 36 20
q54 -4 53 -27zM1190 1170q-49 65 -122 104q-83 45 -175 45q-138 0 -268 -110t-207 -311q-71 -185 -71 -371q0 -157 60 -279zM1282 844q0 151 -52 260l-783 -922q104 -141 284 -141q256 0 416 285q135 241 135 518z" />
    <glyph glyph-name="Ugrave" unicode="&#xd9;" horiz-adv-x="1481" 
d="M1060 1489q0 -76 -31 -76q-29 0 -51 64l-97 287q-11 33 -11 46q0 35 26 60.5t61 25.5q78 0 84 -95zM1586 1339q0 -7 -48 -34q-54 -29 -67 -45q-16 -23 -41 -122q-1 -6 -93 -390q-16 -71 -53 -211q-82 -273 -208 -402q-154 -157 -414 -157q-182 0 -289 81
q-121 91 -121 267q0 70 27 209l111 580q19 98 19 111q0 56 -52 76.5t-52 31.5q0 27 43 27q27 0 82 -5.5t83 -5.5t84.5 5.5t84.5 5.5q31 0 31 -22q0 -11 -48 -35q-55 -27 -61 -34q-24 -23 -37 -68q-1 -3 -18 -85q-35 -167 -100 -501q-36 -209 -36 -269q0 -138 80 -213
q77 -73 215 -73q190 0 326 129q101 95 183 371q42 142 95 383q46 206 46 254q0 59 -36 86q-18 14 -66 27q-36 10 -36 27q0 23 34 23q25 0 74.5 -5.5t74.5 -5.5t76 5.5t77 5.5q30 0 30 -22z" />
    <glyph glyph-name="Uacute" unicode="&#xda;" horiz-adv-x="1481" 
d="M1168 1817q0 -21 -8 -39l-144 -322q-19 -43 -48 -43t-29 50q0 15 3 32l55 314q15 87 82 87q89 0 89 -79zM1586 1339q0 -7 -48 -34q-54 -29 -67 -45q-16 -23 -41 -122q-1 -6 -93 -390q-16 -71 -53 -211q-82 -273 -208 -402q-154 -157 -414 -157q-182 0 -289 81
q-121 91 -121 267q0 70 27 209l111 580q19 98 19 111q0 56 -52 76.5t-52 31.5q0 27 43 27q27 0 82 -5.5t83 -5.5t84.5 5.5t84.5 5.5q31 0 31 -22q0 -11 -48 -35q-55 -27 -61 -34q-24 -23 -37 -68q-1 -3 -18 -85q-35 -167 -100 -501q-36 -209 -36 -269q0 -138 80 -213
q77 -73 215 -73q190 0 326 129q101 95 183 371q42 142 95 383q46 206 46 254q0 59 -36 86q-18 14 -66 27q-36 10 -36 27q0 23 34 23q25 0 74.5 -5.5t74.5 -5.5t76 5.5t77 5.5q30 0 30 -22z" />
    <glyph glyph-name="Ucircumflex" unicode="&#xdb;" horiz-adv-x="1481" 
d="M1242 1479q0 -29 -35 -29q-31 0 -54 53q-25 76 -83 225l-2 5q-6 13 -16 13q-27 0 -95 -83q-53 -64 -79 -108q-16 -29 -32 -57q-24 -33 -52 -33t-28 15q0 72 164 244t235 172q30 0 40 -49q3 -13 8 -119q4 -77 19 -172q10 -67 10 -77zM1586 1339q0 -7 -48 -34
q-54 -29 -67 -45q-16 -23 -41 -122q-1 -6 -93 -390q-16 -71 -53 -211q-82 -273 -208 -402q-154 -157 -414 -157q-182 0 -289 81q-121 91 -121 267q0 70 27 209l111 580q19 98 19 111q0 56 -52 76.5t-52 31.5q0 27 43 27q27 0 82 -5.5t83 -5.5t84.5 5.5t84.5 5.5q31 0 31 -22
q0 -11 -48 -35q-55 -27 -61 -34q-24 -23 -37 -68q-1 -3 -18 -85q-35 -167 -100 -501q-36 -209 -36 -269q0 -138 80 -213q77 -73 215 -73q190 0 326 129q101 95 183 371q42 142 95 383q46 206 46 254q0 59 -36 86q-18 14 -66 27q-36 10 -36 27q0 23 34 23q25 0 74.5 -5.5
t74.5 -5.5t76 5.5t77 5.5q30 0 30 -22z" />
    <glyph glyph-name="Udieresis" unicode="&#xdc;" horiz-adv-x="1481" 
d="M1414 1639q0 -46 -34 -79.5t-80 -33.5q-47 0 -81 33.5t-34 79.5t34.5 80.5t80.5 34.5t80 -34.5t34 -80.5zM921 1639q0 -46 -34 -79.5t-80 -33.5t-80 33.5t-34 79.5t34 80.5t80 34.5t80 -34.5t34 -80.5zM1586 1339q0 -7 -48 -34q-54 -29 -67 -45q-16 -23 -41 -122
q-1 -6 -93 -390q-16 -71 -53 -211q-82 -273 -208 -402q-154 -157 -414 -157q-182 0 -289 81q-121 91 -121 267q0 70 27 209l111 580q19 98 19 111q0 56 -52 76.5t-52 31.5q0 27 43 27q27 0 82 -5.5t83 -5.5t84.5 5.5t84.5 5.5q31 0 31 -22q0 -11 -48 -35q-55 -27 -61 -34
q-24 -23 -37 -68q-1 -3 -18 -85q-35 -167 -100 -501q-36 -209 -36 -269q0 -138 80 -213q77 -73 215 -73q190 0 326 129q101 95 183 371q42 142 95 383q46 206 46 254q0 59 -36 86q-18 14 -66 27q-36 10 -36 27q0 23 34 23q25 0 74.5 -5.5t74.5 -5.5t76 5.5t77 5.5
q30 0 30 -22z" />
    <glyph glyph-name="Yacute" unicode="&#xdd;" horiz-adv-x="1268" 
d="M1028 1817q0 -21 -8 -39l-144 -322q-19 -43 -48 -43t-29 50q0 15 3 32l55 314q15 87 82 87q89 0 89 -79zM1359 1341q0 -17 -34 -30q-51 -19 -86 -53q-15 -15 -111 -144q-210 -286 -311 -432q-23 -28 -58 -90q-11 -27 -22 -79l-62 -295q-8 -43 -8 -69q0 -56 38 -81
q19 -11 72 -22q39 -9 39 -25q0 -26 -36 -26q-33 0 -99.5 6t-99.5 6q-66 0 -152 -9q-28 -3 -34 -3q-32 0 -32 21q0 14 50 35q57 24 72 46t31 94l67 323q8 38 8 48q0 19 -28 99l-180 512q-28 81 -60 113q-8 8 -53 27q-38 15 -38 26q0 22 34 22q8 0 32 -3q64 -8 142 -8
q35 0 105 5.5t105 5.5q28 0 28 -23q0 -16 -60.5 -31.5t-60.5 -72.5q0 -40 18 -96l130 -403q16 -50 26 -50q3 0 112 144q72 92 202 286q57 98 57 131q0 47 -62.5 59.5t-62.5 27.5q0 28 35 28q27 0 81 -5.5t81 -5.5t81 5.5t81 5.5q23 0 23 -20z" />
    <glyph glyph-name="Thorn" unicode="&#xde;" horiz-adv-x="1094" 
d="M1103 876q0 -191 -134.5 -323.5t-325.5 -132.5q-147 0 -147 36q0 15 98 15q149 0 247 119q93 111 93 263q0 110 -72.5 177.5t-183.5 67.5q-86 0 -104 -84l-169 -803q-9 -43 -9 -71q0 -52 42 -74q19 -11 78 -22q41 -8 41 -24q0 -25 -52 -25q-33 0 -98.5 5t-98.5 5
q-30 0 -90.5 -5t-91.5 -5q-32 0 -32 23q0 12 48 31q54 22 69 42t33 107l197 937q11 52 11 80q0 52 -35 74q-15 10 -64 22q-35 8 -35 26q0 24 37 24q7 0 46 -5q47 -6 125 -6q33 0 99 5.5t99 5.5t33 -22q0 -15 -50 -34q-57 -22 -76 -53q-11 -18 -28 -100v-1q168 11 208 11
q128 0 210 -79.5t82 -206.5z" />
    <glyph glyph-name="germandbls" unicode="&#xdf;" horiz-adv-x="1139" 
d="M1129 296q0 -146 -128 -239q-116 -85 -267 -85q-91 0 -171 33q-103 43 -103 120q0 42 26 70.5t67 28.5q52 0 99.5 -94t118.5 -94q72 0 126.5 44.5t54.5 114.5q0 80 -80 163q-75 71 -150 141q-80 89 -80 183q0 101 97 203q89 90 179 179q97 119 97 262q0 152 -159 152
q-96 0 -153 -124q-76 -164 -116 -352l-207 -964q-37 -174 -101 -266q-78 -112 -229 -161q-47 -15 -89 -15q-83 0 -83 44q0 32 31 100q35 75 61 75q14 0 29 -62t59 -62q55 0 88 99q6 17 34 146l181 831q56 256 106 364q211 452 475 452q88 0 133 -72q38 -60 38 -153
q0 -151 -80 -279q-40 -65 -148 -176q-80 -82 -80 -123q0 -64 84 -148q78 -75 156 -151q84 -94 84 -185z" />
    <glyph glyph-name="agrave" unicode="&#xe0;" horiz-adv-x="1191" 
d="M910 1199q0 -76 -31 -76q-29 0 -51 64l-97 287q-11 33 -11 46q0 35 26 60.5t61 25.5q78 0 84 -95zM1184 267q0 -77 -119 -182t-197 -105q-71 0 -91 103q-7 39 -7 159l-2 2q-8 -4 -26 -25q-87 -100 -199 -168q-130 -79 -244 -79q-102 0 -160 61.5t-58 163.5q0 245 215 497
q223 261 463 261q38 0 108 -23t105 -23q39 0 93 66t70 66q18 0 18 -20q0 -9 -42 -143q-50 -156 -52 -163q-100 -350 -100 -487q0 -86 42 -86q41 0 97 72.5t68 72.5q18 0 18 -20zM905 793q0 48 -52 77q-44 24 -96 24q-174 0 -333 -235q-147 -217 -147 -400q0 -153 150 -153
q91 0 197 82q98 75 143 164q13 25 26 63q67 192 101 319q11 41 11 59z" />
    <glyph glyph-name="aacute" unicode="&#xe1;" horiz-adv-x="1191" 
d="M1048 1527q0 -21 -8 -39l-144 -322q-19 -43 -48 -43t-29 50q0 15 3 32l55 314q15 87 82 87q89 0 89 -79zM1184 267q0 -77 -119 -182t-197 -105q-71 0 -91 103q-7 39 -7 159l-2 2q-8 -4 -26 -25q-87 -100 -199 -168q-130 -79 -244 -79q-102 0 -160 61.5t-58 163.5
q0 245 215 497q223 261 463 261q38 0 108 -23t105 -23q39 0 93 66t70 66q18 0 18 -20q0 -9 -42 -143q-50 -156 -52 -163q-100 -350 -100 -487q0 -86 42 -86q41 0 97 72.5t68 72.5q18 0 18 -20zM905 793q0 48 -52 77q-44 24 -96 24q-174 0 -333 -235q-147 -217 -147 -400
q0 -153 150 -153q91 0 197 82q98 75 143 164q13 25 26 63q67 192 101 319q11 41 11 59z" />
    <glyph glyph-name="acircumflex" unicode="&#xe2;" horiz-adv-x="1191" 
d="M1082 1152q0 -29 -35 -29q-31 0 -54 53q-25 76 -83 225l-2 5q-6 13 -16 13q-27 0 -95 -83q-53 -64 -79 -108q-16 -29 -32 -57q-24 -33 -52 -33t-28 15q0 72 164 244t235 172q30 0 40 -49q3 -13 8 -119q4 -77 19 -172q10 -67 10 -77zM1184 267q0 -77 -119 -182t-197 -105
q-71 0 -91 103q-7 39 -7 159l-2 2q-8 -4 -26 -25q-87 -100 -199 -168q-130 -79 -244 -79q-102 0 -160 61.5t-58 163.5q0 245 215 497q223 261 463 261q38 0 108 -23t105 -23q39 0 93 66t70 66q18 0 18 -20q0 -9 -42 -143q-50 -156 -52 -163q-100 -350 -100 -487
q0 -86 42 -86q41 0 97 72.5t68 72.5q18 0 18 -20zM905 793q0 48 -52 77q-44 24 -96 24q-174 0 -333 -235q-147 -217 -147 -400q0 -153 150 -153q91 0 197 82q98 75 143 164q13 25 26 63q67 192 101 319q11 41 11 59z" />
    <glyph glyph-name="atilde" unicode="&#xe3;" horiz-adv-x="1191" 
d="M1269 1419q0 -53 -108 -121q-103 -65 -168 -65q-51 0 -142 43t-138 43q-44 0 -96.5 -35.5t-68.5 -35.5q-20 0 -20 18q0 31 86 97q106 81 190 81q40 0 125 -38.5t140 -38.5q49 0 112 35t69 35q19 0 19 -18zM1184 267q0 -77 -119 -182t-197 -105q-71 0 -91 103
q-7 39 -7 159l-2 2q-8 -4 -26 -25q-87 -100 -199 -168q-130 -79 -244 -79q-102 0 -160 61.5t-58 163.5q0 245 215 497q223 261 463 261q38 0 108 -23t105 -23q39 0 93 66t70 66q18 0 18 -20q0 -9 -42 -143q-50 -156 -52 -163q-100 -350 -100 -487q0 -86 42 -86q41 0 97 72.5
t68 72.5q18 0 18 -20zM905 793q0 48 -52 77q-44 24 -96 24q-174 0 -333 -235q-147 -217 -147 -400q0 -153 150 -153q91 0 197 82q98 75 143 164q13 25 26 63q67 192 101 319q11 41 11 59z" />
    <glyph glyph-name="adieresis" unicode="&#xe4;" horiz-adv-x="1191" 
d="M1264 1389q0 -46 -34 -79.5t-80 -33.5q-47 0 -81 33.5t-34 79.5t34.5 80.5t80.5 34.5t80 -34.5t34 -80.5zM771 1389q0 -46 -34 -79.5t-80 -33.5t-80 33.5t-34 79.5t34 80.5t80 34.5t80 -34.5t34 -80.5zM1184 267q0 -77 -119 -182t-197 -105q-71 0 -91 103q-7 39 -7 159
l-2 2q-8 -4 -26 -25q-87 -100 -199 -168q-130 -79 -244 -79q-102 0 -160 61.5t-58 163.5q0 245 215 497q223 261 463 261q38 0 108 -23t105 -23q39 0 93 66t70 66q18 0 18 -20q0 -9 -42 -143q-50 -156 -52 -163q-100 -350 -100 -487q0 -86 42 -86q41 0 97 72.5t68 72.5
q18 0 18 -20zM905 793q0 48 -52 77q-44 24 -96 24q-174 0 -333 -235q-147 -217 -147 -400q0 -153 150 -153q91 0 197 82q98 75 143 164q13 25 26 63q67 192 101 319q11 41 11 59z" />
    <glyph glyph-name="aring" unicode="&#xe5;" horiz-adv-x="1191" 
d="M1043 1346q0 -69 -50 -118t-119 -49t-118.5 49t-49.5 118t49.5 119t118.5 50t119 -50t50 -119zM972 1346q0 40 -29 69t-69 29t-68.5 -29t-28.5 -69t28.5 -68.5t68.5 -28.5t69 28.5t29 68.5zM1184 267q0 -77 -119 -182t-197 -105q-71 0 -91 103q-7 39 -7 159l-2 2
q-8 -4 -26 -25q-87 -100 -199 -168q-130 -79 -244 -79q-102 0 -160 61.5t-58 163.5q0 245 215 497q223 261 463 261q38 0 108 -23t105 -23q39 0 93 66t70 66q18 0 18 -20q0 -9 -42 -143q-50 -156 -52 -163q-100 -350 -100 -487q0 -86 42 -86q41 0 97 72.5t68 72.5
q18 0 18 -20zM905 793q0 48 -52 77q-44 24 -96 24q-174 0 -333 -235q-147 -217 -147 -400q0 -153 150 -153q91 0 197 82q98 75 143 164q13 25 26 63q67 192 101 319q11 41 11 59z" />
    <glyph glyph-name="ae" unicode="&#xe6;" horiz-adv-x="1616" 
d="M1611 797q0 -111 -143 -210q-159 -110 -381 -145q-44 -6 -97 -19q-37 -30 -37 -94q0 -101 86 -171q81 -66 184 -66q114 0 303 121q18 0 18 -18q0 -52 -136 -131q-157 -92 -307 -92q-130 0 -217 64q-93 68 -110 193q-257 -256 -467 -256q-101 0 -170 51q-76 57 -76 155
q0 149 141 274q117 105 279 157q127 41 256 41q81 0 134 -27q-29 215 -248 215q-88 0 -205.5 -66t-110.5 -66q-15 0 -15 18q0 38 92 109q164 127 364 127q71 0 155.5 -52t116.5 -115q183 167 369 167q87 0 149 -38q73 -44 73 -126zM1440 803q0 91 -106 91q-69 0 -163 -73
q-76 -59 -130 -130v-16q0 -69 -31 -164q10 -1 14 -1q91 0 219 63q197 97 197 230zM817 505q0 32 -58 50q-42 13 -83 13q-143 0 -274 -86q-148 -97 -148 -232q0 -57 42 -100.5t99 -43.5q132 0 277 135.5t145 263.5z" />
    <glyph glyph-name="ccedilla" unicode="&#xe7;" horiz-adv-x="968" 
d="M978 807q0 -39 -42.5 -73t-81.5 -34q-21 0 -50 48q-41 69 -60 89q-44 48 -104 48q-158 0 -258 -188q-84 -157 -84 -331q0 -125 62 -196q66 -76 189 -76q88 0 205.5 65.5t110.5 65.5q15 0 15 -17q0 -37 -93 -109q-165 -127 -363 -127q-147 0 -232 86.5t-85 234.5
q0 245 183 453q189 215 431 215q87 0 162 -34q95 -44 95 -120zM527 -234q0 -65 -53 -111.5t-119 -46.5q-56 0 -94 38q-25 25 -25 39q0 11 13 11q14 0 41.5 -9t42.5 -9q38 0 64.5 23t26.5 61q0 44 -65 83l63 162h38l-47 -126q114 -22 114 -115z" />
    <glyph glyph-name="egrave" unicode="&#xe8;" horiz-adv-x="971" 
d="M820 1199q0 -76 -31 -76q-29 0 -51 64l-97 287q-11 33 -11 46q0 35 26 60.5t61 25.5q78 0 84 -95zM939 797q0 -111 -143 -210q-158 -110 -381 -145q-44 -6 -97 -19q-37 -30 -37 -94q0 -101 86 -171q81 -66 184 -66q114 0 303 121q18 0 18 -18q0 -52 -136 -131
q-157 -92 -307 -92q-148 0 -238 80q-93 83 -93 229q0 172 105 340q98 157 251 255q133 85 264 85q87 0 148 -38q73 -44 73 -126zM769 803q0 91 -107 91q-97 0 -229 -130.5t-132 -226.5q0 -27 51 -27q91 0 219 63q198 98 198 230z" />
    <glyph glyph-name="eacute" unicode="&#xe9;" horiz-adv-x="971" 
d="M948 1527q0 -21 -8 -39l-144 -322q-19 -43 -48 -43t-29 50q0 15 3 32l55 314q15 87 82 87q89 0 89 -79zM939 797q0 -111 -143 -210q-158 -110 -381 -145q-44 -6 -97 -19q-37 -30 -37 -94q0 -101 86 -171q81 -66 184 -66q114 0 303 121q18 0 18 -18q0 -52 -136 -131
q-157 -92 -307 -92q-148 0 -238 80q-93 83 -93 229q0 172 105 340q98 157 251 255q133 85 264 85q87 0 148 -38q73 -44 73 -126zM769 803q0 91 -107 91q-97 0 -229 -130.5t-132 -226.5q0 -27 51 -27q91 0 219 63q198 98 198 230z" />
    <glyph glyph-name="ecircumflex" unicode="&#xea;" horiz-adv-x="971" 
d="M982 1152q0 -29 -35 -29q-31 0 -54 53q-25 76 -83 225l-2 5q-6 13 -16 13q-27 0 -95 -83q-53 -64 -79 -108q-16 -29 -32 -57q-24 -33 -52 -33t-28 15q0 72 164 244t235 172q30 0 40 -49q3 -13 8 -119q4 -77 19 -172q10 -67 10 -77zM939 797q0 -111 -143 -210
q-158 -110 -381 -145q-44 -6 -97 -19q-37 -30 -37 -94q0 -101 86 -171q81 -66 184 -66q114 0 303 121q18 0 18 -18q0 -52 -136 -131q-157 -92 -307 -92q-148 0 -238 80q-93 83 -93 229q0 172 105 340q98 157 251 255q133 85 264 85q87 0 148 -38q73 -44 73 -126zM769 803
q0 91 -107 91q-97 0 -229 -130.5t-132 -226.5q0 -27 51 -27q91 0 219 63q198 98 198 230z" />
    <glyph glyph-name="edieresis" unicode="&#xeb;" horiz-adv-x="971" 
d="M1144 1389q0 -46 -34 -79.5t-80 -33.5q-47 0 -81 33.5t-34 79.5t34.5 80.5t80.5 34.5t80 -34.5t34 -80.5zM651 1389q0 -46 -34 -79.5t-80 -33.5t-80 33.5t-34 79.5t34 80.5t80 34.5t80 -34.5t34 -80.5zM939 797q0 -111 -143 -210q-158 -110 -381 -145q-44 -6 -97 -19
q-37 -30 -37 -94q0 -101 86 -171q81 -66 184 -66q114 0 303 121q18 0 18 -18q0 -52 -136 -131q-157 -92 -307 -92q-148 0 -238 80q-93 83 -93 229q0 172 105 340q98 157 251 255q133 85 264 85q87 0 148 -38q73 -44 73 -126zM769 803q0 91 -107 91q-97 0 -229 -130.5
t-132 -226.5q0 -27 51 -27q91 0 219 63q198 98 198 230z" />
    <glyph glyph-name="igrave" unicode="&#xec;" horiz-adv-x="614" 
d="M590 1199q0 -76 -31 -76q-29 0 -51 64l-97 287q-11 33 -11 46q0 35 26 60.5t61 25.5q78 0 84 -95zM596 251q0 -74 -116 -174t-192 -100q-93 0 -93 149q0 71 53 279l85 333q16 63 16 85q0 45 -89.5 47t-89.5 26q0 13 14 20t54 9q83 5 247 24q36 6 55 6q25 0 25 -22
q0 -12 -15 -62q-51 -171 -103 -342q-66 -236 -66 -335q0 -56 38 -56q39 0 93.5 66t66.5 66q17 0 17 -19z" />
    <glyph glyph-name="iacute" unicode="&#xed;" horiz-adv-x="614" 
d="M708 1527q0 -21 -8 -39l-144 -322q-19 -43 -48 -43t-29 50q0 15 3 32l55 314q15 87 82 87q89 0 89 -79zM596 251q0 -74 -116 -174t-192 -100q-93 0 -93 149q0 71 53 279l85 333q16 63 16 85q0 45 -89.5 47t-89.5 26q0 13 14 20t54 9q83 5 247 24q36 6 55 6q25 0 25 -22
q0 -12 -15 -62q-51 -171 -103 -342q-66 -236 -66 -335q0 -56 38 -56q39 0 93.5 66t66.5 66q17 0 17 -19z" />
    <glyph glyph-name="icircumflex" unicode="&#xee;" horiz-adv-x="614" 
d="M742 1152q0 -29 -35 -29q-31 0 -54 53q-25 76 -83 225l-2 5q-6 13 -16 13q-27 0 -95 -83q-53 -64 -79 -108q-16 -29 -32 -57q-24 -33 -52 -33t-28 15q0 72 164 244t235 172q30 0 40 -49q3 -13 8 -119q4 -77 19 -172q10 -67 10 -77zM596 251q0 -74 -116 -174t-192 -100
q-93 0 -93 149q0 71 53 279l85 333q16 63 16 85q0 45 -89.5 47t-89.5 26q0 13 14 20t54 9q83 5 247 24q36 6 55 6q25 0 25 -22q0 -12 -15 -62q-51 -171 -103 -342q-66 -236 -66 -335q0 -56 38 -56q39 0 93.5 66t66.5 66q17 0 17 -19z" />
    <glyph glyph-name="idieresis" unicode="&#xef;" horiz-adv-x="614" 
d="M869 1389q0 -46 -34 -79.5t-80 -33.5t-80 33.5t-34 79.5t34 80.5t80 34.5t80 -34.5t34 -80.5zM462 1389q0 -46 -34 -79.5t-80 -33.5q-47 0 -81 33.5t-34 79.5t34.5 80.5t80.5 34.5t80 -34.5t34 -80.5zM596 251q0 -74 -116 -174t-192 -100q-93 0 -93 149q0 71 53 279
l85 333q16 63 16 85q0 45 -89.5 47t-89.5 26q0 13 14 20t54 9q83 5 247 24q36 6 55 6q25 0 25 -22q0 -12 -15 -62q-51 -171 -103 -342q-66 -236 -66 -335q0 -56 38 -56q39 0 93.5 66t66.5 66q17 0 17 -19z" />
    <glyph glyph-name="eth" unicode="&#xf0;" horiz-adv-x="1090" 
d="M1143 1526q0 -27 -51 -50l-228 -101q200 -236 200 -574q0 -251 -92 -454q-107 -234 -311 -331q-93 -44 -196 -44q-157 0 -253 99t-96 256q0 234 159 428q169 205 398 205q115 0 205 -103q3 8 3 21q0 251 -126 449q-257 -128 -318 -128q-32 0 -32 25q0 23 60 49l254 109
q-33 49 -94 96q-56 38 -111 77q-27 20 -27 38q0 23 29 23q50 0 158 -75q87 -60 143 -116q77 35 154 71q123 55 143 55q29 0 29 -25zM848 661q0 233 -172 233q-169 0 -279 -226q-90 -186 -90 -377q0 -251 179 -251q165 0 273 237q89 195 89 384z" />
    <glyph glyph-name="ntilde" unicode="&#xf1;" horiz-adv-x="1229" 
d="M1169 1419q0 -53 -108 -121q-103 -65 -168 -65q-51 0 -142 43t-138 43q-44 0 -96.5 -35.5t-68.5 -35.5q-20 0 -20 18q0 31 86 97q106 81 190 81q40 0 125 -38.5t140 -38.5q49 0 112 35t69 35q19 0 19 -18zM1222 230q0 -32 -62 -100q-140 -153 -256 -153q-99 0 -99 127
q0 43 22 161l64 343q9 48 9 93q0 141 -113 141q-223 0 -322 -444l-78 -349q-2 -13 -10 -36q-17 -30 -92 -30q-78 0 -78 34q0 8 6 36l82 378q17 71 35 142q19 84 19 145q0 76 -47 76q-43 0 -89 -69t-57 -69q-22 0 -22 23q0 75 91.5 175.5t165.5 100.5q100 0 100 -169
q0 -33 -4 -71q200 240 410 240q87 0 136 -67q44 -59 44 -149q0 -56 -25 -192l-56 -304q-8 -43 -8 -69q0 -48 33 -48q52 0 109.5 62.5t70.5 62.5q21 0 21 -21z" />
    <glyph glyph-name="ograve" unicode="&#xf2;" horiz-adv-x="1115" 
d="M820 1199q0 -76 -31 -76q-29 0 -51 64l-97 287q-11 33 -11 46q0 35 26 60.5t61 25.5q78 0 84 -95zM1041 615q0 -243 -165 -438q-173 -205 -412 -205q-153 0 -251.5 102t-98.5 256q0 242 169 433q175 198 414 198q152 0 248 -97t96 -249zM850 661q0 237 -172 237
q-175 0 -282 -225q-88 -183 -88 -380q0 -252 179 -252q171 0 277 235q86 189 86 385z" />
    <glyph glyph-name="oacute" unicode="&#xf3;" horiz-adv-x="1115" 
d="M948 1527q0 -21 -8 -39l-144 -322q-19 -43 -48 -43t-29 50q0 15 3 32l55 314q15 87 82 87q89 0 89 -79zM1041 615q0 -243 -165 -438q-173 -205 -412 -205q-153 0 -251.5 102t-98.5 256q0 242 169 433q175 198 414 198q152 0 248 -97t96 -249zM850 661q0 237 -172 237
q-175 0 -282 -225q-88 -183 -88 -380q0 -252 179 -252q171 0 277 235q86 189 86 385z" />
    <glyph glyph-name="ocircumflex" unicode="&#xf4;" horiz-adv-x="1115" 
d="M982 1152q0 -29 -35 -29q-31 0 -54 53q-25 76 -83 225l-2 5q-6 13 -16 13q-27 0 -95 -83q-53 -64 -79 -108q-16 -29 -32 -57q-24 -33 -52 -33t-28 15q0 72 164 244t235 172q30 0 40 -49q3 -13 8 -119q4 -77 19 -172q10 -67 10 -77zM1041 615q0 -243 -165 -438
q-173 -205 -412 -205q-153 0 -251.5 102t-98.5 256q0 242 169 433q175 198 414 198q152 0 248 -97t96 -249zM850 661q0 237 -172 237q-175 0 -282 -225q-88 -183 -88 -380q0 -252 179 -252q171 0 277 235q86 189 86 385z" />
    <glyph glyph-name="otilde" unicode="&#xf5;" horiz-adv-x="1115" 
d="M1179 1419q0 -53 -108 -121q-103 -65 -168 -65q-51 0 -142 43t-138 43q-44 0 -96.5 -35.5t-68.5 -35.5q-20 0 -20 18q0 31 86 97q106 81 190 81q40 0 125 -38.5t140 -38.5q49 0 112 35t69 35q19 0 19 -18zM1041 615q0 -243 -165 -438q-173 -205 -412 -205
q-153 0 -251.5 102t-98.5 256q0 242 169 433q175 198 414 198q152 0 248 -97t96 -249zM850 661q0 237 -172 237q-175 0 -282 -225q-88 -183 -88 -380q0 -252 179 -252q171 0 277 235q86 189 86 385z" />
    <glyph glyph-name="odieresis" unicode="&#xf6;" horiz-adv-x="1115" 
d="M1134 1389q0 -46 -34 -79.5t-80 -33.5q-47 0 -81 33.5t-34 79.5t34.5 80.5t80.5 34.5t80 -34.5t34 -80.5zM641 1389q0 -46 -34 -79.5t-80 -33.5t-80 33.5t-34 79.5t34 80.5t80 34.5t80 -34.5t34 -80.5zM1041 615q0 -243 -165 -438q-173 -205 -412 -205q-153 0 -251.5 102
t-98.5 256q0 242 169 433q175 198 414 198q152 0 248 -97t96 -249zM850 661q0 237 -172 237q-175 0 -282 -225q-88 -183 -88 -380q0 -252 179 -252q171 0 277 235q86 189 86 385z" />
    <glyph glyph-name="divide" unicode="&#xf7;" horiz-adv-x="1014" 
d="M820 802q0 -14 -75.5 -77.5t-88.5 -63.5q-12 0 -29 24q-74 105 -74 112q0 22 72 79q69 55 88 55q14 0 60.5 -56.5t46.5 -72.5zM1071 560q0 -24 -21 -68q-22 -49 -43 -49q-39 0 -117.5 2.5t-117.5 2.5q-66 0 -198 1t-198 1q-20 0 -60.5 -2t-60.5 -2q-35 0 -35 14
q0 7 13.5 58.5t15.5 53.5q12 8 37 8q-25 0 300 -6q81 -1 208 0q178 1 208 1q69 0 69 -15zM716 226q0 -13 -74.5 -76t-88.5 -63q-15 0 -59 61.5t-44 79.5q0 16 71 72.5t88 56.5q15 0 61 -57.5t46 -73.5z" />
    <glyph glyph-name="oslash" unicode="&#xf8;" horiz-adv-x="1100" 
d="M1069 968q0 -2 -105 -126q77 -94 77 -227q0 -243 -165 -438q-173 -205 -412 -205q-109 0 -193 54l-97 -114q-24 -28 -46 -28q-50 0 -55 28q55 67 137 164q-96 101 -96 254q0 242 169 433q175 198 414 198q121 0 209 -64q84 99 106 99q57 0 57 -28zM826 803
q-39 95 -148 95q-175 0 -282 -225q-88 -183 -88 -380q0 -48 8 -91zM850 661q0 19 -2 44l-501 -589q45 -75 140 -75q171 0 277 235q86 189 86 385z" />
    <glyph glyph-name="ugrave" unicode="&#xf9;" horiz-adv-x="1234" 
d="M840 1199q0 -76 -31 -76q-29 0 -51 64l-97 287q-11 33 -11 46q0 35 26 60.5t61 25.5q78 0 84 -95zM1227 262q0 -67 -99 -158q-138 -127 -268 -127q-83 0 -83 105t63 315q3 9 6 27q-6 -4 -70 -84q-87 -109 -221 -219q-170 -139 -265 -139q-99 0 -99 130q0 99 47 261
q41 130 82 259q29 99 29 132q0 36 -27 36q-41 0 -99.5 -76.5t-73.5 -76.5q-20 0 -20 20q0 56 76 152q111 141 234 141q98 0 98 -131q0 -56 -23 -139l-101 -365q-33 -119 -33 -161q0 -39 39 -39q64 0 195 132q172 174 271 382q46 97 91 242q6 19 25 51q20 18 86 18t66 -39
q0 -9 -9 -43q-51 -178 -103 -355q-69 -249 -69 -343q0 -41 36 -41q56 0 122 77.5t77 77.5q20 0 20 -22z" />
    <glyph glyph-name="uacute" unicode="&#xfa;" horiz-adv-x="1234" 
d="M988 1527q0 -21 -8 -39l-144 -322q-19 -43 -48 -43t-29 50q0 15 3 32l55 314q15 87 82 87q89 0 89 -79zM1227 262q0 -67 -99 -158q-138 -127 -268 -127q-83 0 -83 105t63 315q3 9 6 27q-6 -4 -70 -84q-87 -109 -221 -219q-170 -139 -265 -139q-99 0 -99 130q0 99 47 261
q41 130 82 259q29 99 29 132q0 36 -27 36q-41 0 -99.5 -76.5t-73.5 -76.5q-20 0 -20 20q0 56 76 152q111 141 234 141q98 0 98 -131q0 -56 -23 -139l-101 -365q-33 -119 -33 -161q0 -39 39 -39q64 0 195 132q172 174 271 382q46 97 91 242q6 19 25 51q20 18 86 18t66 -39
q0 -9 -9 -43q-51 -178 -103 -355q-69 -249 -69 -343q0 -41 36 -41q56 0 122 77.5t77 77.5q20 0 20 -22z" />
    <glyph glyph-name="ucircumflex" unicode="&#xfb;" horiz-adv-x="1234" 
d="M1052 1152q0 -29 -35 -29q-31 0 -54 53q-25 76 -83 225l-2 5q-6 13 -16 13q-27 0 -95 -83q-53 -64 -79 -108q-16 -29 -32 -57q-24 -33 -52 -33t-28 15q0 72 164 244t235 172q30 0 40 -49q3 -13 8 -119q4 -77 19 -172q10 -67 10 -77zM1227 262q0 -67 -99 -158
q-138 -127 -268 -127q-83 0 -83 105t63 315q3 9 6 27q-6 -4 -70 -84q-87 -109 -221 -219q-170 -139 -265 -139q-99 0 -99 130q0 99 47 261q41 130 82 259q29 99 29 132q0 36 -27 36q-41 0 -99.5 -76.5t-73.5 -76.5q-20 0 -20 20q0 56 76 152q111 141 234 141q98 0 98 -131
q0 -56 -23 -139l-101 -365q-33 -119 -33 -161q0 -39 39 -39q64 0 195 132q172 174 271 382q46 97 91 242q6 19 25 51q20 18 86 18t66 -39q0 -9 -9 -43q-51 -178 -103 -355q-69 -249 -69 -343q0 -41 36 -41q56 0 122 77.5t77 77.5q20 0 20 -22z" />
    <glyph glyph-name="udieresis" unicode="&#xfc;" horiz-adv-x="1234" 
d="M1204 1389q0 -46 -34 -79.5t-80 -33.5q-47 0 -81 33.5t-34 79.5t34.5 80.5t80.5 34.5t80 -34.5t34 -80.5zM711 1389q0 -46 -34 -79.5t-80 -33.5t-80 33.5t-34 79.5t34 80.5t80 34.5t80 -34.5t34 -80.5zM1227 262q0 -67 -99 -158q-138 -127 -268 -127q-83 0 -83 105
t63 315q3 9 6 27q-6 -4 -70 -84q-87 -109 -221 -219q-170 -139 -265 -139q-99 0 -99 130q0 99 47 261q41 130 82 259q29 99 29 132q0 36 -27 36q-41 0 -99.5 -76.5t-73.5 -76.5q-20 0 -20 20q0 56 76 152q111 141 234 141q98 0 98 -131q0 -56 -23 -139l-101 -365
q-33 -119 -33 -161q0 -39 39 -39q64 0 195 132q172 174 271 382q46 97 91 242q6 19 25 51q20 18 86 18t66 -39q0 -9 -9 -43q-51 -178 -103 -355q-69 -249 -69 -343q0 -41 36 -41q56 0 122 77.5t77 77.5q20 0 20 -22z" />
    <glyph glyph-name="yacute" unicode="&#xfd;" horiz-adv-x="969" 
d="M848 1527q0 -21 -8 -39l-144 -322q-19 -43 -48 -43t-29 50q0 15 3 32l55 314q15 87 82 87q89 0 89 -79zM946 844q0 -83 -71 -251q-57 -123 -113 -247q-136 -307 -242 -466q-196 -292 -390 -292q-50 0 -89 27q-45 30 -45 78q0 40 23.5 69t62.5 29q31 0 82.5 -31.5
t82.5 -31.5q84 0 183 123q97 118 97 204q0 122 -100 400q-111 309 -201 309q-54 0 -89.5 -77.5t-47.5 -77.5q-21 0 -21 36q0 99 60 196q68 109 161 109q115 0 234 -250q88 -187 122 -357q14 -73 26 -73q20 0 72 147q72 204 72 285q0 31 -21 84t-21 80q0 36 26.5 62.5
t62.5 26.5q84 0 84 -111z" />
    <glyph glyph-name="thorn" unicode="&#xfe;" horiz-adv-x="1078" 
d="M1155 659q0 -255 -207 -461.5t-462 -206.5q-17 0 -51 1.5t-51 1.5q-29 0 -42 -62q-13 -51 -25 -101q-15 -61 -15 -103q0 -59 90 -74.5t90 -37.5q0 -31 -50 -31q-35 0 -105.5 6t-105.5 6q-32 0 -94.5 -5t-94.5 -5q-49 0 -49 23q0 26 48 40q58 17 77 47q13 20 31 104
l204 947q9 42 9 56q0 18 -8 18q-25 0 -71 -18.5t-71 -18.5q-19 0 -19 15q0 35 82 61q98 32 110 44q3 3 6 12l108 485q14 63 14 74q0 39 -88.5 40.5t-88.5 24.5q0 25 66 33q29 15 110 19q58 4 117 7q55 7 56 7q26 0 26 -24q0 -12 -4 -30l-115 -518q-10 -45 -10 -70t19 -25
q30 0 92 7t93 7q159 0 260 -66q119 -79 119 -229zM950 618q0 259 -307 259q-96 0 -106 -46l-141 -653q-11 -51 -11 -71q0 -57 106 -57q92 0 201 79q117 85 187 214q71 133 71 275z" />
    <glyph glyph-name="ydieresis" unicode="&#xff;" horiz-adv-x="969" 
d="M1004 1389q0 -46 -34 -79.5t-80 -33.5q-47 0 -81 33.5t-34 79.5t34.5 80.5t80.5 34.5t80 -34.5t34 -80.5zM511 1389q0 -46 -34 -79.5t-80 -33.5t-80 33.5t-34 79.5t34 80.5t80 34.5t80 -34.5t34 -80.5zM946 844q0 -83 -71 -251q-57 -123 -113 -247q-136 -307 -242 -466
q-196 -292 -390 -292q-50 0 -89 27q-45 30 -45 78q0 40 23.5 69t62.5 29q31 0 82.5 -31.5t82.5 -31.5q84 0 183 123q97 118 97 204q0 122 -100 400q-111 309 -201 309q-54 0 -89.5 -77.5t-47.5 -77.5q-21 0 -21 36q0 99 60 196q68 109 161 109q115 0 234 -250
q88 -187 122 -357q14 -73 26 -73q20 0 72 147q72 204 72 285q0 31 -21 84t-21 80q0 36 26.5 62.5t62.5 26.5q84 0 84 -111z" />
    <glyph glyph-name="Iogonek" unicode="&#x12e;" horiz-adv-x="706" 
d="M572 -228q0 -32 -75 -60q-63 -23 -104 -23q-120 0 -120 104q0 106 182 206h69q-138 -85 -138 -166q0 -70 84 -70q16 0 46 10.5t46 10.5q10 0 10 -12zM757 1339q0 -15 -50 -34q-57 -22 -76 -53q-11 -18 -28 -100l-197 -936q-10 -48 -10 -67q0 -54 37 -80q19 -12 69 -25
q37 -10 37 -25q0 -24 -37 -24q-32 0 -95 6t-94 6q-71 0 -150 -9q-27 -3 -40 -3q-34 0 -34 15q0 12 34 31q43 25 46 28q59 52 75 130l197 936q11 52 11 80q0 52 -35 74q-15 10 -64 22q-35 8 -35 26q0 24 37 24q7 0 46 -5q47 -6 125 -6q33 0 99 5.5t99 5.5t33 -22z" />
    <glyph glyph-name="obreve" unicode="&#x14f;" horiz-adv-x="1115" 
d="M1200 1523q0 -14 -19 -37q-9 -11 -32 -33q-185 -177 -420 -177q-114 0 -213 50q-119 61 -119 162q0 67 62 67q17 0 51 -29q23 -22 46 -43q87 -73 203 -73q74 0 174 42q26 11 164 81q44 22 55 22q48 0 48 -32zM1041 615q0 -243 -165 -438q-173 -205 -412 -205
q-153 0 -251.5 102t-98.5 256q0 242 169 433q175 198 414 198q152 0 248 -97t96 -249zM850 661q0 237 -172 237q-175 0 -282 -225q-88 -183 -88 -380q0 -252 179 -252q171 0 277 235q86 189 86 385z" />
    <glyph glyph-name="Odblacute" unicode="&#x150;" horiz-adv-x="1485" 
d="M1328 1817q0 -21 -8 -39l-144 -322q-19 -43 -48 -43t-29 50q0 15 3 32l55 314q15 87 82 87q89 0 89 -79zM1028 1817q0 -21 -8 -39l-144 -322q-19 -43 -48 -43t-29 50q0 15 3 32l55 314q15 87 82 87q89 0 89 -79zM1454 802q0 -330 -213 -579q-211 -245 -529 -245
q-255 0 -397 150q-139 147 -139 403q0 323 215 579q227 269 544 269q234 0 381 -174q138 -164 138 -403zM1282 844q0 315 -214 430q-83 45 -175 45q-138 0 -268 -110t-207 -311q-71 -185 -71 -371q0 -197 91 -332q104 -154 293 -154q256 0 416 285q135 241 135 518z" />
    <glyph glyph-name="OE" unicode="&#x152;" horiz-adv-x="1928" 
d="M2027 1334q0 22 -14 -109q-1 -47 -9 -138q-5 -32 -25 -32q-18 0 -26 67q-11 79 -32 103q-43 48 -311 48q-110 0 -150 -12t-55 -85l-80 -378q-6 -29 -6 -33q0 -23 28 -23h245q76 0 120 40q25 23 49 75q19 40 34 40q16 0 16 -20q0 -21 -18 -83q-30 -103 -44 -215
q-3 -37 -17 -94q-8 -17 -22 -17q-17 0 -17 76q0 110 -133 110h-204q-39 0 -52 -9t-21 -46l-86 -413q-5 -24 -5 -38q0 -63 130 -63q300 0 464 128q38 29 65 62.5t40 33.5q18 0 18 -21q0 -50 -64 -150q-57 -87 -110.5 -117t-156.5 -30q-56 0 -169.5 9t-170.5 9
q-44 0 -132 -6.5t-133 -6.5q-16 0 -48.5 7t-49.5 7q-3 0 -16 -4q-90 -28 -167 -28q-245 0 -383 159q-132 151 -132 399q0 313 213 571q225 272 532 272q86 0 205.5 -13t326.5 -13q31 0 93 -1t93 -1q75 0 222 7q125 6 115 6q50 0 50 -30zM1224 1088q0 108 -104 174
q-90 57 -204 57q-259 0 -425 -277q-143 -239 -143 -516q0 -198 92 -332q106 -154 296 -154q195 0 265 117q12 19 25 66q23 35 97 350q63 268 85 389q16 86 16 126z" />
    <glyph glyph-name="oe" unicode="&#x153;" horiz-adv-x="1645" 
d="M1640 797q0 -111 -143 -210q-159 -110 -381 -145q-43 -5 -97 -19q-37 -27 -37 -94q0 -101 86 -171q82 -66 185 -66q114 0 303 121q17 0 17 -18q0 -52 -136 -131q-158 -92 -307 -92q-219 0 -298 158q-162 -158 -368 -158q-153 0 -251.5 102t-98.5 256q0 242 169 433
q175 198 414 198q233 0 316 -202q197 202 406 202q87 0 148 -38q73 -44 73 -126zM1470 803q0 91 -107 91q-97 0 -229 -130.5t-132 -226.5q0 -27 51 -27q91 0 219 63q198 98 198 230zM850 661q0 237 -172 237q-175 0 -282 -225q-88 -183 -88 -380q0 -252 179 -252
q171 0 277 235q86 189 86 385z" />
    <glyph glyph-name="Scaron" unicode="&#x160;" horiz-adv-x="862" 
d="M1052 1865q0 -72 -163.5 -243.5t-234.5 -171.5q-31 0 -41 49q-2 6 -7 119q-4 66 -20 171q-10 67 -10 78q0 29 35 29q31 0 54 -53q25 -77 84 -226l2 -5q6 -12 16 -12q27 0 95 83q52 64 78 108q12 24 41 67q20 23 43 23q28 0 28 -16zM924 1328q0 6 -10 -82q-2 -18 -2 -195
q0 -44 -26 -44q-17 0 -27 39q-27 104 -91 182q-77 94 -172 94q-81 0 -131 -64q-47 -58 -47 -141q0 -119 108 -249q101 -112 201 -224q108 -138 108 -275q0 -173 -141 -286q-131 -106 -308 -106q-183 0 -238 41q-43 31 -43 170q0 149 39 149q12 0 20 -22q10 -34 36 -99
q81 -176 231 -176q107 0 181.5 71.5t74.5 178.5q0 93 -93 204l-192 227q-128 152 -128 307q0 150 95 250.5t244 100.5q68 0 186 -45q36 -14 44 -14q14 0 33.5 15.5t29.5 15.5q18 0 18 -23z" />
    <glyph glyph-name="scaron" unicode="&#x161;" horiz-adv-x="818" 
d="M952 1538q0 -72 -163.5 -243.5t-234.5 -171.5q-31 0 -41 49q-2 6 -7 119q-4 66 -20 171q-10 67 -10 78q0 29 35 29q31 0 54 -53q25 -77 84 -226l2 -5q6 -12 16 -12q27 0 95 83q52 64 78 108q12 24 41 67q20 23 43 23q28 0 28 -16zM780 844q0 -38 -25 -64t-63 -26
q-42 0 -87 72.5t-109 72.5q-49 0 -81.5 -34.5t-32.5 -83.5q0 -64 84 -148q77 -75 155 -151q84 -95 84 -185q0 -146 -127 -240q-116 -85 -267 -85q-91 0 -170 33q-104 43 -104 120q0 98 92 98q52 0 99.5 -93.5t118.5 -93.5q72 0 126.5 44.5t54.5 114.5q0 80 -80 162l-150 142
q-80 88 -80 182q0 137 110 213q96 67 239 67q213 0 213 -117z" />
    <glyph glyph-name="Ydieresis" unicode="&#x178;" horiz-adv-x="1268" 
d="M1244 1639q0 -46 -34 -79.5t-80 -33.5q-47 0 -81 33.5t-34 79.5t34.5 80.5t80.5 34.5t80 -34.5t34 -80.5zM751 1639q0 -46 -34 -79.5t-80 -33.5t-80 33.5t-34 79.5t34 80.5t80 34.5t80 -34.5t34 -80.5zM1359 1341q0 -17 -34 -30q-51 -19 -86 -53q-15 -15 -111 -144
q-210 -286 -311 -432q-23 -28 -58 -90q-11 -27 -22 -79l-62 -295q-8 -43 -8 -69q0 -56 38 -81q19 -11 72 -22q39 -9 39 -25q0 -26 -36 -26q-33 0 -99.5 6t-99.5 6q-66 0 -152 -9q-28 -3 -34 -3q-32 0 -32 21q0 14 50 35q57 24 72 46t31 94l67 323q8 38 8 48q0 19 -28 99
l-180 512q-28 81 -60 113q-8 8 -53 27q-38 15 -38 26q0 22 34 22q8 0 32 -3q64 -8 142 -8q35 0 105 5.5t105 5.5q28 0 28 -23q0 -16 -60.5 -31.5t-60.5 -72.5q0 -40 18 -96l130 -403q16 -50 26 -50q3 0 112 144q72 92 202 286q57 98 57 131q0 47 -62.5 59.5t-62.5 27.5
q0 28 35 28q27 0 81 -5.5t81 -5.5t81 5.5t81 5.5q23 0 23 -20z" />
    <glyph glyph-name="zacute" unicode="&#x17a;" horiz-adv-x="1129" 
d="M948 1527q0 -21 -8 -39l-144 -322q-19 -43 -48 -43t-29 50q0 15 3 32l55 314q15 87 82 87q89 0 89 -79zM1023 914q0 -33 -62 -97q-125 -126 -375 -379q-70 -69 -205 -212l-6 -7q0 -6 26 -18q79 -37 131 -103q47 -59 100 -173q50 -106 95 -106q39 0 70.5 62.5t67.5 62.5
q50 0 50 -50q0 -63 -83 -106q-69 -36 -139 -36q-94 0 -188 82q-19 17 -141 151q-74 82 -120 82q-31 0 -69.5 -44.5t-63.5 -44.5q-34 0 -34 27q0 22 112 128q11 11 200 202q108 106 316 325q-40 5 -107 17q-33 8 -121 65q-81 51 -115 51q-36 0 -61 -28.5t-25 -65.5
q0 -23 20.5 -54t20.5 -43q0 -22 -27 -22q-35 0 -61 56q-22 48 -22 88q0 92 63 161.5t154 69.5q67 0 202 -74t205 -74q45 0 80.5 72.5t70.5 72.5q41 0 41 -38z" />
    <glyph glyph-name="Zcaron" unicode="&#x17d;" horiz-adv-x="1091" 
d="M1192 1865q0 -72 -163.5 -243.5t-234.5 -171.5q-31 0 -41 49q-2 6 -7 119q-4 66 -20 171q-10 67 -10 78q0 29 35 29q31 0 54 -53q25 -77 84 -226l2 -5q6 -12 16 -12q27 0 95 83q52 64 78 108q12 24 41 67q20 23 43 23q28 0 28 -16zM1169 1330q0 -22 -271 -372
q-188 -241 -553 -730q-33 -45 -33 -51q0 -23 89 -23q20 0 59 1.5t59 1.5q50 0 151 -2t151 -2q49 0 93 15q61 20 61 58q0 20 -36.5 36t-36.5 51q0 32 22.5 54t53.5 22q71 0 71 -91q0 -78 -59 -155q-52 -68 -126.5 -110.5t-188.5 -42.5q-57 0 -170.5 10.5t-170.5 10.5
q-36 0 -106 -8t-105 -8q-33 0 -33 21q0 12 35 53q38 49 115 148q117 141 347 428q55 70 198 274q165 233 165 252q0 43 -193 43q-73 0 -107 -5q-125 -18 -222 -67q-132 -68 -132 -168q0 -38 23 -64t23 -35q0 -21 -35 -21q-64 0 -64 114q0 123 78 231.5t194 146.5
q57 18 133 18q63 0 187.5 -13t187.5 -13q21 0 61.5 6t60.5 6q24 0 24 -20z" />
    <glyph glyph-name="zcaron" unicode="&#x17e;" horiz-adv-x="1129" 
d="M1102 1538q0 -72 -163.5 -243.5t-234.5 -171.5q-31 0 -41 49q-2 6 -7 119q-4 66 -20 171q-10 67 -10 78q0 29 35 29q31 0 54 -53q25 -77 84 -226l2 -5q6 -12 16 -12q27 0 95 83q52 64 78 108q12 24 41 67q20 23 43 23q28 0 28 -16zM1023 914q0 -33 -62 -97
q-125 -126 -375 -379q-70 -69 -205 -212l-6 -7q0 -6 26 -18q79 -37 131 -103q47 -59 100 -173q50 -106 95 -106q39 0 70.5 62.5t67.5 62.5q50 0 50 -50q0 -63 -83 -106q-69 -36 -139 -36q-94 0 -188 82q-19 17 -141 151q-74 82 -120 82q-31 0 -69.5 -44.5t-63.5 -44.5
q-34 0 -34 27q0 22 112 128q11 11 200 202q108 106 316 325q-40 5 -107 17q-33 8 -121 65q-81 51 -115 51q-36 0 -61 -28.5t-25 -65.5q0 -23 20.5 -54t20.5 -43q0 -22 -27 -22q-35 0 -61 56q-22 48 -22 88q0 92 63 161.5t154 69.5q67 0 202 -74t205 -74q45 0 80.5 72.5
t70.5 72.5q41 0 41 -38z" />
    <glyph glyph-name="florin" unicode="&#x192;" horiz-adv-x="807" 
d="M1036 1535q0 -40 -15 -97q-19 -74 -45 -74q-16 0 -50 57t-90 57q-76 0 -133 -124q-63 -136 -116 -352q-10 -40 -10 -52q0 -9 56 -9h154q38 0 38 -24q0 -64 -68 -64h-182q-17 0 -43 -119l-152 -696q-38 -175 -101 -265q-78 -113 -229 -162q-46 -15 -89 -15q-83 0 -83 44
q0 32 32 100q34 75 60 75q14 0 29 -62t59 -62q55 0 88 99q6 17 34 146l181 831q17 78 17 83q-2 4 -9 5q-19 3 -138 3q-55 0 -55 28q0 46 95 50q110 5 116 10q33 78 80 185q212 452 475 452q94 0 94 -48z" />
    <glyph glyph-name="turnedcomma" unicode="&#x2bb;" horiz-adv-x="655" 
d="M655 1536q0 -10 -25 -30q-47 -38 -94 -75q-50 -50 -50 -104q0 -33 27 -33q9 0 26.5 7.5t27.5 7.5q27 0 46 -27.5t19 -57.5q0 -40 -30 -70.5t-71 -30.5q-61 0 -101.5 46t-40.5 109q0 89 70 167q61 69 153 108q16 7 23 7q20 0 20 -24z" />
    <glyph glyph-name="etadasiavaria" unicode="&#x1f23;" horiz-adv-x="1074" 
d="M1000 1204q0 -67 -33 -67q-44 0 -59 56l-127 478q-5 19 -5 36q0 99 86 99q43 0 72 -34.5t32 -80.5l34 -472v-15zM675 1546q0 -39 -23 -71q-24 -36 -60 -36q-16 0 -41 16.5t-37 16.5q-46 0 -46 -62q0 -59 44 -123q8 -10 86 -102q23 -27 23 -38q0 -24 -21 -24q-10 0 -22 8
q-204 133 -204 323q0 83 45 143q50 66 129 66q52 0 89.5 -33t37.5 -84zM1074 639q0 -66 -13 -127l-189 -884q-15 -69 -30 -89q-23 -29 -85 -29q-59 0 -59 54q0 21 11 72l182 850q18 85 18 176q0 155 -129 155q-118 0 -204 -106q-68 -84 -91 -192l-92 -431q-15 -69 -30 -89
q-23 -29 -85 -29q-59 0 -59 54q0 21 11 72l109 512q12 54 12 110q0 76 -47 76q-43 0 -89 -69t-57 -69q-23 0 -23 23q0 76 91.5 174t166.5 98q96 0 96 -141q0 -17 -5 -69q89 106 158 150q92 60 208 60q118 0 177 -102q47 -83 47 -210z" />
    <glyph glyph-name="etapsilioxia" unicode="&#x1f24;" horiz-adv-x="1074" 
d="M1181 1712q0 -26 -9 -50l-176 -462q-19 -50 -60 -50q-30 0 -30 55q0 20 2 31l83 466q7 42 34 71q30 33 69 33q87 0 87 -94zM808 1461q0 -108 -84 -201q-73 -81 -185 -129q-19 -8 -26 -8q-20 0 -20 24q0 12 30 35q106 83 115 92q62 61 62 127q0 46 -38 46q-13 0 -34 -9.5
t-32 -9.5q-30 0 -53 34q-21 31 -21 65q0 48 35 83t83 35q72 0 120 -55t48 -129zM1074 639q0 -66 -13 -127l-189 -884q-15 -69 -30 -89q-23 -29 -85 -29q-59 0 -59 54q0 21 11 72l182 850q18 85 18 176q0 155 -129 155q-118 0 -204 -106q-68 -84 -91 -192l-92 -431
q-15 -69 -30 -89q-23 -29 -85 -29q-59 0 -59 54q0 21 11 72l109 512q12 54 12 110q0 76 -47 76q-43 0 -89 -69t-57 -69q-23 0 -23 23q0 76 91.5 174t166.5 98q96 0 96 -141q0 -17 -5 -69q89 106 158 150q92 60 208 60q118 0 177 -102q47 -83 47 -210z" />
    <glyph glyph-name="iotadasiaoxia" unicode="&#x1f35;" horiz-adv-x="636" 
d="M819 1712q0 -27 -9 -50l-177 -462q-19 -50 -60 -50q-30 0 -30 55q0 20 2 31l83 466q7 41 36 72.5t68 31.5q87 0 87 -94zM456 1546q0 -41 -27 -74q-29 -36 -68 -36q-20 0 -44 22l-10 9q-18 16 -32 16q-50 0 -50 -86q0 -59 90 -213q16 -27 16 -36q0 -25 -26 -25q-7 0 -14 7
l-4 4q-151 151 -151 311q0 85 50 151q55 71 136 71q55 0 94.5 -34t39.5 -87zM684 222q0 -49 -100 -131q-148 -121 -272 -121q-70 0 -108 57q-32 49 -32 123q0 58 21 157l113 526q15 69 30 89q23 29 85 29q59 0 59 -54q0 -21 -11 -72l-111 -516q-12 -58 -12 -95q0 -40 21 -68
q22 -31 60 -31q64 0 145.5 63t91.5 63q20 0 20 -19z" />
    <glyph glyph-name="iotapsiliperispomeni" unicode="&#x1f36;" horiz-adv-x="636" 
d="M830 1600q0 -72 -66 -72q-11 0 -87 71q-80 74 -174 74q-63 0 -152 -43q-13 -6 -143 -80q-39 -22 -50 -22q-48 0 -48 29q0 25 46 73q169 176 375 176q106 0 195 -50q104 -60 104 -156zM615 1386q0 -168 -206 -255q-19 -8 -26 -8q-20 0 -20 25q0 9 24 29l86 66q52 45 52 86
q0 40 -38 40q-11 0 -28.5 -8t-26.5 -8q-28 0 -48 29t-20 60q0 42 31.5 74t73.5 32q63 0 106 -50q40 -47 40 -112zM648 222q0 -49 -100 -131q-148 -121 -272 -121q-70 0 -108 57q-32 49 -32 123q0 58 21 157l113 526q15 69 30 89q23 29 85 29q59 0 59 -54q0 -21 -11 -72
l-111 -516q-12 -58 -12 -95q0 -40 21 -68q22 -31 60 -31q64 0 145.5 63t91.5 63q20 0 20 -19z" />
    <glyph glyph-name="iotadasiaperispomeni" unicode="&#x1f37;" horiz-adv-x="636" 
d="M830 1600q0 -72 -66 -72q-11 0 -87 71q-80 74 -174 74q-63 0 -152 -43q-13 -6 -143 -80q-39 -22 -50 -22q-48 0 -48 29q0 25 46 73q169 176 375 176q106 0 195 -50q104 -60 104 -156zM612 1449q0 -37 -26.5 -68t-61.5 -31q-19 0 -39 20l-8 8q-15 15 -29 15q-44 0 -44 -52
q0 -39 25 -85l46 -76q13 -22 13 -31q0 -26 -26 -26q-6 0 -18 12l-6 6q-108 108 -108 222q0 76 45 134q48 62 120 62q49 0 83 -31t34 -79zM648 222q0 -49 -100 -131q-148 -121 -272 -121q-70 0 -108 57q-32 49 -32 123q0 58 21 157l113 526q15 69 30 89q23 29 85 29
q59 0 59 -54q0 -21 -11 -72l-111 -516q-12 -58 -12 -95q0 -40 21 -68q22 -31 60 -31q64 0 145.5 63t91.5 63q20 0 20 -19z" />
    <glyph glyph-name="Iotapsili" unicode="&#x1f38;" horiz-adv-x="928" 
d="M314 1201q0 -107 -83 -201q-74 -83 -186 -130q-19 -8 -26 -8q-19 0 -19 24q0 10 28 33q23 16 71 53q107 84 107 169q0 45 -38 45q-12 0 -33.5 -9.5t-31.5 -9.5q-30 0 -52.5 32t-22.5 66q0 48 35 83.5t83 35.5q72 0 120 -54.5t48 -128.5zM983 1323q0 -27 -38 -33
q-30 -2 -59 -5q-94 -19 -120 -142l-200 -943q-4 -19 -4 -39q0 -90 64 -103q24 -2 49 -4q33 -4 33 -22q0 -32 -29 -32h-470q-19 0 -19 20q0 27 38 33q30 2 59 5q94 19 120 142l200 943q4 19 4 39q0 90 -64 103q-24 2 -49 3q-34 4 -34 23q0 32 30 32h470q19 0 19 -20z" />
    <glyph glyph-name="Iotadasia" unicode="&#x1f39;" horiz-adv-x="938" 
d="M319 1263q0 -41 -28.5 -76t-66.5 -35q-20 0 -45.5 24t-40.5 24q-51 0 -51 -86q0 -51 33 -116l62 -106q11 -20 11 -27q0 -25 -25 -25q-7 0 -18 11q-150 146 -150 311q0 85 50 151q54 71 135 71q55 0 94.5 -34t39.5 -87zM993 1323q0 -27 -38 -33q-30 -2 -59 -5
q-94 -19 -120 -142l-200 -943q-4 -19 -4 -39q0 -90 64 -103q24 -2 49 -4q33 -4 33 -22q0 -32 -29 -32h-470q-19 0 -19 20q0 27 38 33q30 2 59 5q94 19 120 142l200 943q4 19 4 39q0 90 -64 103q-24 2 -49 3q-34 4 -34 23q0 32 30 32h470q19 0 19 -20z" />
    <glyph glyph-name="Iotapsilivaria" unicode="&#x1f3a;" horiz-adv-x="1257" 
d="M618 782q0 -67 -33 -67q-43 0 -58 56l-128 478q-5 19 -5 36q0 99 87 99q43 0 73 -36q27 -33 30 -79l34 -472v-15zM298 1042q0 -177 -212 -328l-7 -5q-11 -8 -22 -8q-17 0 -17 24q0 8 79 96q82 92 82 162q0 64 -39 64q-16 0 -40 -15.5t-38 -15.5q-33 0 -60 35
q-24 32 -24 68q0 52 36.5 86.5t88.5 34.5q77 0 125 -59.5t48 -138.5zM1312 1323q0 -27 -38 -33q-30 -2 -59 -5q-94 -19 -120 -142l-200 -943q-4 -19 -4 -39q0 -90 64 -103q24 -2 49 -4q33 -4 33 -22q0 -32 -29 -32h-470q-19 0 -19 20q0 27 38 33q30 2 59 5q94 19 120 142
l200 943q4 19 4 39q0 90 -64 103q-24 2 -49 3q-34 4 -34 23q0 32 30 32h470q19 0 19 -20z" />
    <glyph glyph-name="endash" unicode="&#x2013;" horiz-adv-x="1024" 
d="M959 517q0 -79 -99 -79h-696q-49 0 -49 34q0 84 94 84h704q46 0 46 -39z" />
    <glyph glyph-name="emdash" unicode="&#x2014;" horiz-adv-x="2048" 
d="M1983 517q0 -79 -99 -79h-1720q-49 0 -49 34q0 84 94 84h1728q46 0 46 -39z" />
    <glyph glyph-name="quoteleft" unicode="&#x2018;" horiz-adv-x="498" 
d="M534 1379q0 -4 -47 -44q-55 -48 -86 -90q-46 -64 -46 -124q0 -50 36.5 -89.5t36.5 -46.5q0 -21 -48 -90q-52 -72 -77 -72q-17 0 -39 18q-64 52 -64 158q0 181 182 327q95 77 123 77q29 0 29 -24z" />
    <glyph glyph-name="quoteright" unicode="&#x2019;" horiz-adv-x="498" 
d="M534 1227q0 -181 -182 -327q-95 -77 -123 -77q-29 0 -29 24q0 4 46 44q56 48 86 90q47 64 47 124q0 50 -37 89.5t-37 46.5q0 22 49 90q51 72 76 72q18 0 40 -18q64 -52 64 -158z" />
    <glyph glyph-name="quotesinglbase" unicode="&#x201a;" horiz-adv-x="676" 
d="M534 27q0 -181 -182 -327q-95 -77 -123 -77q-29 0 -29 24q0 4 46 44q56 48 86 90q47 64 47 124q0 50 -37 89.5t-37 46.5q0 22 49 90q51 72 76 72q18 0 40 -18q64 -52 64 -158z" />
    <glyph glyph-name="quotedblleft" unicode="&#x201c;" horiz-adv-x="872" 
d="M934 1379q0 -4 -47 -44q-55 -48 -86 -90q-46 -64 -46 -124q0 -50 36.5 -89.5t36.5 -46.5q0 -21 -48 -90q-52 -72 -77 -72q-17 0 -39 18q-64 52 -64 158q0 181 182 327q95 77 123 77q29 0 29 -24zM534 1379q0 -4 -47 -44q-55 -48 -86 -90q-46 -64 -46 -124
q0 -50 36.5 -89.5t36.5 -46.5q0 -21 -48 -90q-52 -72 -77 -72q-17 0 -39 18q-64 52 -64 158q0 181 182 327q95 77 123 77q29 0 29 -24z" />
    <glyph glyph-name="quotedblright" unicode="&#x201d;" horiz-adv-x="872" 
d="M934 1227q0 -181 -182 -327q-95 -77 -123 -77q-29 0 -29 24q0 4 46 44q56 48 86 90q47 64 47 124q0 50 -37 89.5t-37 46.5q0 22 49 90q51 72 76 72q18 0 40 -18q64 -52 64 -158zM534 1227q0 -181 -182 -327q-95 -77 -123 -77q-29 0 -29 24q0 4 46 44q56 48 86 90
q47 64 47 124q0 50 -37 89.5t-37 46.5q0 22 49 90q51 72 76 72q18 0 40 -18q64 -52 64 -158z" />
    <glyph glyph-name="quotedblbase" unicode="&#x201e;" horiz-adv-x="1076" 
d="M934 27q0 -181 -182 -327q-95 -77 -123 -77q-29 0 -29 24q0 4 46 44q56 48 86 90q47 64 47 124q0 50 -37 89.5t-37 46.5q0 22 49 90q51 72 76 72q18 0 40 -18q64 -52 64 -158zM534 27q0 -181 -182 -327q-95 -77 -123 -77q-29 0 -29 24q0 4 46 44q56 48 86 90
q47 64 47 124q0 50 -37 89.5t-37 46.5q0 22 49 90q51 72 76 72q18 0 40 -18q64 -52 64 -158z" />
    <glyph glyph-name="dagger" unicode="&#x2020;" horiz-adv-x="1038" 
d="M1092 954q0 -49 -22 -88q-27 -47 -72 -47q-39 0 -133.5 31.5t-128.5 31.5q-24 0 -24 -89q0 -22 6 -63.5t6 -58.5q0 -62 -40 -173q-34 -85 -67 -170q-46 -118 -92 -327q-10 -52 -35 -154q-22 -67 -40 -67q-27 0 -27 19q0 10 17 84q44 189 64 295q2 13 8 87.5t16 221.5
q6 77 6 100q0 6 11 27q73 137 109 240q5 15 5 12q0 14 -18 14q-34 0 -135.5 -30.5t-147.5 -30.5q-52 0 -52 53q0 51 24 90q28 45 75 45q40 0 118 -23q99 -30 120 -34q15 -3 16 -3q18 0 18 39l1 231q1 156 125 156q78 0 78 -54q0 -37 -29 -104q-109 -255 -109 -252
q0 -14 18 -14q31 0 130 29t144 29q57 0 57 -53z" />
    <glyph glyph-name="daggerdbl" unicode="&#x2021;" horiz-adv-x="1043" 
d="M1093 954q0 -49 -23 -88q-27 -47 -72 -47q-43 0 -131 31.5t-131 31.5q-23 0 -23 -90q0 -24 5 -71t5 -70q0 -77 -27 -129q-38 -72 -102 -224q-5 -15 -5 -12q0 -13 16 -13q37 0 137.5 31t148.5 31q51 0 51 -54q0 -51 -24 -89q-27 -46 -75 -46q-35 0 -117 24
q-106 30 -121.5 33.5t-14.5 3.5q-19 0 -19 -39t-1 -117t-1 -118q0 -153 -124 -153q-78 0 -78 53q0 39 28 105q111 257 111 255q0 12 -16 12q-35 0 -133 -29.5t-144 -29.5q-57 0 -57 54q0 48 22 88q26 47 71 47q26 0 66 -11q189 -52 197 -52q23 0 23 89q0 23 -5 70t-5 71
q0 59 17 108q6 18 65 133q53 102 53 121q0 16 -18 16q-35 0 -136.5 -30.5t-147.5 -30.5q-52 0 -52 53q0 51 24 90q28 45 75 45q35 0 117 -24q103 -30 121 -33q15 -3 16 -3q18 0 18 43q0 39 1 115.5t1 115.5q0 152 124 152q78 0 78 -55q0 -40 -58 -175l-80 -184q1 -10 18 -10
q30 0 129.5 29t144.5 29q58 0 58 -53z" />
    <glyph glyph-name="bullet" unicode="&#x2022;" horiz-adv-x="644" 
d="M623 473q0 -71 -115 -164q-106 -85 -158 -85q-71 0 -116 62q-97 135 -98 179q-1 69 100 159q98 88 168 88t148 -96q71 -88 71 -143z" />
    <glyph glyph-name="ellipsis" unicode="&#x2026;" horiz-adv-x="1481" 
d="M1370 117q0 -14 -75 -77t-89 -63q-12 0 -29 23q-73 102 -73 117q0 17 70.5 73.5t88.5 56.5q14 0 60.5 -57t46.5 -73zM866 117q0 -14 -128 -121q-23 -19 -36 -19q-12 0 -29 23q-73 102 -73 117q0 17 70.5 73.5t89.5 56.5q14 0 60 -57t46 -73zM363 117q0 -14 -74.5 -77
t-89.5 -63q-13 0 -29 23q-74 103 -74 117q0 17 71 73.5t89 56.5q14 0 60.5 -57t46.5 -73z" />
    <glyph glyph-name="perthousand" unicode="&#x2030;" horiz-adv-x="1830" 
d="M1936 392q0 -154 -104 -278q-110 -132 -261 -132q-109 0 -176 68.5t-67 177.5q0 156 107 276q111 125 265 125q104 0 170 -66t66 -171zM713 1191q0 -154 -103 -278q-109 -131 -260 -131q-110 0 -177 68.5t-67 177.5q0 156 107 276q110 125 264 125q105 0 170.5 -66.5
t65.5 -171.5zM1265 1422q0 -8 -18 -32l-1066 -1336q-37 -46 -76 -46q-37 0 -37 17q0 6 12 22l1081 1356q29 36 72 36q32 0 32 -17zM1266 392q0 -154 -104 -278q-110 -132 -261 -132q-109 0 -176 68.5t-67 177.5q0 156 107 276q111 125 265 125q104 0 170 -66t66 -171z
M1806 441q0 142 -109 142q-108 0 -180 -153q-60 -127 -60 -249q0 -149 110 -149q109 0 180 157q59 128 59 252zM583 1240q0 143 -110 143q-107 0 -178 -153q-60 -126 -60 -247q0 -151 112 -151q107 0 178 156q58 128 58 252zM1136 441q0 142 -109 142q-108 0 -180 -153
q-60 -127 -60 -249q0 -149 110 -149q109 0 180 157q59 128 59 252z" />
    <glyph glyph-name="guilsinglleft" unicode="&#x2039;" horiz-adv-x="493" 
d="M466 716q0 -15 -100.5 -153t-100.5 -174q0 -69 55 -233q9 -27 9 -36q0 -32 -35 -32q-11 0 -22 13q-6 8 -22 38q-32 65 -102 192q-28 47 -28 70v7q0 29 77 98q33 30 180 182q48 50 65 50q24 0 24 -22z" />
    <glyph glyph-name="guilsinglright" unicode="&#x203a;" horiz-adv-x="389" 
d="M409 419q0 -27 -60 -83q-90 -83 -183 -189q-15 -17 -47 -48q-14 -11 -25 -11q-24 0 -24 24q0 13 96.5 147t96.5 167q0 54 -54 247q-6 22 -6 31q0 34 34 34q17 0 57 -87q2 -4 66 -120q49 -90 49 -112z" />
    <glyph glyph-name="reversedsemicolon" unicode="&#x204f;" horiz-adv-x="463" 
d="M451 691q0 -12 -74 -76t-91 -64q-13 0 -58 65q-43 61 -43 71q0 19 31 45q105 89 129 89q13 0 59.5 -57.5t46.5 -72.5zM310 60q0 -22 -36 -37q-51 -20 -67 -34q-36 -33 -36 -98q0 -61 46 -151.5t46 -99.5q0 -13 -13 -13q-41 0 -109 120q-72 127 -72 247q0 60 20 113
q15 41 55 87q48 53 83 53q33 0 60 -79q23 -67 23 -108z" />
    <glyph glyph-name="parenrightsuperior" unicode="&#x207e;" horiz-adv-x="490" 
d="M620 1252q0 -296 -264 -547q-68 -65 -98 -65q-24 0 -24 22q0 14 33 44q60 54 118 153q128 219 128 494q0 150 -58 264q-6 12 -6 20q0 23 25 23q34 0 75 -89q71 -153 71 -319z" />
    <glyph glyph-name="Euro" unicode="&#x20ac;" horiz-adv-x="1450" 
d="M1450 1260q0 -17 -11 -97q-3 -74 -13 -222q-4 -43 -24 -43t-31 57q-25 122 -78 191q-127 170 -315 170q-176 0 -310 -140q-116 -122 -177 -318h762q46 0 46 -44q0 -63 -63 -63h-772q-16 -81 -18 -158h680q46 0 46 -44q0 -63 -63 -63h-658q21 -179 112 -294
q106 -133 276 -133q132 0 262 94q121 87 183 212q27 53 47 53q17 0 17 -27q0 -28 -41 -112q-22 -56 -74 -143q-38 -37 -145 -87q-150 -71 -299 -71q-234 0 -369 144q-127 134 -143 364h-162q-46 0 -46 44q0 63 62 63h145q4 79 23 158h-130q-46 0 -46 44q0 63 62 63h145
q81 226 249 367q182 154 412 154q150 0 292 -82q89 -50 91 -50q9 0 28.5 17.5t31.5 17.5q16 0 16 -22z" />
    <glyph glyph-name="trademark" unicode="&#x2122;" horiz-adv-x="1897" 
d="M1991 1337q0 -18 -41 -29q-47 -13 -62 -43t-20 -71l-54 -478q-1 -8 -1 -26q0 -49 52.5 -61.5t52.5 -24.5q0 -24 -38 -24q-20 0 -60.5 3.5t-60.5 3.5t-59 -3.5t-59 -3.5q-30 0 -30 19q0 17 29 26q34 11 41 26q4 8 9 48l46 406q-5 -4 -20 -27l-295 -465q-18 -29 -33 -29
q-18 0 -29 32l-160 450l-12 30q-2 -4 -9 -30l-92 -331q-10 -36 -10 -54q0 -37 47.5 -48.5t47.5 -25.5q0 -27 -41 -27q-16 0 -47.5 3.5t-47.5 3.5q-17 0 -51 -3.5t-51 -3.5q-28 0 -28 17q0 18 35 30q41 15 53 35q6 9 37 102q68 202 94 339q12 60 12 84q0 112 -80 118h-24
q-25 0 -25 12q0 38 96 38q99 0 114 -8t26 -39l193 -545l11 5q5 6 14 19l246 390q29 48 92 138q28 35 58 35h23q14 0 42 1.5t42 1.5q27 0 27 -16zM970 1316q0 -55 -7 -115q-5 -34 -28 -34q-18 0 -24 33q-8 43 -19 55q-19 20 -73 20q-120 0 -125 -13q-3 -1 -9 -4q-1 -1 -4 -14
l-115 -521q-7 -31 -7 -46q0 -38 50.5 -48.5t50.5 -23.5q0 -25 -39 -25q-22 0 -64.5 3.5t-63.5 3.5t-61.5 -3.5t-60.5 -3.5q-33 0 -33 17t34 28q41 13 52.5 29t76.5 301q64 282 64 308q0 13 -30 13q-105 0 -122 -6q-67 -5 -98.5 -52t-43.5 -47q-22 0 -22 22q0 36 53 129
q19 33 51 33q33 0 100.5 -4t100.5 -4h186q33 0 98 4t98 4q34 0 34 -39z" />
  </font>
</defs>
</svg>
