<?xml version="1.0" encoding="UTF-8" standalone="no"?>
<svg
   xmlns:dc="http://purl.org/dc/elements/1.1/"
   xmlns:cc="http://creativecommons.org/ns#"
   xmlns:rdf="http://www.w3.org/1999/02/22-rdf-syntax-ns#"
   xmlns:svg="http://www.w3.org/2000/svg"
   xmlns="http://www.w3.org/2000/svg"
   viewBox="0 0 120 47.237499"
   height="47.237499"
   width="120"
   xml:space="preserve"
   version="1.1"
   id="svg2"><metadata
     id="metadata8"><rdf:RDF><cc:Work
         rdf:about=""><dc:format>image/svg+xml</dc:format><dc:type
           rdf:resource="http://purl.org/dc/dcmitype/StillImage" /></cc:Work></rdf:RDF></metadata><defs
     id="defs6" /><g
     transform="matrix(1.25,0,0,-1.25,0,47.2375)"
     id="g10"><g
       transform="scale(0.1,0.1)"
       id="g12"><path
         id="path14"
         style="fill:#ffffff;fill-opacity:1;fill-rule:nonzero;stroke:none"
         d="m 950.625,90.8789 c 0,-23.2812 -7.637,-42.3047 -23.398,-58.1133 C 911.484,17.0313 892.551,9.38672 869.27,9.38672 l -1.516,0 c -7.285,0 -13.066,2.19528 -17.703,6.69918 -4.563,4.5508 -6.821,10.1836 -6.821,17.3829 0,7.2929 2.29,13.0078 6.965,17.6523 4.688,4.6602 10.528,6.9141 17.871,6.9141 l 1.575,0 c 7.925,0 15.066,2.6601 21.375,7.9726 6.347,5.3711 10.078,12.1094 11.172,20.0781 l 1.894,13.5039 -13.32,-3.1367 c -6.465,-1.5312 -13.399,-2.3125 -20.625,-2.3125 -23.672,0 -42.793,7.5974 -58.516,23.2614 -15.703,15.606 -23.328,34.649 -23.328,58.215 l 0,86.903 c 0,7.238 2.195,12.988 6.656,17.48 4.446,4.512 10.141,6.641 17.297,6.641 7.481,0 13.301,-2.129 17.793,-6.512 4.414,-4.434 6.582,-10.188 6.582,-17.688 l 0,-87.089 c 0,-9.18 3.223,-17.09 9.551,-23.379 6.34,-6.328 14.219,-9.434 23.484,-9.434 9.145,0 17.239,3.242 23.34,9.512 6.145,6.289 9.231,14.16 9.231,23.301 l 0,87.089 c 0,7.258 2.293,12.989 6.867,17.461 4.59,4.512 10.301,6.739 17.586,6.739 7.129,0 12.812,-2.129 17.265,-6.641 4.512,-4.512 6.66,-10.242 6.66,-17.48 l 0,-171.6411 M 752.527,118.223 c 0,-7.188 -2.234,-12.871 -6.797,-17.344 -4.617,-4.5196 -10.41,-6.7384 -17.585,-6.7384 -7.188,0 -12.832,2.1875 -17.344,6.6994 -4.434,4.492 -6.641,10.187 -6.641,17.383 l 0,221.933 c 0,7.266 2.207,12.93 6.66,17.481 4.434,4.433 10.137,6.621 17.325,6.621 7.5,0 13.32,-2.07 17.773,-6.543 4.453,-4.317 6.602,-10.098 6.602,-17.559 l 0,-221.933 m -84.161,0 c 0,-7.188 -2.175,-12.852 -6.765,-17.344 -4.602,-4.5196 -10.383,-6.7384 -17.629,-6.7384 -7.129,0 -12.813,2.1875 -17.305,6.6794 -4.453,4.493 -6.68,10.168 -6.68,17.403 l 0,221.933 c 0,7.285 2.227,12.93 6.68,17.481 4.492,4.433 10.176,6.621 17.305,6.621 7.539,0 13.34,-2.07 17.805,-6.543 4.429,-4.317 6.582,-10.078 6.582,-17.559 l 0,-221.933 M 580.82,317.012 c -5.886,-5.918 -12.89,-8.77 -21.367,-8.77 -8.535,0 -15.527,2.852 -21.426,8.77 -5.918,5.898 -8.769,12.929 -8.769,21.457 0,8.457 2.91,15.449 8.769,21.347 5.918,5.926 12.891,8.809 21.426,8.809 8.477,0 15.449,-2.883 21.367,-8.809 5.891,-5.898 8.77,-12.89 8.77,-21.347 0,-8.528 -2.879,-15.559 -8.77,-21.457 m 3.047,-198.692 c 0,-7.226 -2.234,-12.949 -6.797,-17.441 -4.621,-4.5196 -10.398,-6.7384 -17.578,-6.7384 -7.168,0 -12.883,2.1875 -17.336,6.6994 -4.48,4.492 -6.668,10.207 -6.668,17.48 l 0,144.219 c 0,7.246 2.188,12.988 6.668,17.481 4.438,4.511 10.129,6.64 17.336,6.64 7.488,0 13.262,-2.129 17.754,-6.523 4.426,-4.414 6.602,-10.117 6.602,-17.598 l 0,-144.219 m -84.141,-0.097 c 0,-7.188 -2.207,-12.852 -6.769,-17.344 -4.637,-4.5196 -10.411,-6.7384 -17.618,-6.7384 -7.191,0 -12.84,2.1875 -17.34,6.6794 -4.468,4.493 -6.64,10.168 -6.64,17.403 l 0,221.933 c 0,7.285 2.172,12.93 6.64,17.481 4.5,4.433 10.161,6.621 17.34,6.621 7.5,0 13.293,-2.07 17.785,-6.543 4.422,-4.317 6.602,-10.078 6.602,-17.559 l 0,-221.933" /><path
         id="path16"
         style="fill:#479edd;fill-opacity:1;fill-rule:nonzero;stroke:none"
         d="m 499.434,94.2383 c -6.348,-6.2695 -14.395,-9.4727 -24.137,-9.4727 -9.688,0 -17.676,3.2032 -23.926,9.4727 -6.25,6.2697 -9.359,14.2387 -9.359,23.9767 l 0,221.941 c 0,9.766 3.109,17.774 9.359,24.063 6.25,6.269 14.238,9.406 23.926,9.406 9.957,0 18.101,-3.117 24.351,-9.238 6.27,-6.106 9.395,-14.199 9.395,-24.239 l 0,-221.933 c 0,-9.738 -3.191,-17.707 -9.609,-23.9767" /><path
         id="path18"
         style="fill:#479edd;fill-opacity:1;fill-rule:nonzero;stroke:none"
         d="m 583.633,94.2383 c -6.426,-6.2695 -14.445,-9.4727 -24.141,-9.4727 -9.726,0 -17.715,3.2032 -23.965,9.4727 -6.25,6.2697 -9.375,14.2577 -9.375,24.0817 l 0,144.219 c 0,9.746 3.118,17.766 9.375,24.063 6.27,6.289 14.239,9.406 23.965,9.406 9.922,0 18.035,-3.078 24.348,-9.219 6.226,-6.133 9.39,-14.23 9.39,-24.269 l 0,-144.219 c 0,-9.805 -3.23,-17.793 -9.597,-24.0627 m -24.18,204.6677 c -11.035,0 -20.351,3.809 -28.047,11.504 -7.695,7.695 -11.472,16.992 -11.472,28.047 0,10.938 3.789,20.313 11.472,27.969 7.696,7.637 17.012,11.504 28.047,11.504 10.996,0 20.274,-3.875 27.981,-11.504 7.683,-7.656 11.492,-17.031 11.492,-27.969 0,-11.055 -3.809,-20.352 -11.492,-28.047 -7.688,-7.695 -16.985,-11.504 -27.981,-11.504" /><path
         id="path20"
         style="fill:#479edd;fill-opacity:1;fill-rule:nonzero;stroke:none"
         d="m 668.164,94.2383 c -6.406,-6.2695 -14.453,-9.4727 -24.199,-9.4727 -9.668,0 -17.656,3.2032 -23.899,9.4727 -6.296,6.2697 -9.382,14.2387 -9.382,23.9767 l 0,221.941 c 0,9.766 3.093,17.774 9.382,24.063 6.243,6.269 14.231,9.406 23.899,9.406 9.98,0 18.113,-3.117 24.387,-9.238 6.211,-6.106 9.363,-14.199 9.363,-24.239 l 0,-221.933 c 0,-9.738 -3.164,-17.707 -9.551,-23.9767" /><path
         id="path22"
         style="fill:#479edd;fill-opacity:1;fill-rule:nonzero;stroke:none"
         d="m 752.305,94.2383 c -6.407,-6.2695 -14.461,-9.4727 -24.16,-9.4727 -9.707,0 -17.696,3.2032 -23.926,9.4727 -6.258,6.2697 -9.395,14.2387 -9.395,23.9767 l 0,221.941 c 0,9.766 3.137,17.774 9.395,24.063 6.23,6.269 14.219,9.406 23.926,9.406 9.98,0 18.093,-3.117 24.367,-9.238 6.25,-6.106 9.363,-14.199 9.363,-24.239 l 0,-221.933 c 0,-9.738 -3.191,-17.707 -9.57,-23.9767" /><path
         id="path24"
         style="fill:#479edd;fill-opacity:1;fill-rule:nonzero;stroke:none"
         d="m 892.961,87.3438 c -7.191,-1.6797 -14.836,-2.5782 -22.785,-2.5782 -26.028,0 -47.703,8.6914 -65.11,25.9964 -17.41,17.304 -26.082,38.957 -26.082,64.863 l 0,86.914 c 0,9.746 3.106,17.766 9.375,24.063 6.258,6.289 14.258,9.406 23.907,9.406 10,0 18.086,-3.078 24.367,-9.219 6.265,-6.191 9.383,-14.269 9.383,-24.348 l 0,-87.089 c 0,-6.68 2.285,-12.317 6.797,-16.797 4.511,-4.473 10.167,-6.719 16.894,-6.719 6.719,0 12.227,2.246 16.66,6.719 4.387,4.472 6.594,10.117 6.594,16.797 l 0,87.089 c 0,9.778 3.191,17.832 9.566,24.102 6.379,6.328 14.426,9.453 24.184,9.453 9.676,0 17.684,-3.125 23.914,-9.414 6.23,-6.269 9.375,-14.297 9.375,-24.043 L 960,90.8789 C 960,65.2148 951.289,43.6914 933.84,26.1719 916.426,8.78906 894.91,0 869.258,0 l -1.504,0 c -9.758,0 -17.832,3.17578 -24.219,9.46484 -6.418,6.23046 -9.629,14.30466 -9.629,24.00396 0,9.7929 3.242,17.8203 9.727,24.2734 6.433,6.418 14.629,9.6289 24.453,9.6289 l 1.57,0 c 5.696,0 10.793,1.9375 15.324,5.7266 4.551,3.875 7.208,8.6406 7.981,14.2461" /><path
         id="path26"
         style="fill:#479edd;fill-opacity:1;fill-rule:nonzero;stroke:none"
         d="m 353.539,179.141 c -26.289,-6.407 -87.355,-36.875 -106.16,-55.633 -9.066,-9.043 -13.133,-16.887 -13.16,-22.988 -0.039,-9.3091 9.109,-14.7192 24.133,-14.7192 1.55,0 3.175,0.039 4.836,0.168 26.492,1.9023 91.269,21.7342 114.41,35.7502 8.902,5.41 21.882,16.25 21.882,31.094 0,4.082 -0.949,8.457 -3.242,13.085 -5.906,11.868 -17.008,15.235 -27.621,15.235 -5.398,0 -10.687,-0.899 -15.078,-1.992" /><path
         id="path28"
         style="fill:#fad107;fill-opacity:1;fill-rule:nonzero;stroke:none"
         d="m 237.102,261.035 c -12.723,-23.008 -30.911,-85.41 -30.93,-113.379 0,-0.879 0.019,-1.64 0.058,-2.422 0.833,-19.453 7.348,-28.515 16.118,-28.515 6.601,0 14.492,5.117 22.172,14.816 16.578,20.723 45.789,81.863 51.101,108.406 0.688,3.438 1.211,7.637 1.211,12.11 0,12.316 -4.172,26.496 -21.133,31.445 -2.648,0.762 -5.211,1.152 -7.629,1.152 -15.101,0 -25.504,-13.632 -30.968,-23.613" /><path
         id="path30"
         style="fill:#479edd;fill-opacity:1;fill-rule:nonzero;stroke:none"
         d="m 107.551,274.277 c -9.9104,-5.976 -12.969,-15.41 -12.9924,-24.765 -0.0195,-6.785 1.6016,-13.543 3.3828,-18.836 8.6406,-25.637 44.1096,-83.957 64.4686,-101.086 9.149,-7.754 16.891,-11.172 22.867,-11.172 8.942,0 13.934,7.734 13.934,20.508 0,2.91 -0.25,6.133 -0.793,9.59 -4.086,26.308 -29.324,89.121 -45.336,111.015 -5.781,7.949 -16.852,19.258 -30.633,19.258 -4.691,0 -9.691,-1.289 -14.898,-4.512" /><path
         id="path32"
         style="fill:#479edd;fill-opacity:1;fill-rule:nonzero;stroke:none"
         d="M 0.582031,144.258 C 0.191406,142.305 0,140.469 0,138.73 0,122.402 15.332,112.5 26.1914,107.664 48.3086,97.8711 103.941,86.2305 134.398,86.2305 c 3.672,0 6.993,0.1836 9.813,0.5781 18.559,2.3125 27.059,9.1094 27.09,17.3514 0,6.887 -5.805,14.699 -16.61,21.934 -22.132,14.746 -85.5113,38.691 -112.4215,41.679 -2.1367,0.274 -4.5976,0.469 -7.2109,0.469 -13.2188,0 -30.53907,-4.258 -34.476569,-23.984" /><path
         id="path34"
         style="fill:#1b1819;fill-opacity:1;fill-rule:nonzero;stroke:none"
         d="m 463.227,31.543 c 2.421,0 4.339,0.8281 5.742,2.539 1.39,1.6993 2.105,4.1524 2.105,7.3047 0,3.2305 -0.761,5.8789 -2.281,7.961 -1.496,2.0586 -3.66,3.1328 -6.445,3.1328 -0.961,0 -1.543,-0.0586 -1.711,-0.1953 -0.192,-0.0782 -0.321,-0.1954 -0.367,-0.3125 -0.043,-0.1055 -0.11,-1.4258 -0.196,-3.9063 l -0.215,-5.8984 c -0.031,-1.4532 -0.05,-3.2422 -0.05,-5.4102 0,-1.6094 0.074,-2.7148 0.207,-3.3203 0.144,-0.6133 0.445,-1.0742 0.902,-1.4258 0.484,-0.332 1.25,-0.4687 2.309,-0.4687 z m 1.187,-1.2383 c -0.508,0 -2.594,0.0273 -6.25,0.0976 l -3.809,0 -2.23,0.0469 c -0.531,0 -0.863,0.0117 -0.996,0.0977 -0.129,0.039 -0.207,0.1875 -0.207,0.3906 0,0.332 0.254,0.5391 0.754,0.5391 0.945,0 1.625,0.1445 2.07,0.4765 0.449,0.3321 0.734,0.918 0.84,1.7891 0.117,0.8672 0.227,2.5859 0.32,5.1836 0.098,2.6094 0.145,4.9609 0.145,7.1484 0,3.0664 -0.145,4.9414 -0.438,5.6367 -0.293,0.711 -1.035,1.0821 -2.207,1.1524 -0.394,0.0273 -0.613,0.2031 -0.613,0.4883 0,0.332 0.187,0.4765 0.551,0.4765 0.215,0 0.957,-0.0664 2.23,-0.1758 1.406,-0.125 2.403,-0.1953 2.946,-0.1953 l 6.574,0.1953 c 2.172,0 4.289,-0.4296 6.332,-1.2812 2.031,-0.8359 3.637,-2.1953 4.824,-4.1094 1.199,-1.914 1.801,-4.0703 1.801,-6.4765 0,-1.7852 -0.332,-3.4649 -1.039,-5.0274 -0.707,-1.5312 -1.711,-2.832 -3.039,-3.8867 -1.325,-1.0625 -2.66,-1.7578 -3.953,-2.0898 -1.317,-0.3204 -2.848,-0.4766 -4.606,-0.4766" /><path
         id="path36"
         style="fill:#1b1819;fill-opacity:1;fill-rule:nonzero;stroke:none"
         d="m 513.789,43.0664 c 0.305,-0.0078 0.527,-0.0078 0.684,-0.0078 1.015,0 2.011,0.1836 3.047,0.5547 1.015,0.3711 1.738,0.9765 2.168,1.7969 0.417,0.8203 0.605,1.707 0.605,2.6562 0,1.4258 -0.41,2.5586 -1.262,3.3711 -0.867,0.8281 -1.961,1.2188 -3.316,1.2188 -0.559,0 -1.203,-0.0977 -1.926,-0.3321 l 0,-9.2578 z m 4.707,-0.7226 c 1.582,-0.2266 2.871,-0.7032 3.906,-1.4063 1.004,-0.7344 1.758,-2.168 2.266,-4.3164 0.469,-2.0039 0.957,-3.3594 1.543,-3.9922 0.508,-0.6367 1.289,-0.9766 2.297,-1.0469 0.535,-0.039 0.808,-0.2031 0.808,-0.5351 0,-0.3438 -0.429,-0.5 -1.308,-0.5 l -6.699,0.1679 c -0.723,0.711 -1.192,1.9415 -1.454,3.7188 -0.304,2.2773 -0.656,3.8867 -0.968,4.8242 -0.391,0.9375 -0.879,1.6016 -1.574,2.0117 -0.711,0.3907 -1.52,0.6172 -2.442,0.6172 -0.242,0 -0.633,0 -1.082,-0.0703 0,-4.0898 0.02,-6.6133 0.039,-7.5586 0.02,-0.9453 0.215,-1.6289 0.547,-2.0508 0.383,-0.4101 1.055,-0.6328 2.012,-0.664 0.566,-0.0391 0.801,-0.2422 0.801,-0.5547 0,-0.3047 -0.235,-0.4414 -0.684,-0.4414 l -5.313,0.1679 c -0.722,0 -1.621,-0.0312 -2.753,-0.0898 -1.036,-0.0508 -1.68,-0.0781 -1.961,-0.0781 -0.481,0 -0.707,0.1562 -0.707,0.4883 0,0.3437 0.207,0.5078 0.617,0.5078 0.656,0 1.242,0.1367 1.789,0.4687 0.554,0.3125 0.808,1.6992 0.808,4.1328 l -0.007,3.211 0.007,6.2304 c 0,3.2149 -0.136,5.1875 -0.41,5.8985 -0.293,0.7226 -1.035,1.0937 -2.265,1.1133 -0.489,0.0117 -0.723,0.1679 -0.723,0.4882 0,0.3321 0.332,0.4883 0.969,0.4883 3.25,0 6.004,0.0781 8.25,0.2071 1.015,0.0781 1.906,0.1054 2.715,0.1054 2.636,0 4.675,-0.5351 6.171,-1.5625 1.497,-1.0429 2.227,-2.3906 2.227,-4.1015 0,-1.1211 -0.332,-2.1485 -1.035,-3.0469 -0.723,-0.8906 -1.621,-1.5625 -2.656,-1.9922 -1.055,-0.457 -2.317,-0.7109 -3.731,-0.8398" /><path
         id="path38"
         style="fill:#1b1819;fill-opacity:1;fill-rule:nonzero;stroke:none"
         d="m 574.375,42.1094 c 0,3.4765 -0.605,6.1328 -1.797,7.9101 -1.211,1.75 -2.723,2.6368 -4.551,2.6368 -1.836,0 -3.347,-0.8868 -4.55,-2.6368 -1.192,-1.7968 -1.805,-4.4336 -1.805,-7.9101 0,-3.3789 0.574,-5.9649 1.726,-7.8242 1.153,-1.8438 2.676,-2.7422 4.629,-2.7422 1.7,0 3.184,0.8203 4.461,2.5 1.242,1.6601 1.887,4.3476 1.887,8.0664 z m -6.082,11.7773 c 2.332,0 4.383,-0.4687 6.109,-1.3867 1.77,-0.957 3.176,-2.2969 4.243,-4.0625 1.023,-1.7773 1.57,-3.7109 1.57,-5.8008 0,-3.2422 -1.231,-6.1015 -3.594,-8.5937 -2.461,-2.5 -5.43,-3.7383 -9.023,-3.7383 -3.243,0 -5.996,0.9961 -8.321,3.0859 -2.297,2.0703 -3.476,4.8438 -3.476,8.3867 0,3.3204 1.211,6.1641 3.613,8.5743 2.383,2.3515 5.344,3.5351 8.879,3.5351" /><path
         id="path40"
         style="fill:#1b1819;fill-opacity:1;fill-rule:nonzero;stroke:none"
         d="m 632.363,51.8672 0.469,-5.0703 c 0.012,-0.2149 0.02,-0.4375 0.02,-0.5664 0,-0.3516 -0.137,-0.5352 -0.457,-0.5352 -0.254,0 -0.5,0.2031 -0.676,0.6133 -0.938,1.8555 -2.09,3.3984 -3.567,4.5898 -1.472,1.1719 -3.172,1.7579 -5.086,1.7579 -2.492,0 -4.406,-1.0352 -5.8,-3.1055 -1.407,-2.0703 -2.071,-4.5 -2.071,-7.3516 0,-3.1367 0.743,-5.7148 2.266,-7.707 1.543,-2.0313 3.359,-3.0156 5.449,-3.0156 0.86,0 1.778,0.1836 2.676,0.5937 0.937,0.4219 1.523,0.8399 1.769,1.3399 0.25,0.457 0.399,1.1523 0.399,2.0195 0,1.9336 -0.078,3.1367 -0.242,3.6328 -0.157,0.4688 -0.403,0.8086 -0.774,0.9883 -0.343,0.1758 -1.093,0.332 -2.187,0.4765 -0.403,0.0313 -0.625,0.1954 -0.625,0.4688 0,0.332 0.215,0.5273 0.625,0.5273 l 2.617,0 7.988,0.1758 c 0.34,0 0.547,-0.164 0.547,-0.4687 0,-0.1836 -0.078,-0.2813 -0.215,-0.3633 -0.136,-0.0547 -0.633,-0.1836 -1.465,-0.3399 -0.625,-0.1445 -1.035,-0.3515 -1.191,-0.6328 -0.187,-0.2851 -0.312,-2.0234 -0.398,-5.207 -0.039,-0.7109 -0.051,-1.1211 -0.071,-1.1992 0,-0.0781 -0.691,-0.4805 -2.05,-1.1719 -1.368,-0.7148 -2.735,-1.2422 -4.18,-1.582 -1.387,-0.3321 -2.82,-0.5078 -4.219,-0.5078 -2.383,0 -4.512,0.4765 -6.387,1.4062 -1.836,0.9375 -3.359,2.2656 -4.511,3.9531 -1.121,1.711 -1.7,3.75 -1.7,6.1133 0,3.3321 1.133,6.1914 3.457,8.6328 2.286,2.4024 5.411,3.6055 9.395,3.6055 1.406,0 2.676,-0.1562 3.816,-0.4883 1.164,-0.3515 2.434,-0.8203 3.86,-1.457 0.293,-0.125 0.539,-0.1953 0.754,-0.1953 0.215,0 0.398,0.1562 0.515,0.4883 0.157,0.4492 0.43,0.6757 0.664,0.6757 0.325,0 0.508,-0.3632 0.586,-1.0937" /><path
         id="path42"
         style="fill:#1b1819;fill-opacity:1;fill-rule:nonzero;stroke:none"
         d="m 682.559,53.457 c 0.379,-1.7968 0.734,-3.6132 1.093,-5.4218 0,-0.3204 -0.156,-0.4766 -0.476,-0.4766 -0.188,0 -0.403,0.1445 -0.617,0.4609 -1.219,1.7461 -2.305,2.8789 -3.301,3.4336 -0.977,0.5586 -2.41,0.8242 -4.297,0.8242 -1.066,0 -2.07,-0.0703 -3.047,-0.2539 -0.195,-2.0429 -0.312,-4.2695 -0.312,-6.7109 0,-0.4102 0.019,-1.1016 0.039,-2.0898 l 1.328,-0.0079 c 0.801,0 1.504,0.1055 2.109,0.3125 0.586,0.254 1.094,0.7305 1.524,1.4532 0.41,0.7148 0.644,1.1914 0.711,1.3789 0.089,0.3984 0.265,0.5742 0.558,0.5742 0.332,0 0.481,-0.1484 0.481,-0.4297 0,-0.0781 -0.012,-0.1758 -0.032,-0.2734 -0.136,-0.7227 -0.195,-2.8633 -0.195,-6.4063 0,-0.5078 0.027,-0.9453 0.137,-1.3554 0.019,-0.1094 0.019,-0.2071 0.019,-0.3047 0,-0.3321 -0.176,-0.4688 -0.566,-0.4688 -0.254,0 -0.449,0.3125 -0.606,0.8985 -0.214,1.0937 -0.761,1.8945 -1.562,2.4531 -0.84,0.5664 -2.109,0.8672 -3.867,0.8867 -0.078,-1.9336 -0.098,-3.2422 -0.098,-3.8281 0,-2.6563 0.039,-4.2071 0.117,-4.7149 0.098,-0.5195 0.364,-0.9179 0.879,-1.2031 0.527,-0.332 1.367,-0.4766 2.578,-0.4766 4.407,0 7.305,1.3946 8.692,4.2071 0.195,0.4023 0.422,0.6054 0.625,0.6054 0.363,0 0.539,-0.1562 0.539,-0.4296 0,-0.1758 -0.051,-0.4297 -0.11,-0.6915 l -1.132,-5 -6.258,0.0469 c -1.789,0 -3.43,0.0391 -4.934,0.1094 -1.543,0.0664 -2.734,0.1055 -3.613,0.1055 -0.938,0 -2.402,-0.0586 -4.356,-0.1563 -0.246,-0.0195 -0.429,-0.0273 -0.546,-0.0273 -0.547,0 -0.821,0.1836 -0.821,0.5156 0,0.3828 0.235,0.5469 0.645,0.5469 1.125,0 1.855,0.2929 2.246,0.8984 0.359,0.6055 0.586,1.8164 0.586,3.7031 l 0.097,8.9141 c 0,3.0586 -0.039,4.9219 -0.117,5.625 -0.078,0.6953 -0.273,1.1641 -0.605,1.4062 -0.313,0.2344 -0.918,0.4493 -1.778,0.5665 -0.39,0.0468 -0.586,0.2148 -0.586,0.4687 0,0.3516 0.215,0.5273 0.657,0.5273 l 4.187,-0.125 13.985,-0.0703" /><path
         id="path44"
         style="fill:#1b1819;fill-opacity:1;fill-rule:nonzero;stroke:none"
         d="m 720.77,43.0664 c 0.277,-0.0078 0.519,-0.0078 0.675,-0.0078 0.996,0 2.012,0.1836 3.047,0.5547 0.996,0.3711 1.731,0.9765 2.149,1.7969 0.449,0.8203 0.644,1.707 0.644,2.6562 0,1.4258 -0.437,2.5586 -1.269,3.3711 -0.879,0.8281 -1.973,1.2188 -3.313,1.2188 -0.574,0 -1.25,-0.0977 -1.933,-0.3321 l 0,-9.2578 z m 4.699,-0.7226 c 1.582,-0.2266 2.883,-0.7032 3.894,-1.4063 0.996,-0.7344 1.782,-2.168 2.297,-4.3164 0.469,-2.0039 0.957,-3.3594 1.504,-3.9922 0.547,-0.6367 1.309,-0.9766 2.285,-1.0469 0.528,-0.039 0.821,-0.2031 0.821,-0.5351 0,-0.3438 -0.442,-0.5 -1.309,-0.5 l -6.68,0.1679 c -0.703,0.711 -1.179,1.9415 -1.433,3.7188 -0.344,2.2773 -0.676,3.8867 -1.028,4.8242 -0.34,0.9375 -0.871,1.6016 -1.562,2.0117 -0.695,0.3907 -1.485,0.6172 -2.422,0.6172 -0.266,0 -0.625,0 -1.066,-0.0703 0,-4.0898 0.023,-6.6133 0.031,-7.5586 0.019,-0.9453 0.215,-1.6289 0.566,-2.0508 0.352,-0.4101 1.016,-0.6328 1.992,-0.664 0.528,-0.0391 0.801,-0.2422 0.801,-0.5547 0,-0.3047 -0.242,-0.4414 -0.683,-0.4414 l -5.325,0.1679 c -0.703,0 -1.648,-0.0312 -2.769,-0.0898 -0.988,-0.0508 -1.633,-0.0781 -1.926,-0.0781 -0.469,0 -0.715,0.1562 -0.715,0.4883 0,0.3437 0.219,0.5078 0.617,0.5078 0.645,0 1.231,0.1367 1.778,0.4687 0.566,0.3125 0.82,1.6992 0.82,4.1328 l -0.019,3.211 0.019,6.2304 c 0,3.2149 -0.137,5.1875 -0.41,5.8985 -0.293,0.7226 -1.043,1.0937 -2.266,1.1133 -0.468,0.0117 -0.703,0.1679 -0.703,0.4882 0,0.3321 0.305,0.4883 0.938,0.4883 3.242,0 6.015,0.0781 8.261,0.2071 1.016,0.0781 1.922,0.1054 2.735,0.1054 2.617,0 4.687,-0.5351 6.133,-1.5625 1.503,-1.0429 2.253,-2.3906 2.253,-4.1015 0,-1.1211 -0.359,-2.1485 -1.082,-3.0469 -0.683,-0.8906 -1.562,-1.5625 -2.617,-1.9922 -1.062,-0.457 -2.285,-0.7109 -3.73,-0.8398" /><path
         id="path46"
         style="fill:#1b1819;fill-opacity:1;fill-rule:nonzero;stroke:none"
         d="m 764.531,53.6523 c 0.391,0 1.231,-0.0468 2.481,-0.1171 0.976,-0.0586 1.738,-0.0782 2.304,-0.0782 l 5.332,0.1953 c 0.418,0 0.645,-0.1562 0.645,-0.457 0,-0.2851 -0.215,-0.4297 -0.605,-0.4805 -0.938,-0.0781 -1.524,-0.2656 -1.829,-0.5078 -0.3,-0.2539 -0.523,-0.8281 -0.671,-1.7187 -0.215,-0.918 -0.293,-2.9375 -0.293,-6.1524 0,-3.6523 0.039,-6.4843 0.183,-8.4687 0.117,-2 0.363,-3.2383 0.735,-3.6992 0.312,-0.4688 0.917,-0.6914 1.738,-0.6914 0.566,0 0.859,-0.1758 0.859,-0.4805 0,-0.3711 -0.312,-0.5938 -0.918,-0.5938 -0.176,0 -0.41,0.0079 -0.762,0.0469 -2.207,0.1367 -3.691,0.2149 -4.511,0.2149 -1.731,0 -3.028,-0.0391 -3.867,-0.1172 -0.45,-0.0586 -0.743,-0.0664 -0.926,-0.0664 -0.434,0 -0.656,0.1758 -0.656,0.4883 0,0.2734 0.195,0.457 0.539,0.5078 1.004,0.1054 1.668,0.3789 1.98,0.8086 0.371,0.4296 0.566,1.4375 0.625,3.0195 0.098,1.5898 0.129,4.0898 0.129,7.4805 0,3.5429 -0.07,5.914 -0.207,7.1484 -0.137,1.1875 -0.332,1.9336 -0.613,2.1953 -0.293,0.293 -0.852,0.4688 -1.672,0.5274 -0.449,0.0312 -0.645,0.2148 -0.645,0.539 0,0.3008 0.196,0.457 0.625,0.457" /><path
         id="path48"
         style="fill:#1b1819;fill-opacity:1;fill-rule:nonzero;stroke:none"
         d="m 822.336,53.457 c 0.359,-1.7968 0.75,-3.6132 1.082,-5.4218 0,-0.3204 -0.156,-0.4766 -0.488,-0.4766 -0.157,0 -0.352,0.1445 -0.594,0.4609 -1.203,1.7461 -2.297,2.8789 -3.293,3.4336 -0.996,0.5586 -2.461,0.8242 -4.324,0.8242 -1.028,0 -2.063,-0.0703 -3.02,-0.2539 -0.234,-2.0429 -0.351,-4.2695 -0.351,-6.7109 0,-0.4102 0.019,-1.1016 0.058,-2.0898 l 1.321,-0.0079 c 0.828,0 1.531,0.1055 2.136,0.3125 0.586,0.254 1.075,0.7305 1.477,1.4532 0.445,0.7148 0.664,1.1914 0.738,1.3789 0.102,0.3984 0.305,0.5742 0.551,0.5742 0.332,0 0.508,-0.1484 0.508,-0.4297 0,-0.0781 -0.024,-0.1758 -0.051,-0.2734 -0.137,-0.7227 -0.215,-2.8633 -0.215,-6.4063 0,-0.5078 0.059,-0.9453 0.164,-1.3554 0.031,-0.1094 0.051,-0.2071 0.051,-0.3047 0,-0.3321 -0.215,-0.4688 -0.574,-0.4688 -0.266,0 -0.5,0.3125 -0.617,0.8985 -0.215,1.0937 -0.762,1.8945 -1.563,2.4531 -0.859,0.5664 -2.129,0.8672 -3.914,0.8867 -0.051,-1.9336 -0.078,-3.2422 -0.078,-3.8281 0,-2.6563 0.027,-4.2071 0.125,-4.7149 0.058,-0.5195 0.383,-0.9179 0.906,-1.2031 0.481,-0.332 1.359,-0.4766 2.578,-0.4766 4.406,0 7.278,1.3946 8.684,4.2071 0.195,0.4023 0.398,0.6054 0.637,0.6054 0.359,0 0.503,-0.1562 0.503,-0.4296 0,-0.1758 -0.027,-0.4297 -0.105,-0.6915 l -1.133,-5 -6.25,0.0469 c -1.758,0 -3.406,0.0391 -4.941,0.1094 -1.531,0.0664 -2.735,0.1055 -3.574,0.1055 -0.977,0 -2.454,-0.0586 -4.407,-0.1563 -0.222,-0.0195 -0.398,-0.0273 -0.515,-0.0273 -0.535,0 -0.789,0.1836 -0.789,0.5156 0,0.3828 0.203,0.5469 0.632,0.5469 1.114,0 1.836,0.2929 2.207,0.8984 0.364,0.6055 0.586,1.8164 0.586,3.7031 l 0.098,8.9141 c 0,3.0586 -0.059,4.9219 -0.117,5.625 -0.078,0.6953 -0.274,1.1641 -0.606,1.4062 -0.3,0.2344 -0.898,0.4493 -1.777,0.5665 -0.371,0.0468 -0.547,0.2148 -0.547,0.4687 0,0.3516 0.215,0.5273 0.625,0.5273 l 4.18,-0.125 13.996,-0.0703" /></g></g></svg>