<?xml version="1.0" encoding="utf-8"?>
<!-- Generator: Adobe Illustrator 15.0.2, SVG Export Plug-In  -->
<!DOCTYPE svg PUBLIC "-//W3C//DTD SVG 1.1//EN" "http://www.w3.org/Graphics/SVG/1.1/DTD/svg11.dtd" [
	<!ENTITY ns_flows "http://ns.adobe.com/Flows/1.0/">
]>
<svg version="1.1"
	 xmlns="http://www.w3.org/2000/svg" xmlns:xlink="http://www.w3.org/1999/xlink" xmlns:a="http://ns.adobe.com/AdobeSVGViewerExtensions/3.0/"
	 x="0px" y="0px" width="83px" height="55px" viewBox="13.251 31.45 83 55" enable-background="new 13.251 31.45 83 55"
	 xml:space="preserve">
<defs>
</defs>
<path fill="#FFFFFF" d="M22.232,85.854c-4.638,0-8.416-3.776-8.416-8.419V40.578c0-4.641,3.778-8.418,8.416-8.418h64.516
	c4.639,0,8.412,3.777,8.412,8.418v36.857c0,4.643-3.773,8.419-8.412,8.419H22.232z"/>
<path fill="#9A6FA9" d="M91.354,77.436c0,2.536-2.075,4.611-4.607,4.611H22.231c-2.536,0-4.606-2.075-4.606-4.611V40.578
	c0-2.533,2.07-4.608,4.606-4.608h64.515c2.532,0,4.607,2.075,4.607,4.608V77.436z"/>
<path fill="#FFFFFF" d="M39.661,56.46h-1.01c-0.188,0-0.281-0.099-0.281-0.285V49.37c0-1.347-0.741-2.108-2.033-2.108
	c-1.331,0-1.899,0.777-1.899,2.053v6.86c0,0.187-0.075,0.285-0.269,0.285h-1.025c-0.188,0-0.282-0.099-0.282-0.285V49.37
	c0-1.367-0.726-2.108-2.018-2.108c-1.233,0-1.916,0.324-1.916,1.409v7.504c0,0.187-0.076,0.285-0.267,0.285h-1.026
	c-0.19,0-0.261-0.099-0.261-0.285v-8.094c0-0.645,0.239-0.91,0.717-1.16c0.549-0.289,1.52-0.529,2.773-0.529
	c1.423,0,2.279,0.433,2.89,1.194c0.571-0.718,1.438-1.194,2.903-1.194c1.255,0,3.287,0.477,3.287,2.908v6.875
	C39.944,56.361,39.849,56.46,39.661,56.46"/>
<path fill="#FFFFFF" d="M46.862,56.115c-0.365,0.246-1.486,0.572-2.605,0.572c-2.206,0-3.684-0.966-3.684-2.624
	c0-2.526,3.092-3.211,5.447-3.665v-1.347c0-1.07-0.66-1.79-1.591-1.79c-1.258,0-1.825,1.008-1.997,1.691
	c-0.076,0.325-0.401,0.552-0.74,0.552c-0.38,0-0.701-0.248-0.701-0.722c0-0.744,1.005-2.392,3.664-2.392
	c1.521,0,2.892,0.908,2.892,2.734v5.511C47.547,55.449,47.331,55.774,46.862,56.115 M46.021,51.155
	c-2.069,0.436-3.911,0.99-3.911,2.798c0,0.964,0.728,1.842,2.169,1.842c0.814,0,1.742-0.25,1.742-1.197V51.155z"/>
<path fill="#FFFFFF" d="M60.945,56.46h-1.008c-0.189,0-0.285-0.099-0.285-0.285V49.37c0-1.347-0.741-2.108-2.034-2.108
	c-1.329,0-1.9,0.777-1.9,2.053v6.86c0,0.187-0.078,0.285-0.263,0.285h-1.027c-0.191,0-0.287-0.099-0.287-0.285V49.37
	c0-1.367-0.725-2.108-2.013-2.108c-1.237,0-1.919,0.324-1.919,1.409v7.504c0,0.187-0.079,0.285-0.267,0.285h-1.025
	c-0.193,0-0.264-0.099-0.264-0.285v-8.094c0-0.645,0.239-0.91,0.72-1.16c0.55-0.289,1.518-0.529,2.769-0.529
	c1.431,0,2.286,0.433,2.895,1.194c0.565-0.718,1.446-1.194,2.904-1.194c1.254,0,3.287,0.477,3.287,2.908v6.875
	C61.228,56.361,61.131,56.46,60.945,56.46"/>
<path fill="#FFFFFF" d="M74.68,56.46h-1.014c-0.185,0-0.282-0.099-0.282-0.285V49.37c0-1.347-0.742-2.108-2.03-2.108
	c-1.331,0-1.898,0.777-1.898,2.053v6.86c0,0.187-0.081,0.285-0.27,0.285H68.16c-0.188,0-0.289-0.099-0.289-0.285V49.37
	c0-1.367-0.723-2.108-2.007-2.108c-1.237,0-1.927,0.324-1.927,1.409v7.504c0,0.187-0.073,0.285-0.262,0.285h-1.027
	c-0.188,0-0.264-0.099-0.264-0.285v-8.094c0-0.645,0.246-0.91,0.721-1.16c0.552-0.289,1.521-0.529,2.771-0.529
	c1.427,0,2.283,0.433,2.892,1.194c0.571-0.718,1.444-1.194,2.903-1.194c1.258,0,3.291,0.477,3.291,2.908v6.875
	C74.963,56.361,74.865,56.46,74.68,56.46"/>
<path fill="#FFFFFF" d="M81.875,56.115c-0.362,0.246-1.485,0.572-2.604,0.572c-2.205,0-3.686-0.966-3.686-2.624
	c0-2.526,3.095-3.211,5.453-3.665v-1.347c0-1.07-0.665-1.79-1.599-1.79c-1.251,0-1.821,1.008-1.993,1.691
	c-0.069,0.325-0.4,0.552-0.738,0.552c-0.379,0-0.704-0.248-0.704-0.722c0-0.744,1.005-2.392,3.665-2.392
	c1.521,0,2.894,0.908,2.894,2.734v5.511C82.563,55.449,82.349,55.774,81.875,56.115 M81.038,51.155
	c-2.07,0.436-3.913,0.99-3.913,2.798c0,0.964,0.725,1.842,2.168,1.842c0.82,0,1.745-0.25,1.745-1.197V51.155z"/>
<path fill="#FFFFFF" d="M39.471,67.678c-0.76,0-1.197-0.515-2.183,0.322l3.037,3.479l0.132,0.396c0,0.345-0.19,0.52-0.515,0.52
	h-3.227c-0.419,0-0.553-0.2-0.823-0.52L35.04,70.83c-0.911,1.01-2.105,1.848-3.987,1.848c-1.917,0-3.683-1.277-3.683-3.405
	c0-2.094,1.42-3.284,3.018-4.179C29.706,64.24,28.96,63.231,28.96,62c0-1.901,1.711-3.309,4.547-3.309c2.58,0,4.229,1.1,4.229,2.943
	c0,1.673-1.385,2.718-2.903,3.572l1.011,1.143c0.948-1.05,2.012-1.96,3.225-1.96c1.336,0,2.013,0.704,2.013,1.675
	C41.081,67.127,40.404,67.678,39.471,67.678 M31.871,66.914c-0.536,0.423-0.878,0.877-0.878,1.426c0,0.763,0.533,1.219,1.276,1.219
	c0.416,0,0.833-0.229,1.253-0.606L31.871,66.914z M33.507,60.764c-0.496,0-1.065,0.396-1.065,1.007c0,0.699,0.493,1.271,0.927,1.768
	c0.761-0.479,1.273-0.988,1.273-1.68C34.642,61.218,34.108,60.764,33.507,60.764"/>
<path fill="#FFFFFF" d="M46.577,72.655c-1.822,0-3.004-0.359-3.61-0.7c-0.624-0.346-0.821-0.729-0.821-1.502V58.368
	c0-0.345,0.176-0.513,0.518-0.513h3.034c0.347,0,0.519,0.168,0.519,0.513v4.785c0.381-0.38,1.235-0.855,2.393-0.855
	c2.493,0,3.5,2.13,3.5,4.601C52.108,70.186,50.436,72.655,46.577,72.655 M46.709,64.714c-0.189,0-0.38,0.032-0.493,0.094v5.014
	c0,0.307,0.244,0.537,0.59,0.537c0.531,0,1.16-0.838,1.16-2.889C47.966,65.493,47.451,64.714,46.709,64.714"/>
<path fill="#FFFFFF" d="M60.96,72.007c-0.613,0.345-2.207,0.648-3.632,0.648c-2.261,0-5.056-0.398-5.056-2.834
	c0-2.694,3.23-3.187,5.587-3.61v-1.132c0-0.534-0.339-0.782-0.739-0.782c-0.458,0-0.813,0.398-0.951,0.797
	c-0.228,0.647-0.871,1.044-1.75,1.044c-0.964,0-1.726-0.49-1.726-1.442c0-1.14,1.404-2.419,4.96-2.419c2.39,0,4.12,0.972,4.12,3.229
	v4.871C61.773,71.192,61.644,71.629,60.96,72.007 M57.859,67.868c-0.813,0.114-1.711,0.472-1.711,1.635
	c0,0.741,0.437,1.12,1.008,1.12c0.419,0,0.703-0.209,0.703-0.644V67.868z"/>
<path fill="#FFFFFF" d="M67.304,72.655c-1.823,0-3-0.359-3.608-0.7c-0.63-0.346-0.814-0.729-0.814-1.502V58.368
	c0-0.345,0.171-0.513,0.511-0.513h3.037c0.344,0,0.516,0.168,0.516,0.513v4.785c0.379-0.38,1.233-0.855,2.396-0.855
	c2.489,0,3.497,2.13,3.497,4.601C72.837,70.186,71.158,72.655,67.304,72.655 M67.436,64.714c-0.183,0-0.377,0.032-0.491,0.094v5.014
	c0,0.307,0.251,0.537,0.592,0.537c0.53,0,1.159-0.838,1.159-2.889C68.695,65.493,68.178,64.714,67.436,64.714"/>
<path fill="#FFFFFF" d="M82.879,63.46l-3.298,10.147c-0.69,2.066-1.959,3.44-4.415,3.44c-1.845,0-2.733-0.804-2.733-1.902
	c0-0.931,0.646-1.464,1.426-1.464c0.836,0,1.026,0.417,1.525,0.417c0.34,0,0.566-0.285,0.64-0.533l0.078-0.261L72.66,63.46
	l-0.078-0.4c0-0.34,0.176-0.51,0.52-0.51h3.149c0.385,0,0.554,0.111,0.633,0.477l0.791,3.756c0.251,1.2,0.344,2.531,0.344,2.531
	h0.037c0,0,0.134-1.331,0.401-2.531l0.813-3.756c0.08-0.365,0.251-0.477,0.629-0.477h2.547c0.342,0,0.512,0.17,0.512,0.51
	L82.879,63.46z"/>
<path fill="#9A6FA9" d="M31.685,84.846c-0.513,0-0.927,0.41-0.927,0.928c0,0.51,0.414,0.923,0.927,0.923h0.029
	c0.506,0,0.912-0.413,0.912-0.923C32.626,85.256,32.2,84.846,31.685,84.846"/>
<path fill="#9A6FA9" d="M29.203,84.846c-0.511,0-0.927,0.41-0.927,0.928c0,0.51,0.416,0.923,0.927,0.923h0.026
	c0.515,0,0.915-0.413,0.915-0.923C30.145,85.256,29.715,84.846,29.203,84.846"/>
<path fill="#9A6FA9" d="M18.096,83.577l-0.043-0.034c-0.438-0.277-0.993-0.152-1.272,0.267c-0.285,0.417-0.177,0.984,0.239,1.276
	l0.54-0.753l-0.536,0.757c0.162,0.117,0.351,0.166,0.536,0.166c0.288,0,0.575-0.132,0.761-0.381
	C18.611,84.449,18.517,83.874,18.096,83.577"/>
<path fill="#9A6FA9" d="M49.051,84.846c-0.512,0-0.931,0.41-0.931,0.928c0,0.51,0.419,0.923,0.931,0.923h0.026
	c0.509,0,0.914-0.413,0.914-0.923C49.991,85.256,49.562,84.846,49.051,84.846"/>
<path fill="#9A6FA9" d="M26.724,84.846c-0.514,0-0.931,0.41-0.931,0.928c0,0.51,0.417,0.923,0.931,0.923h0.028
	c0.512,0,0.914-0.413,0.914-0.923C27.666,85.256,27.235,84.846,26.724,84.846"/>
<path fill="#9A6FA9" d="M32.104,32.249c0-0.512-0.419-0.926-0.93-0.926h-0.026c-0.512,0-0.914,0.414-0.914,0.926
	c0,0.516,0.426,0.926,0.94,0.926C31.685,33.175,32.104,32.765,32.104,32.249"/>
<path fill="#9A6FA9" d="M22.167,32.191c-0.064-0.51-0.533-0.868-1.04-0.805l-0.021,0.004c-0.51,0.066-0.854,0.529-0.785,1.038
	c0.063,0.466,0.472,0.806,0.93,0.806l0.124-0.004C21.88,33.16,22.232,32.699,22.167,32.191"/>
<path fill="#9A6FA9" d="M20.079,84.523l-0.068-0.018c-0.486-0.143-0.979,0.146-1.127,0.628c-0.146,0.477,0.128,0.991,0.606,1.149
	l0.297-0.877l-0.293,0.877l0.293,0.051c0.388,0,0.749-0.248,0.879-0.639C20.826,85.216,20.565,84.686,20.079,84.523"/>
<path fill="#9A6FA9" d="M19.262,33.796c0.461-0.215,0.654-0.762,0.447-1.228c-0.214-0.457-0.767-0.658-1.228-0.453l0.361,0.854
	l-0.372-0.848c-0.463,0.208-0.68,0.755-0.472,1.224c0.152,0.346,0.492,0.555,0.849,0.555l0.374-0.08L19.262,33.796z"/>
<path fill="#9A6FA9" d="M22.202,84.846c-0.51,0-0.923,0.41-0.923,0.928c0,0.51,0.413,0.923,0.923,0.923h0.03
	c0.511,0,0.916-0.413,0.916-0.923C23.148,85.256,22.714,84.846,22.202,84.846"/>
<path fill="#9A6FA9" d="M27.136,32.249c0-0.512-0.412-0.926-0.925-0.926h-0.028c-0.508,0-0.91,0.414-0.91,0.926
	c0,0.516,0.427,0.926,0.938,0.926C26.724,33.175,27.136,32.765,27.136,32.249"/>
<path fill="#9A6FA9" d="M24.244,84.846c-0.516,0-0.925,0.41-0.925,0.928c0,0.51,0.409,0.923,0.925,0.923h0.022
	c0.51,0,0.914-0.413,0.914-0.923C25.181,85.256,24.756,84.846,24.244,84.846"/>
<path fill="#9A6FA9" d="M29.616,32.249c0-0.512-0.411-0.926-0.924-0.926H28.67c-0.516,0-0.92,0.414-0.92,0.926
	c0,0.516,0.429,0.926,0.942,0.926C29.205,33.175,29.616,32.765,29.616,32.249"/>
<path fill="#9A6FA9" d="M41.609,84.846c-0.518,0-0.928,0.41-0.928,0.928c0,0.51,0.41,0.923,0.928,0.923h0.024
	c0.51,0,0.915-0.413,0.915-0.923C42.549,85.256,42.117,84.846,41.609,84.846"/>
<path fill="#9A6FA9" d="M44.506,32.249c0-0.512-0.414-0.926-0.928-0.926h-0.027c-0.514,0-0.914,0.414-0.914,0.926
	c0,0.516,0.426,0.926,0.941,0.926C44.092,33.175,44.506,32.765,44.506,32.249"/>
<path fill="#9A6FA9" d="M46.986,32.249c0-0.512-0.416-0.926-0.925-0.926h-0.025c-0.515,0-0.916,0.414-0.916,0.926
	c0,0.516,0.427,0.926,0.941,0.926C46.57,33.175,46.986,32.765,46.986,32.249"/>
<path fill="#9A6FA9" d="M34.165,84.846c-0.512,0-0.927,0.41-0.927,0.928c0,0.51,0.415,0.923,0.927,0.923h0.026
	c0.513,0,0.913-0.413,0.913-0.923C35.104,85.256,34.678,84.846,34.165,84.846"/>
<path fill="#9A6FA9" d="M46.57,84.846c-0.513,0-0.928,0.41-0.928,0.928c0,0.51,0.415,0.923,0.928,0.923h0.026
	c0.511,0,0.914-0.413,0.914-0.923C47.511,85.256,47.08,84.846,46.57,84.846"/>
<path fill="#9A6FA9" d="M49.472,32.249c0-0.512-0.421-0.926-0.931-0.926h-0.028c-0.512,0-0.911,0.414-0.911,0.926
	c0,0.516,0.428,0.926,0.939,0.926C49.051,33.175,49.472,32.765,49.472,32.249"/>
<path fill="#9A6FA9" d="M44.086,84.846c-0.511,0-0.925,0.41-0.925,0.928c0,0.51,0.414,0.923,0.925,0.923h0.03
	c0.511,0,0.911-0.413,0.911-0.923C45.027,85.256,44.604,84.846,44.086,84.846"/>
<path fill="#9A6FA9" d="M37.064,32.249c0-0.512-0.414-0.926-0.927-0.926h-0.029c-0.51,0-0.916,0.414-0.916,0.926
	c0,0.516,0.432,0.926,0.945,0.926C36.65,33.175,37.064,32.765,37.064,32.249"/>
<path fill="#9A6FA9" d="M42.026,32.249c0-0.512-0.417-0.926-0.929-0.926H41.07c-0.512,0-0.917,0.414-0.917,0.926
	c0,0.516,0.434,0.926,0.944,0.926C41.609,33.175,42.026,32.765,42.026,32.249"/>
<path fill="#9A6FA9" d="M36.647,84.846c-0.518,0-0.929,0.41-0.929,0.928c0,0.51,0.411,0.923,0.929,0.923h0.027
	c0.509,0,0.911-0.413,0.911-0.923C37.586,85.256,37.161,84.846,36.647,84.846"/>
<path fill="#9A6FA9" d="M39.124,84.846c-0.508,0-0.924,0.41-0.924,0.928c0,0.51,0.416,0.923,0.924,0.923h0.027
	c0.517,0,0.916-0.413,0.916-0.923C40.067,85.256,39.634,84.846,39.124,84.846"/>
<path fill="#9A6FA9" d="M39.546,32.249c0-0.512-0.418-0.926-0.929-0.926h-0.025c-0.511,0-0.918,0.414-0.918,0.926
	c0,0.516,0.43,0.926,0.943,0.926C39.128,33.175,39.546,32.765,39.546,32.249"/>
<path fill="#9A6FA9" d="M34.581,32.249c0-0.512-0.414-0.926-0.928-0.926h-0.025c-0.509,0-0.914,0.414-0.914,0.926
	c0,0.516,0.428,0.926,0.939,0.926C34.167,33.175,34.581,32.765,34.581,32.249"/>
<path fill="#9A6FA9" d="M13.901,41.82c0.515,0,0.932-0.43,0.932-0.939c0-0.512-0.417-0.929-0.932-0.929
	c-0.514,0-0.928,0.417-0.928,0.929v0.023C12.974,41.42,13.388,41.82,13.901,41.82"/>
<path fill="#9A6FA9" d="M13.933,39.345l0.244,0.03c0.409,0,0.785-0.269,0.898-0.678l0.013-0.055c0.12-0.495-0.185-0.984-0.672-1.11
	s-1.001,0.172-1.131,0.665l0.892,0.251l-0.892-0.247C13.147,38.697,13.437,39.203,13.933,39.345"/>
<path fill="#9A6FA9" d="M13.901,44.302c0.515,0,0.932-0.429,0.932-0.944c0-0.51-0.417-0.927-0.932-0.927
	c-0.514,0-0.928,0.417-0.928,0.927v0.031C12.974,43.899,13.388,44.302,13.901,44.302"/>
<path fill="#9A6FA9" d="M13.901,46.783c0.515,0,0.932-0.432,0.932-0.945c0-0.509-0.417-0.922-0.932-0.922
	c-0.514,0-0.928,0.413-0.928,0.922v0.029C12.974,46.381,13.388,46.783,13.901,46.783"/>
<path fill="#9A6FA9" d="M13.901,51.743c0.515,0,0.932-0.427,0.932-0.943c0-0.508-0.417-0.921-0.932-0.921
	c-0.514,0-0.928,0.413-0.928,0.921v0.027C12.974,51.343,13.388,51.743,13.901,51.743"/>
<path fill="#9A6FA9" d="M13.901,49.267c0.515,0,0.932-0.432,0.932-0.943c0-0.51-0.417-0.933-0.932-0.933
	c-0.514,0-0.928,0.423-0.928,0.933v0.025C12.974,48.86,13.388,49.267,13.901,49.267"/>
<path fill="#9A6FA9" d="M14.677,36.959c0.146,0.089,0.316,0.134,0.484,0.134c0.312,0,0.618-0.16,0.8-0.445
	c0.271-0.433,0.142-0.998-0.295-1.274c-0.435-0.275-1.009-0.141-1.28,0.293l-0.015,0.025C14.102,36.126,14.242,36.687,14.677,36.959
	"/>
<path fill="#9A6FA9" d="M94.729,37.994c-0.495,0.094-0.821,0.582-0.734,1.077c0.071,0.453,0.466,0.775,0.912,0.775l0.149-0.013
	c0.508-0.087,0.845-0.564,0.769-1.065l-0.015-0.071C95.704,38.203,95.226,37.905,94.729,37.994"/>
<path fill="#9A6FA9" d="M16.771,35.211c0.214,0,0.43-0.068,0.603-0.21c0.4-0.326,0.452-0.911,0.125-1.311
	c-0.327-0.392-0.91-0.445-1.307-0.12l-0.045,0.037c-0.373,0.339-0.403,0.907-0.078,1.289C16.251,35.112,16.515,35.211,16.771,35.211
	"/>
<path fill="#9A6FA9" d="M23.732,33.175c0.512,0,0.927-0.41,0.927-0.926c0-0.512-0.415-0.926-0.927-0.926h-0.028
	c-0.515,0-0.914,0.414-0.914,0.926C22.79,32.765,23.216,33.175,23.732,33.175"/>
<path fill="#9A6FA9" d="M13.901,76.549c0.515,0,0.932-0.427,0.932-0.934c0-0.513-0.417-0.93-0.932-0.93
	c-0.514,0-0.928,0.417-0.928,0.93v0.027C12.974,76.153,13.388,76.549,13.901,76.549"/>
<path fill="#9A6FA9" d="M13.901,74.073c0.515,0,0.932-0.428,0.932-0.939c0-0.516-0.417-0.924-0.932-0.924
	c-0.514,0-0.928,0.408-0.928,0.924v0.021C12.974,73.675,13.388,74.073,13.901,74.073"/>
<path fill="#9A6FA9" d="M13.901,69.109c0.515,0,0.932-0.43,0.932-0.941c0-0.509-0.417-0.922-0.932-0.922
	c-0.514,0-0.928,0.413-0.928,0.922v0.025C12.974,68.708,13.388,69.109,13.901,69.109"/>
<path fill="#9A6FA9" d="M13.901,71.595c0.515,0,0.932-0.43,0.932-0.943c0-0.513-0.417-0.932-0.932-0.932
	c-0.514,0-0.928,0.419-0.928,0.932v0.025C12.974,71.19,13.388,71.595,13.901,71.595"/>
<path fill="#9A6FA9" d="M16.467,82.074l-0.036-0.042c-0.328-0.38-0.898-0.428-1.286-0.104c-0.396,0.324-0.447,0.899-0.134,1.298
	l0.009,0.006c0.18,0.231,0.451,0.352,0.723,0.352c0.2,0,0.405-0.066,0.574-0.205C16.717,83.062,16.782,82.478,16.467,82.074"/>
<path fill="#9A6FA9" d="M15.351,80.162c-0.183-0.477-0.722-0.714-1.199-0.525c-0.479,0.185-0.72,0.721-0.533,1.201l0.02,0.035
	c0.146,0.358,0.48,0.565,0.843,0.565l0.35-0.068C15.309,81.186,15.532,80.638,15.351,80.162"/>
<path fill="#9A6FA9" d="M14.003,79.031c0.512-0.041,0.895-0.499,0.851-1.012c-0.038-0.514-0.489-0.892-1.001-0.851
	c-0.509,0.042-0.885,0.486-0.849,0.996v0.03c0.042,0.483,0.443,0.838,0.925,0.838L14.003,79.031z"/>
<path fill="#9A6FA9" d="M13.901,54.223c0.515,0,0.932-0.43,0.932-0.937c0-0.514-0.417-0.933-0.932-0.933
	c-0.514,0-0.928,0.419-0.928,0.933v0.028C12.974,53.824,13.388,54.223,13.901,54.223"/>
<path fill="#9A6FA9" d="M13.901,59.19c0.515,0,0.932-0.436,0.932-0.943c0-0.513-0.417-0.929-0.932-0.929
	c-0.514,0-0.928,0.416-0.928,0.929v0.023C12.974,58.784,13.388,59.19,13.901,59.19"/>
<path fill="#9A6FA9" d="M13.901,56.709c0.515,0,0.932-0.432,0.932-0.944c0-0.512-0.417-0.926-0.932-0.926
	c-0.514,0-0.928,0.414-0.928,0.926v0.025C12.974,56.308,13.388,56.709,13.901,56.709"/>
<path fill="#9A6FA9" d="M13.901,61.669c0.515,0,0.932-0.429,0.932-0.945c0-0.51-0.417-0.925-0.932-0.925
	c-0.514,0-0.928,0.415-0.928,0.925v0.027C12.974,61.263,13.388,61.669,13.901,61.669"/>
<path fill="#9A6FA9" d="M13.901,66.63c0.515,0,0.932-0.429,0.932-0.938c0-0.516-0.417-0.931-0.932-0.931
	c-0.514,0-0.928,0.415-0.928,0.931v0.021C12.974,66.23,13.388,66.63,13.901,66.63"/>
<path fill="#9A6FA9" d="M13.901,64.147c0.515,0,0.932-0.43,0.932-0.941s-0.417-0.93-0.932-0.93c-0.514,0-0.928,0.418-0.928,0.93
	v0.027C12.974,63.745,13.388,64.147,13.901,64.147"/>
<path fill="#9A6FA9" d="M95.146,77.655c-0.504-0.082-0.985,0.261-1.06,0.765l-0.017,0.082c-0.049,0.506,0.318,0.978,0.827,1.03
	l0.099,0.012c0.466,0,0.87-0.345,0.917-0.819l-0.917-0.157l0.917,0.153C95.988,78.216,95.649,77.736,95.146,77.655"/>
<path fill="#9A6FA9" d="M92.259,82.371l-0.047,0.053c-0.326,0.384-0.277,0.951,0.102,1.289c0.169,0.155,0.393,0.229,0.61,0.229
	c0.254,0,0.51-0.104,0.693-0.308l-0.68-0.632l0.68,0.63c0.351-0.373,0.327-0.961-0.048-1.31
	C93.192,81.979,92.61,81.993,92.259,82.371"/>
<path fill="#9A6FA9" d="M94.691,80.11c-0.464-0.216-1.021-0.008-1.238,0.46c-0.22,0.461-0.016,1.021,0.439,1.24l0.401,0.086
	c0.35,0,0.677-0.197,0.835-0.536l0.009-0.021C95.36,80.871,95.153,80.337,94.691,80.11"/>
<path fill="#9A6FA9" d="M90.558,83.787c-0.448,0.25-0.602,0.814-0.354,1.259c0.168,0.301,0.484,0.474,0.812,0.474
	c0.151,0,0.306-0.041,0.448-0.115l0.06-0.041c0.428-0.269,0.557-0.813,0.297-1.253C91.559,83.685,90.998,83.537,90.558,83.787"/>
<path fill="#9A6FA9" d="M95.077,75.184c-0.515,0-0.93,0.428-0.93,0.937c0,0.514,0.415,0.93,0.93,0.93
	c0.507,0,0.923-0.416,0.923-0.93v-0.027C96,75.583,95.584,75.184,95.077,75.184"/>
<path fill="#9A6FA9" d="M90.563,34.106c0.324,0,0.641-0.171,0.815-0.475c0.245-0.448,0.085-1.012-0.356-1.262l-0.064-0.031
	c-0.448-0.226-0.988-0.045-1.221,0.402c-0.237,0.442-0.065,0.995,0.372,1.246L90.563,34.106z"/>
<path fill="#9A6FA9" d="M95.077,72.698c-0.515,0-0.93,0.433-0.93,0.94c0,0.515,0.415,0.928,0.93,0.928
	c0.507,0,0.923-0.413,0.923-0.928v-0.024C96,73.098,95.584,72.698,95.077,72.698"/>
<path fill="#9A6FA9" d="M95.077,70.221c-0.515,0-0.93,0.425-0.93,0.938c0,0.509,0.415,0.928,0.93,0.928
	c0.507,0,0.923-0.419,0.923-0.928v-0.027C96,70.623,95.584,70.221,95.077,70.221"/>
<path fill="#9A6FA9" d="M83.783,84.846c-0.511,0-0.926,0.41-0.926,0.928c0,0.51,0.415,0.923,0.926,0.923h0.032
	c0.507,0,0.91-0.413,0.91-0.923C84.726,85.256,84.294,84.846,83.783,84.846"/>
<path fill="#9A6FA9" d="M86.685,32.249c0-0.512-0.416-0.926-0.927-0.926H85.73c-0.517,0-0.916,0.414-0.916,0.926
	c0,0.516,0.427,0.926,0.943,0.926C86.269,33.175,86.685,32.765,86.685,32.249"/>
<path fill="#9A6FA9" d="M84.197,32.249c0-0.512-0.406-0.926-0.925-0.926h-0.029c-0.51,0-0.907,0.414-0.907,0.926
	c0,0.516,0.426,0.926,0.937,0.926C83.791,33.175,84.197,32.765,84.197,32.249"/>
<path fill="#9A6FA9" d="M88.488,84.633c-0.494,0.133-0.78,0.634-0.658,1.126c0.11,0.419,0.488,0.693,0.909,0.693l0.218-0.022
	l0.047-0.011c0.487-0.136,0.762-0.643,0.626-1.132C89.502,84.794,88.981,84.506,88.488,84.633"/>
<path fill="#9A6FA9" d="M88.085,33.299l0.145,0.004c0.438,0,0.828-0.312,0.903-0.766c0.089-0.5-0.251-0.977-0.751-1.07h-0.005
	c-0.503-0.097-0.987,0.229-1.087,0.735c-0.097,0.497,0.232,0.986,0.735,1.086L88.085,33.299z"/>
<path fill="#9A6FA9" d="M86.264,84.846c-0.509,0-0.928,0.41-0.928,0.928c0,0.51,0.419,0.923,0.928,0.923h0.03
	c0.505,0,0.912-0.413,0.912-0.923C87.206,85.256,86.776,84.846,86.264,84.846"/>
<path fill="#9A6FA9" d="M95.077,47.888c-0.515,0-0.93,0.43-0.93,0.945c0,0.512,0.415,0.927,0.93,0.927
	c0.507,0,0.923-0.415,0.923-0.927v-0.031C96,48.294,95.584,47.888,95.077,47.888"/>
<path fill="#9A6FA9" d="M95.077,50.37c-0.515,0-0.93,0.428-0.93,0.943c0,0.51,0.415,0.925,0.93,0.925
	c0.507,0,0.923-0.415,0.923-0.925v-0.028C96,50.776,95.584,50.37,95.077,50.37"/>
<path fill="#9A6FA9" d="M95.077,45.41c-0.515,0-0.93,0.426-0.93,0.938c0,0.518,0.415,0.927,0.93,0.927
	c0.507,0,0.923-0.409,0.923-0.927v-0.024C96,45.813,95.584,45.41,95.077,45.41"/>
<path fill="#9A6FA9" d="M95.077,42.928c-0.515,0-0.93,0.428-0.93,0.945c0,0.511,0.415,0.926,0.93,0.926
	c0.507,0,0.923-0.415,0.923-0.926v-0.031C96,43.33,95.584,42.928,95.077,42.928"/>
<path fill="#9A6FA9" d="M95.077,67.737c-0.515,0-0.93,0.431-0.93,0.94c0,0.514,0.415,0.927,0.93,0.927
	c0.507,0,0.923-0.413,0.923-0.927v-0.029C96,68.139,95.584,67.737,95.077,67.737"/>
<path fill="#9A6FA9" d="M95.077,52.851c-0.515,0-0.93,0.426-0.93,0.942c0,0.512,0.415,0.926,0.93,0.926
	c0.507,0,0.923-0.414,0.923-0.926v-0.026C96,53.26,95.584,52.851,95.077,52.851"/>
<path fill="#9A6FA9" d="M95.077,40.449c-0.515,0-0.93,0.427-0.93,0.939c0,0.51,0.415,0.925,0.93,0.925
	c0.507,0,0.923-0.415,0.923-0.925v-0.023C96,40.852,95.584,40.449,95.077,40.449"/>
<path fill="#9A6FA9" d="M95.077,62.773c-0.515,0-0.93,0.429-0.93,0.944c0,0.514,0.415,0.928,0.93,0.928
	c0.507,0,0.923-0.414,0.923-0.928v-0.031C96,63.178,95.584,62.773,95.077,62.773"/>
<path fill="#9A6FA9" d="M95.077,55.331c-0.515,0-0.93,0.428-0.93,0.944c0,0.509,0.415,0.921,0.93,0.921
	c0.507,0,0.923-0.412,0.923-0.921v-0.029C96,55.731,95.584,55.331,95.077,55.331"/>
<path fill="#9A6FA9" d="M95.077,65.26c-0.515,0-0.93,0.424-0.93,0.938c0,0.511,0.415,0.926,0.93,0.926
	c0.507,0,0.923-0.415,0.923-0.926v-0.028C96,65.662,95.584,65.26,95.077,65.26"/>
<path fill="#9A6FA9" d="M95.077,60.294c-0.515,0-0.93,0.427-0.93,0.943c0,0.508,0.415,0.921,0.93,0.921
	c0.507,0,0.923-0.413,0.923-0.921v-0.029C96,60.698,95.584,60.294,95.077,60.294"/>
<path fill="#9A6FA9" d="M95.077,57.814c-0.515,0-0.93,0.426-0.93,0.938s0.415,0.93,0.93,0.93c0.507,0,0.923-0.417,0.923-0.93v-0.026
	C96,58.213,95.584,57.814,95.077,57.814"/>
<path fill="#9A6FA9" d="M81.304,84.846c-0.513,0-0.927,0.41-0.927,0.928c0,0.51,0.414,0.923,0.927,0.923h0.026
	c0.514,0,0.91-0.413,0.91-0.923C82.24,85.256,81.816,84.846,81.304,84.846"/>
<path fill="#9A6FA9" d="M59.395,32.249c0-0.512-0.417-0.926-0.933-0.926h-0.024c-0.507,0-0.914,0.414-0.914,0.926
	c0,0.516,0.429,0.926,0.938,0.926C58.978,33.175,59.395,32.765,59.395,32.249"/>
<path fill="#9A6FA9" d="M61.869,32.249c0-0.512-0.413-0.926-0.924-0.926h-0.028c-0.51,0-0.917,0.414-0.917,0.926
	c0,0.516,0.432,0.926,0.945,0.926C61.456,33.175,61.869,32.765,61.869,32.249"/>
<path fill="#9A6FA9" d="M58.978,84.846c-0.516,0-0.932,0.41-0.932,0.928c0,0.51,0.416,0.923,0.932,0.923h0.023
	c0.508,0,0.914-0.413,0.914-0.923C59.915,85.256,59.487,84.846,58.978,84.846"/>
<path fill="#9A6FA9" d="M61.456,84.846c-0.511,0-0.927,0.41-0.927,0.928c0,0.51,0.416,0.923,0.927,0.923h0.027
	c0.509,0,0.911-0.413,0.911-0.923C62.395,85.256,61.971,84.846,61.456,84.846"/>
<path fill="#9A6FA9" d="M66.831,32.249c0-0.512-0.41-0.926-0.922-0.926h-0.027c-0.511,0-0.915,0.414-0.915,0.926
	c0,0.516,0.429,0.926,0.942,0.926C66.421,33.175,66.831,32.765,66.831,32.249"/>
<path fill="#9A6FA9" d="M64.356,32.249c0-0.512-0.419-0.926-0.934-0.926h-0.021c-0.515,0-0.914,0.414-0.914,0.926
	c0,0.516,0.426,0.926,0.936,0.926C63.938,33.175,64.356,32.765,64.356,32.249"/>
<path fill="#9A6FA9" d="M63.938,84.846c-0.515,0-0.932,0.41-0.932,0.928c0,0.51,0.417,0.923,0.932,0.923h0.026
	c0.51,0,0.916-0.413,0.916-0.923C64.88,85.256,64.446,84.846,63.938,84.846"/>
<path fill="#9A6FA9" d="M54.432,32.249c0-0.512-0.416-0.926-0.93-0.926h-0.026c-0.512,0-0.915,0.414-0.915,0.926
	c0,0.516,0.429,0.926,0.941,0.926C54.016,33.175,54.432,32.765,54.432,32.249"/>
<path fill="#9A6FA9" d="M51.533,84.846c-0.512,0-0.93,0.41-0.93,0.928c0,0.51,0.418,0.923,0.93,0.923h0.028
	c0.509,0,0.912-0.413,0.912-0.923C52.474,85.256,52.041,84.846,51.533,84.846"/>
<path fill="#9A6FA9" d="M56.496,84.846c-0.517,0-0.933,0.41-0.933,0.928c0,0.51,0.416,0.923,0.933,0.923h0.025
	c0.514,0,0.916-0.413,0.916-0.923C57.438,85.256,57.004,84.846,56.496,84.846"/>
<path fill="#9A6FA9" d="M54.014,84.846c-0.516,0-0.931,0.41-0.931,0.928c0,0.51,0.415,0.923,0.931,0.923h0.025
	c0.511,0,0.917-0.413,0.917-0.923C54.956,85.256,54.525,84.846,54.014,84.846"/>
<path fill="#9A6FA9" d="M56.911,32.249c0-0.512-0.415-0.926-0.926-0.926h-0.027c-0.514,0-0.914,0.414-0.914,0.926
	c0,0.516,0.43,0.926,0.941,0.926C56.496,33.175,56.911,32.765,56.911,32.249"/>
<path fill="#9A6FA9" d="M51.944,32.249c0-0.512-0.409-0.926-0.923-0.926h-0.025c-0.513,0-0.916,0.414-0.916,0.926
	c0,0.516,0.428,0.926,0.941,0.926S51.944,32.765,51.944,32.249"/>
<path fill="#9A6FA9" d="M79.237,32.249c0-0.512-0.412-0.926-0.923-0.926h-0.028c-0.513,0-0.918,0.414-0.918,0.926
	c0,0.516,0.429,0.926,0.946,0.926C78.825,33.175,79.237,32.765,79.237,32.249"/>
<path fill="#9A6FA9" d="M76.337,84.846c-0.509,0-0.925,0.41-0.925,0.928c0,0.51,0.416,0.923,0.925,0.923h0.028
	c0.514,0,0.915-0.413,0.915-0.923C77.28,85.256,76.857,84.846,76.337,84.846"/>
<path fill="#9A6FA9" d="M76.759,32.249c0-0.512-0.418-0.926-0.927-0.926h-0.027c-0.514,0-0.917,0.414-0.917,0.926
	c0,0.516,0.429,0.926,0.944,0.926C76.341,33.175,76.759,32.765,76.759,32.249"/>
<path fill="#9A6FA9" d="M78.825,84.846c-0.52,0-0.936,0.41-0.936,0.928c0,0.51,0.416,0.923,0.936,0.923h0.026
	c0.509,0,0.913-0.413,0.913-0.923C79.765,85.256,79.334,84.846,78.825,84.846"/>
<path fill="#9A6FA9" d="M81.719,32.249c0-0.512-0.415-0.926-0.928-0.926h-0.027c-0.511,0-0.909,0.414-0.909,0.926
	c0,0.516,0.429,0.926,0.937,0.926C81.304,33.175,81.719,32.765,81.719,32.249"/>
<path fill="#9A6FA9" d="M73.859,84.846c-0.512,0-0.93,0.41-0.93,0.928c0,0.51,0.418,0.923,0.93,0.923h0.028
	c0.509,0,0.913-0.413,0.913-0.923C74.801,85.256,74.369,84.846,73.859,84.846"/>
<path fill="#9A6FA9" d="M69.314,32.249c0-0.512-0.415-0.926-0.928-0.926h-0.024c-0.514,0-0.918,0.414-0.918,0.926
	c0,0.516,0.431,0.926,0.942,0.926C68.899,33.175,69.314,32.765,69.314,32.249"/>
<path fill="#9A6FA9" d="M74.275,32.249c0-0.512-0.413-0.926-0.928-0.926h-0.026c-0.511,0-0.913,0.414-0.913,0.926
	c0,0.516,0.427,0.926,0.939,0.926C73.862,33.175,74.275,32.765,74.275,32.249"/>
<path fill="#9A6FA9" d="M68.899,84.846c-0.516,0-0.928,0.41-0.928,0.928c0,0.51,0.412,0.923,0.928,0.923h0.028
	c0.508,0,0.915-0.413,0.915-0.923C69.843,85.256,69.407,84.846,68.899,84.846"/>
<path fill="#9A6FA9" d="M66.418,84.846c-0.511,0-0.93,0.41-0.93,0.928c0,0.51,0.419,0.923,0.93,0.923h0.022
	c0.517,0,0.915-0.413,0.915-0.923C67.355,85.256,66.93,84.846,66.418,84.846"/>
<path fill="#9A6FA9" d="M71.796,32.249c0-0.512-0.416-0.926-0.928-0.926h-0.026c-0.514,0-0.916,0.414-0.916,0.926
	c0,0.516,0.429,0.926,0.942,0.926C71.38,33.175,71.796,32.765,71.796,32.249"/>
<path fill="#9A6FA9" d="M71.38,84.846c-0.512,0-0.925,0.41-0.925,0.928c0,0.51,0.413,0.923,0.925,0.923h0.028
	c0.508,0,0.908-0.413,0.908-0.923C72.316,85.256,71.893,84.846,71.38,84.846"/>
<path fill="#9A6FA9" d="M92.563,35.553c0.322,0,0.638-0.17,0.81-0.472c0.252-0.445,0.092-1.014-0.353-1.262l-0.064-0.034
	c-0.45-0.225-0.985-0.049-1.224,0.4c-0.236,0.444-0.058,1.002,0.377,1.249L92.563,35.553z"/>
<path fill="#9A6FA9" d="M93.233,36.153c-0.239,0.444-0.062,1.004,0.377,1.251c0.146,0.079,0.295,0.12,0.451,0.12
	c0.326,0,0.64-0.173,0.811-0.477c0.251-0.443,0.095-1.011-0.355-1.257l-0.062-0.034C94.006,35.531,93.47,35.709,93.233,36.153"/>
<rect fill="none" width="96" height="114.667"/>
</svg>
