<?xml version="1.0" encoding="utf-8"?>
<!-- Generator: Adobe Illustrator 15.0.2, SVG Export Plug-In  -->
<!DOCTYPE svg PUBLIC "-//W3C//DTD SVG 1.1//EN" "http://www.w3.org/Graphics/SVG/1.1/DTD/svg11.dtd" [
	<!ENTITY ns_flows "http://ns.adobe.com/Flows/1.0/">
]>
<svg version="1.1"
	 xmlns="http://www.w3.org/2000/svg" xmlns:xlink="http://www.w3.org/1999/xlink" xmlns:a="http://ns.adobe.com/AdobeSVGViewerExtensions/3.0/"
	 x="0px" y="0px" width="96px" height="22px" viewBox="0 46.334 96 22" enable-background="new 0 46.334 96 22"
	 xml:space="preserve">
<defs>
</defs>
<path d="M60.681,62.855c-2.922,0-4.581-0.959-4.987-2.992h3.026c6.875,0,9.945-1.072,9.945-5.141c0-5.172-4.135-8.166-9.463-8.166
	c-4.172,0-7.411,2.217-9.113,5.506c-1.826-3.379-5.418-5.434-9.291-5.434c-4.297,0-7.797,2.01-9.643,5.367
	c-1.32-3.508-4.348-5.402-8.684-5.402c-2.923,0-5.399,2.068-6.354,3.619c-0.672-1.666-3.076-3.619-6.252-3.619
	C3.399,46.594,0,50.361,0,56.273v7.135c0,2.59,1.44,4.102,4.582,4.102H7.02V55.834c0-2.516,0.776-3.51,2.739-3.51
	c1.848,0,2.768,0.994,2.768,3.393v7.691c0,3.18,1.521,4.102,4.367,4.102h2.441V55.791c0-2.029,0.662-3.467,2.616-3.467
	c2.036,0,2.921,0.961,2.921,3.582v7.502c0,2.518,0.853,4.102,4.584,4.102h2.441v-0.047c-1.828-2.148-2.906-4.775-2.906-7.719
	c0-2.369,0.555-4.51,1.539-6.383c-0.502,1.316-0.784,2.799-0.784,4.428c0,2.463,0.808,4.619,2.151,6.326
	c1.92,2.447,4.957,3.949,8.385,3.949c4.655,0,7.986-1.893,9.705-5.102c1.618,3.043,4.813,5.139,9.477,5.139
	c5.801,0,7.9-2.328,7.9-4.916v-1.623h-0.25C65.966,62.334,63.935,62.855,60.681,62.855 M40.728,62.596
	c-2.477,0-4.03-1.699-4.03-5.619c0-2.768,1.74-4.805,3.659-4.805c2.441,0,4.031,1.926,4.031,5.582
	C44.388,60.559,42.942,62.596,40.728,62.596 M59.202,51.803c2.03,0,2.959,1.109,2.959,2.146c0,0.879-0.592,1.396-3.922,1.396h-2.727
	C55.693,53.393,56.725,51.803,59.202,51.803"/>
<path d="M79.774,67.795h-10.62c-0.864,0-1.386-0.555-1.386-1.199c-0.027-1.508,0.463-2.316,3.447-4.959l4.403-3.906
	c1.968-1.758,2.617-3.02,2.617-4.588c0-2.49-1.543-4.002-4.494-4.002c-3.235,0-4.745,1.633-5.636,3.143h-0.182v-1.297
	c0-2.186,2.123-4.428,6.404-4.428c3.846,0,6.742,2.676,6.742,6.09c0,3.297-1.33,4.836-4.068,7.141l-4.246,3.607
	c-0.676,0.58-1.418,1.32-1.76,1.814h10.587v0.982C81.584,66.836,81.161,67.795,79.774,67.795"/>
<path d="M88.605,68.109c-4.734,0-7.198-2.711-7.198-5.945c0-2.066,1.261-4.182,4.061-4.988c-2.678-0.863-3.781-2.342-3.781-4.467
	c0-3.445,2.555-6.152,7.104-6.152c4.004,0,6.9,2.281,6.9,5.727c0,2.709-1.419,4.029-3.912,4.676C94.452,57.605,96,60.004,96,61.76
	C96,65.053,93.757,68.109,88.605,68.109 M88.583,58.283c-2.809,0-4.342,1.602-4.342,3.602c0,2.217,1.749,3.633,4.549,3.633
	c3.086,0,4.368-1.57,4.368-3.512C93.158,59.977,91.842,58.283,88.583,58.283 M88.605,49.047c-2.831,0-4.122,1.445-4.122,3.355
	c0,2.188,1.572,3.508,4.346,3.508c2.732,0,4.055-1.229,4.055-3.352C92.884,50.492,91.407,49.047,88.605,49.047"/>
<rect fill="none" width="96" height="114.666"/>
</svg>
