<?xml version="1.0" encoding="utf-8"?>
<!-- Generator: Adobe Illustrator 15.0.2, SVG Export Plug-In  -->
<!DOCTYPE svg PUBLIC "-//W3C//DTD SVG 1.1//EN" "http://www.w3.org/Graphics/SVG/1.1/DTD/svg11.dtd" [
	<!ENTITY ns_flows "http://ns.adobe.com/Flows/1.0/">
]>
<svg version="1.1"
	 xmlns="http://www.w3.org/2000/svg" xmlns:xlink="http://www.w3.org/1999/xlink" xmlns:a="http://ns.adobe.com/AdobeSVGViewerExtensions/3.0/"
	 x="0px" y="0px" width="72px" height="49px" viewBox="11.214 33.174 72 49" enable-background="new 11.214 33.174 72 49"
	 xml:space="preserve">
<defs>
</defs>
<path fill="#E2007A" d="M35.903,39.229l-4.119,14.443c-0.123,0.432-0.311,0.623-0.807,0.623h-2.95c-0.465,0-0.681-0.191-0.804-0.623
	l-1.969-6.518c-0.467-1.506-0.709-3.354-0.709-3.354h-0.063c0,0-0.275,1.848-0.738,3.354l-1.939,6.518
	c-0.129,0.432-0.337,0.623-0.834,0.623h-2.924c-0.494,0-0.711-0.191-0.831-0.623l-4.128-14.443C13.028,39.04,13,38.882,13,38.729
	c0-0.441,0.245-0.662,0.643-0.662h3.142c0.433,0,0.708,0.158,0.801,0.598l1.819,8.207c0.307,1.377,0.459,3.164,0.459,3.164h0.062
	c0,0,0.311-1.82,0.707-3.164l2.405-8.176c0.126-0.445,0.339-0.629,0.806-0.629h1.998c0.49,0,0.674,0.184,0.801,0.629l2.304,8.176
	c0.374,1.344,0.681,3.164,0.681,3.164h0.059c0,0,0.188-1.787,0.496-3.164l1.879-8.207c0.09-0.439,0.367-0.598,0.804-0.598h2.52
	c0.403,0,0.614,0.221,0.614,0.662C35.997,38.882,35.97,39.04,35.903,39.229"/>
<path fill="#E2007A" d="M47.844,53.7c-0.77,0.502-2.96,1.004-5.019,1.004c-3.605,0-7.053-1.125-7.053-4.477
	c0-4.291,5.113-5.301,8.928-6.016v-2.064c0-1.355-0.798-2.137-1.904-2.137c-1.419,0-2.123,1.158-2.402,2.068
	c-0.252,0.783-1.018,1.314-2.006,1.314c-1.073,0-1.938-0.621-1.938-1.783c0-1.539,1.938-3.951,6.96-3.951
	c3.143,0,5.635,1.57,5.635,4.926v8.549C49.044,52.481,48.766,53.104,47.844,53.7 M44.7,46.185c-2.369,0.473-4.616,1.189-4.616,3.664
	c0,1.41,0.956,2.475,2.614,2.475c1.018,0,2.002-0.377,2.002-1.533V46.185z"/>
<path fill="#E2007A" d="M56.329,54.704c-1.817,0-4.559-0.654-4.559-4.758v-9.371h-1.508c-0.428,0-0.642-0.223-0.642-0.658v-1.188
	c0-0.441,0.214-0.662,0.642-0.662h1.508v-2.063c0-0.479,0.097-0.754,0.432-0.916l2.988-1.346l0.463-0.154
	c0.399,0,0.617,0.25,0.617,0.656v3.822h2.372c0.429,0,0.646,0.221,0.646,0.662v1.188c0,0.436-0.217,0.658-0.646,0.658h-2.372v9.49
	c0,1.85,0.859,2.258,1.785,2.258c0.249,0,0.43-0.029,0.613-0.029c0.553,0,0.865,0.314,0.865,0.811
	C59.534,54.05,58.149,54.704,56.329,54.704"/>
<path fill="#E2007A" d="M66.319,54.704c-1.818,0-4.559-0.654-4.559-4.758v-9.371h-1.51c-0.431,0-0.645-0.223-0.645-0.658v-1.188
	c0-0.441,0.214-0.662,0.645-0.662h1.51v-2.063c0-0.479,0.096-0.754,0.433-0.916l2.985-1.346l0.463-0.154
	c0.4,0,0.614,0.25,0.614,0.656v3.822h2.372c0.429,0,0.645,0.221,0.645,0.662v1.188c0,0.436-0.216,0.658-0.645,0.658h-2.372v9.49
	c0,1.85,0.865,2.258,1.786,2.258c0.248,0,0.436-0.029,0.615-0.029c0.554,0,0.863,0.314,0.863,0.811
	C69.521,54.05,68.132,54.704,66.319,54.704"/>
<path fill="#E2007A" d="M76.628,54.704c-4.128,0-7.453-2.564-7.453-8.643c0-5.828,3.48-8.402,7.422-8.402
	c3.849,0,6.343,2.916,6.343,6.365c0,0.902-0.37,1.154-1.144,1.283l-8.463,1.408c0.279,2.416,1.57,4.418,4.187,4.418
	c1.785,0,3.018-1.254,3.632-2.162c0.217-0.313,0.526-0.563,0.957-0.563c0.488,0,0.892,0.441,0.892,1
	C83,51.728,80.413,54.704,76.628,54.704 M76.102,40.11c-2.155,0-2.987,2.279-3.048,4.381l5.666-0.969
	C78.653,41.831,78.014,40.11,76.102,40.11"/>
<path fill="#E2007A" d="M35.903,65.604l-4.119,14.443c-0.123,0.434-0.311,0.627-0.807,0.627h-2.95c-0.465,0-0.681-0.193-0.804-0.627
	l-1.969-6.52c-0.467-1.506-0.709-3.348-0.709-3.348h-0.063c0,0-0.275,1.842-0.738,3.348l-1.939,6.52
	c-0.129,0.434-0.337,0.627-0.834,0.627h-2.924c-0.494,0-0.711-0.193-0.831-0.627l-4.128-14.443C13.028,65.417,13,65.261,13,65.101
	c0-0.436,0.245-0.652,0.643-0.652h3.142c0.433,0,0.708,0.156,0.801,0.59l1.819,8.205c0.307,1.379,0.459,3.17,0.459,3.17h0.062
	c0,0,0.311-1.822,0.707-3.17l2.405-8.17c0.126-0.449,0.339-0.625,0.806-0.625h1.998c0.49,0,0.674,0.176,0.801,0.625l2.304,8.17
	c0.374,1.348,0.681,3.17,0.681,3.17h0.059c0,0,0.188-1.791,0.496-3.17l1.879-8.205c0.09-0.434,0.367-0.59,0.804-0.59h2.52
	c0.403,0,0.614,0.217,0.614,0.652C35.997,65.261,35.97,65.417,35.903,65.604"/>
<path fill="#E2007A" d="M47.844,80.073c-0.77,0.508-2.96,1.006-5.019,1.006c-3.605,0-7.053-1.127-7.053-4.475
	c0-4.291,5.113-5.303,8.928-6.018v-2.07c0-1.346-0.798-2.131-1.904-2.131c-1.419,0-2.123,1.16-2.402,2.066
	c-0.252,0.785-1.018,1.316-2.006,1.316c-1.073,0-1.938-0.625-1.938-1.781c0-1.539,1.938-3.953,6.96-3.953
	c3.143,0,5.635,1.57,5.635,4.926v8.551C49.044,78.856,48.766,79.483,47.844,80.073 M44.7,72.558
	c-2.369,0.471-4.616,1.193-4.616,3.666c0,1.41,0.956,2.475,2.614,2.475c1.018,0,2.002-0.377,2.002-1.533V72.558z"/>
<path fill="#E2007A" d="M56.329,81.079c-1.817,0-4.559-0.658-4.559-4.762v-9.369h-1.508c-0.428,0-0.642-0.217-0.642-0.654v-1.193
	c0-0.436,0.214-0.652,0.642-0.652h1.508V62.38c0-0.482,0.097-0.758,0.432-0.916l2.988-1.348l0.463-0.15
	c0.399,0,0.617,0.248,0.617,0.656v3.826h2.372c0.429,0,0.646,0.217,0.646,0.652v1.193c0,0.438-0.217,0.654-0.646,0.654h-2.372v9.49
	c0,1.854,0.859,2.26,1.785,2.26c0.249,0,0.43-0.027,0.613-0.027c0.553,0,0.865,0.311,0.865,0.813
	C59.534,80.421,58.149,81.079,56.329,81.079"/>
<path fill="#E2007A" d="M66.319,81.079c-1.818,0-4.559-0.658-4.559-4.762v-9.369h-1.51c-0.431,0-0.645-0.217-0.645-0.654v-1.193
	c0-0.436,0.214-0.652,0.645-0.652h1.51V62.38c0-0.482,0.096-0.758,0.433-0.916l2.985-1.348l0.463-0.15
	c0.4,0,0.614,0.248,0.614,0.656v3.826h2.372c0.429,0,0.645,0.217,0.645,0.652v1.193c0,0.438-0.216,0.654-0.645,0.654h-2.372v9.49
	c0,1.854,0.865,2.26,1.786,2.26c0.248,0,0.436-0.027,0.615-0.027c0.554,0,0.863,0.311,0.863,0.813
	C69.521,80.421,68.132,81.079,66.319,81.079"/>
<path fill="#E2007A" d="M76.628,81.079c-4.128,0-7.453-2.564-7.453-8.645c0-5.832,3.48-8.4,7.422-8.4
	c3.849,0,6.343,2.914,6.343,6.367c0,0.9-0.37,1.156-1.144,1.281l-8.463,1.41c0.279,2.414,1.57,4.418,4.187,4.418
	c1.785,0,3.018-1.26,3.632-2.166c0.217-0.313,0.526-0.561,0.957-0.561c0.488,0,0.892,0.438,0.892,1
	C83,78.104,80.413,81.079,76.628,81.079 M76.102,66.485c-2.155,0-2.987,2.281-3.048,4.381l5.666-0.967
	C78.653,68.208,78.014,66.485,76.102,66.485"/>
<rect fill="none" width="96" height="114.667"/>
</svg>
