<svg width="223.95751953125px" height="186.79126586914063px" xmlns="http://www.w3.org/2000/svg" viewBox="0 0 500 150" style="background: none;"><defs><filter id="editing-extrude-glow"><feFlood flood-color="#040404" result="flood-1"></feFlood><feMorphology operator="erode" radius="1" in="SourceAlpha" result="erode"></feMorphology><feComposite operator="in" in="flood-1" in2="erode" result="comp1"></feComposite><feConvolveMatrix order="0,0" divisor="1" in="comp1" result="convolve" kernelMatrix=""></feConvolveMatrix><feOffset dx="0" dy="0" in="convolve" result="extrude"></feOffset><feComposite operator="in" in="flood-1" in2="extrude" result="comp-extrude"></feComposite><feFlood flood-color="#000000" result="flood-2"></feFlood><feComposite operator="in" in="flood-2" in2="SourceAlpha" result="comp2"></feComposite><feMorphology operator="dilate" radius="1" in="comp2" result="dilate"></feMorphology><feOffset dx="0" dy="0" in="dilate" result="offset"></feOffset><feGaussianBlur in="offset" stdDeviation="5.8" result="blur"></feGaussianBlur><feComponentTransfer in="blur" result="shadow"><feFuncA type="linear" slope="0.8" intercept="-0.2"></feFuncA></feComponentTransfer><feMerge><feMergeNode in="shadow"></feMergeNode><feMergeNode in="comp-extrude"></feMergeNode><feMergeNode in="SourceGraphic"></feMergeNode></feMerge></filter></defs><g filter="url(#editing-extrude-glow)"><g transform="translate(175.3968734741211, 111.82968521118164)"><path d="M14.10-28.70L14.10-28.70L22.40-28.50L22.40-28.50Q26.80-28.50 29.30-28.60L29.30-28.60L29.30-28.60Q29.60-36.80 29.60-43L29.60-43L29.50-52.80L29.50-52.80Q29.50-54.10 28.80-54.10L28.80-54.10L27.60-53.50L27.60-53.50Q24.50-50.10 21.05-44.60L21.05-44.60L21.05-44.60Q17.60-39.10 15.70-35.20L15.70-35.20L13.80-31.40L13.80-31.40Q13.40-30.50 13.40-29.60L13.40-29.60L13.40-29.60Q13.40-28.70 14.10-28.70ZM28.80-18.30L28.80-18.30L20.20-18.40L2.20-18.20L2.20-18.20Q0-18.20 0-20.20L0-20.20L0.20-21.30L0.20-21.30Q6.60-37.10 21.70-57.20L21.70-57.20L21.70-57.20Q26.50-63.70 30.60-68.20L30.60-68.20L31.90-69.50L31.90-69.50Q34.50-72.20 39.60-72.20L39.60-72.20L39.60-72.20Q42.30-72.20 42.30-70.60L42.30-70.60L42.30-70.60Q40.70-56.50 40.70-41.90L40.70-41.90L40.70-29.20L40.70-29.20Q42-29.30 43.50-29.40L43.50-29.40L45.80-29.60L45.80-29.60Q46.50-29.60 46.70-29.60L46.70-29.60L46.70-29.60Q47.50-29.60 47.50-29.10L47.50-29.10L47.50-29.10Q47.50-27.40 45.80-23.60L45.80-23.60L45.80-23.60Q44.10-19.80 42.30-19L42.30-19L40.90-18.70L40.90-18.70Q41.10-7.40 41.90-3.50L41.90-3.50L41.90-3.50Q41.90-0.90 37.95 0.30L37.95 0.30L37.95 0.30Q34 1.50 30.45 1.50L30.45 1.50L30.45 1.50Q26.90 1.50 26.90-0.10L26.90-0.10L26.90-0.10Q26.90-0.30 27.50-4.10L27.50-4.10L27.50-4.10Q28.10-7.90 28.80-18.30ZM85.60-35.05L85.60-35.05L85.60-35.05Q85.60-64.90 75.05-64.90L75.05-64.90L75.05-64.90Q64.50-64.90 64.50-35.05L64.50-35.05L64.50-35.05Q64.50-5.20 75.05-5.20L75.05-5.20L75.05-5.20Q85.60-5.20 85.60-35.05ZM90.40-4.15L90.40-4.15L90.40-4.15Q87.90-1.40 84 0.10L84 0.10L84 0.10Q80.10 1.60 74.55 1.60L74.55 1.60L74.55 1.60Q69 1.60 64.50-0.55L64.50-0.55L64.50-0.55Q60.00-2.70 57.55-5.95L57.55-5.95L57.55-5.95Q55.10-9.20 53.60-14.10L53.60-14.10L53.60-14.10Q52.10-19 51.70-23.40L51.70-23.40L51.70-23.40Q51.30-27.80 51.30-33.75L51.30-33.75L51.30-33.75Q51.30-39.70 51.80-44.70L51.80-44.70L51.80-44.70Q52.30-49.70 53.80-54.95L53.80-54.95L53.80-54.95Q55.30-60.20 57.85-63.70L57.85-63.70L57.85-63.70Q60.40-67.20 64.80-69.45L64.80-69.45L64.80-69.45Q69.20-71.70 74.85-71.70L74.85-71.70L74.85-71.70Q80.50-71.70 84.60-70L84.60-70L84.60-70Q88.70-68.30 91.20-65.15L91.20-65.15L91.20-65.15Q93.70-62 95.30-58.60L95.30-58.60L95.30-58.60Q96.90-55.20 97.60-50.60L97.60-50.60L97.60-50.60Q98.80-42.80 98.80-36.65L98.80-36.65L98.80-36.65Q98.80-30.50 98.45-26.50L98.45-26.50L98.45-26.50Q98.10-22.50 97.25-18.05L97.25-18.05L97.25-18.05Q96.40-13.60 94.65-10.25L94.65-10.25L94.65-10.25Q92.90-6.90 90.40-4.15ZM114.90-28.70L114.90-28.70L123.20-28.50L123.20-28.50Q127.60-28.50 130.10-28.60L130.10-28.60L130.10-28.60Q130.40-36.80 130.40-43L130.40-43L130.30-52.80L130.30-52.80Q130.30-54.10 129.60-54.10L129.60-54.10L128.40-53.50L128.40-53.50Q125.30-50.10 121.85-44.60L121.85-44.60L121.85-44.60Q118.40-39.10 116.50-35.20L116.50-35.20L114.60-31.40L114.60-31.40Q114.20-30.50 114.20-29.60L114.20-29.60L114.20-29.60Q114.20-28.70 114.90-28.70ZM129.60-18.30L129.60-18.30L121.00-18.40L103.00-18.20L103.00-18.20Q100.80-18.20 100.80-20.20L100.80-20.20L101.00-21.30L101.00-21.30Q107.40-37.10 122.50-57.20L122.50-57.20L122.50-57.20Q127.30-63.70 131.40-68.20L131.40-68.20L132.70-69.50L132.70-69.50Q135.30-72.20 140.40-72.20L140.40-72.20L140.40-72.20Q143.10-72.20 143.10-70.60L143.10-70.60L143.10-70.60Q141.50-56.50 141.50-41.90L141.50-41.90L141.50-29.20L141.50-29.20Q142.80-29.30 144.30-29.40L144.30-29.40L146.60-29.60L146.60-29.60Q147.30-29.60 147.50-29.60L147.50-29.60L147.50-29.60Q148.30-29.60 148.30-29.10L148.30-29.10L148.30-29.10Q148.30-27.40 146.60-23.60L146.60-23.60L146.60-23.60Q144.90-19.80 143.10-19L143.10-19L141.70-18.70L141.70-18.70Q141.90-7.40 142.70-3.50L142.70-3.50L142.70-3.50Q142.70-0.90 138.75 0.30L138.75 0.30L138.75 0.30Q134.80 1.50 131.25 1.50L131.25 1.50L131.25 1.50Q127.70 1.50 127.70-0.10L127.70-0.10L127.70-0.10Q127.70-0.30 128.30-4.10L128.30-4.10L128.30-4.10Q128.90-7.90 129.60-18.30Z" fill="#2d7ebf"></path></g></g><style>text {
  font-size: 64px;
  font-family: Arial Black;
  dominant-baseline: central;
  text-anchor: middle;
}</style></svg>